<svg xmlns="http://www.w3.org/2000/svg" viewBox="0 0 124.72 189.38"><defs><style>.cls-1{fill:#51666d;}.cls-2,.cls-3{fill:#fff;}.cls-2{stroke:#000;stroke-miterlimit:10;stroke-width:1.86px;}.cls-4{fill:#ffdb45;}</style></defs><title>Element 18</title><g id="Ebene_2" data-name="Ebene 2"><g id="Ebene_1-2" data-name="Ebene 1"><path d="M124.72,178.58V11.34A11.37,11.37,0,0,0,113.39,0h-102A11.37,11.37,0,0,0,0,11.34V178.58a11.38,11.38,0,0,0,7.89,10.8H116.83A11.38,11.38,0,0,0,124.72,178.58Z"/><path class="cls-1" d="M120.05,172.29V17.59A10.52,10.52,0,0,0,109.56,7.1H15.16A10.52,10.52,0,0,0,4.67,17.59V172.29a10.53,10.53,0,0,0,7.3,10H112.75A10.53,10.53,0,0,0,120.05,172.29Z"/><rect class="cls-2" x="93.97" y="110.88" width="15.81" height="15.81" transform="translate(113.83 -37.25) rotate(45)"/><rect x="100.21" y="113.19" width="3.33" height="10.56"/><rect x="100.21" y="113.19" width="3.33" height="10.56" transform="translate(-16.6 220.35) rotate(-90)"/><polygon class="cls-2" points="12.26 128.36 24.55 109.85 36.85 128.36 12.26 128.36"/><polygon points="25.8 121.84 25.8 115.01 24.55 112.11 23.31 115.01 23.31 121.84 21.45 121.84 21.45 122.67 23.93 123.29 23.93 124.94 23.31 125.67 23.93 126.39 24.55 127.01 25.17 126.39 25.8 125.67 25.17 124.94 25.17 123.29 27.66 122.67 27.66 121.84 25.8 121.84"/><rect class="cls-2" x="54.76" y="110.4" width="17.39" height="17.39" transform="translate(182.55 55.64) rotate(90)"/><polygon points="58.17 114.44 68.88 114.44 68.11 120.55 63.53 124.37 58.94 120.55 58.17 114.44"/><polygon points="25.03 8.63 7 21.36 13.89 41.96 36.17 41.96 43.05 21.36 25.03 8.63"/><polygon class="cls-3" points="26.45 20.48 21.14 25.8 25.7 30.36 23.41 37.96 27.21 31.12 24.18 26.56 29.5 21.24 30.25 24.28 32.53 26.56 31.02 31.12 34.05 25.8 31.77 22.76 31.02 18.96 24.93 15.16 20.38 18.96 19.61 22.76 15.05 24.28 15.81 28.08 16.57 25.04 21.14 24.28 22.66 19.72 24.93 18.96 26.45 20.48"/><polygon points="56.28 43.25 68.92 41.98 81.56 48.3 87.89 44.51 89.15 50.83 96.61 60.73 96.73 76.11 103.06 76.11 94.21 84.96 98 87.49 85.36 92.55 76.51 97.61 79.04 101.4 67.66 101.4 57.55 95.08 57.55 97.61 48.7 95.08 48.7 87.49 41.11 86.23 38.58 73.59 36.05 77.38 36.05 68.53 43.64 58.42 36.05 58.42 43.64 48.3 52.49 48.3 56.28 43.25"/><polygon class="cls-3" points="58.05 47.96 68.06 46.96 78.06 51.96 83.06 48.96 84.06 53.96 89.95 61.79 90.06 73.96 95.06 73.96 88.06 80.96 91.06 82.96 81.06 86.96 74.06 90.96 76.06 93.96 67.06 93.96 59.05 88.96 59.05 90.96 52.05 88.96 52.05 82.96 46.05 81.96 44.05 71.96 42.05 74.96 42.05 67.96 48.05 59.96 42.05 59.96 48.05 51.96 55.05 51.96 58.05 47.96"/><polygon class="cls-4" points="76.06 34.96 59.05 33.96 54.05 39.96 40.05 41.96 41.05 51.96 39.05 61.96 50.05 70.96 44.05 61.96 45.05 53.96 44.05 45.96 55.05 42.96 60.05 36.96 74.06 35.96 77.06 43.96 76.06 34.96"/><polygon class="cls-4" points="92.06 51.96 102.06 59.96 88.06 65.96 88.06 71.96 78.06 73.96 69.06 67.96 59.05 69.96 69.06 64.96 79.06 67.96 84.06 67.96 86.06 62.96 96.06 59.96 92.06 51.96"/><polygon class="cls-4" points="39.61 78.7 40.05 84.96 36.05 89.96 44.05 89.96 47.51 82.21 55.05 80.96 58.05 76.96 56.05 82.96 52.05 84.56 48.7 93.96 31.05 95.96 31.05 88.96 34.05 84.96 39.61 78.7"/><polygon class="cls-4" points="34.05 56.96 26.05 53.96 20.05 61.96 24.05 65.96 18.05 71.96 26.05 67.96 26.05 64.96 25.05 61.96 26.05 56.96 34.05 56.96"/><polygon class="cls-4" points="107.06 76.96 110.06 84.96 103.06 88.96 104.06 93.96 99.06 88.96 106.06 84.96 107.06 76.96"/><polygon class="cls-4" points="86.06 95.96 80.06 90.96 80.06 82.96 71.06 80.96 65.06 84.96 71.06 82.96 75.06 84.96 75.06 90.96 83.06 98.96 86.06 95.96"/></g></g></svg>