<svg xmlns="http://www.w3.org/2000/svg" viewBox="0 0 124.72 189.38"><defs><style>.cls-1{fill:#51666d;}.cls-2,.cls-3{fill:#fff;}.cls-2{stroke:#000;stroke-miterlimit:10;stroke-width:1.86px;}.cls-4{fill:#216d5e;}</style></defs><title>Element 40</title><g id="Ebene_2" data-name="Ebene 2"><g id="Ebene_1-2" data-name="Ebene 1"><path d="M124.72,178.58V11.34A11.37,11.37,0,0,0,113.39,0h-102A11.37,11.37,0,0,0,0,11.34V178.58a11.38,11.38,0,0,0,7.89,10.8H116.83A11.38,11.38,0,0,0,124.72,178.58Z"/><path class="cls-1" d="M120.11,172.29V17.59A10.52,10.52,0,0,0,109.62,7.1H15.22A10.52,10.52,0,0,0,4.73,17.59V172.29a10.53,10.53,0,0,0,7.3,10H112.8A10.53,10.53,0,0,0,120.11,172.29Z"/><rect class="cls-2" x="93.97" y="110.88" width="15.81" height="15.81" transform="translate(113.83 -37.25) rotate(45)"/><rect x="100.21" y="113.19" width="3.33" height="10.56"/><rect x="100.21" y="113.19" width="3.33" height="10.56" transform="translate(-16.6 220.35) rotate(-90)"/><polygon class="cls-2" points="12.26 128.36 24.55 109.85 36.85 128.36 12.26 128.36"/><polygon points="25.8 121.84 25.8 115.01 24.55 112.11 23.31 115.01 23.31 121.84 21.45 121.84 21.45 122.67 23.93 123.29 23.93 124.94 23.31 125.67 23.93 126.39 24.55 127.01 25.17 126.39 25.8 125.67 25.17 124.94 25.17 123.29 27.66 122.67 27.66 121.84 25.8 121.84"/><polygon points="25.05 9.58 7.03 22.31 13.91 42.91 36.2 42.91 43.08 22.31 25.05 9.58"/><polygon class="cls-3" points="35.08 28.91 34.08 22.91 32.08 20.91 31.08 18.91 31.08 21.91 30.08 24.91 28.08 24.91 29.08 23.91 28.08 22.91 26.08 20.91 27.08 19.91 28.08 19.91 29.08 21.91 29.08 19.91 27.08 18.91 25.08 19.91 23.08 18.91 21.08 19.91 21.08 21.91 22.08 19.91 23.08 19.91 24.08 20.91 22.08 22.91 21.08 23.91 22.08 24.91 20.08 24.91 19.08 21.91 19.08 18.91 18.08 20.91 16.08 22.91 15.08 28.91 17.08 33.91 17.08 30.91 20.08 29.91 20.08 30.91 23.08 28.91 23.08 30.91 22.08 33.91 24.08 31.91 25.08 30.91 26.08 31.91 28.08 33.91 27.08 30.91 27.08 28.91 30.08 30.91 30.08 29.91 33.08 30.91 33.08 33.91 35.08 28.91"/><rect class="cls-2" x="54.76" y="110.4" width="17.39" height="17.39" transform="translate(182.55 55.64) rotate(90)"/><polygon points="58.17 114.44 68.88 114.44 68.11 120.55 63.53 124.37 58.94 120.55 58.17 114.44"/><polygon class="cls-3" points="38.58 83.39 28.34 83.39 22.46 86.6 25.05 90.89 41.56 96.77 71.59 98.52 89.71 93.77 100.21 86.6 96.09 83.39 89.59 81.39 38.58 83.39"/><polygon points="35.45 57.51 36.95 49.17 47.46 40.14 62.52 33.91 83.11 40.34 97.39 58.34 97.39 76.84 87.61 88.58 65.11 87.84 49.95 88.58 43.28 92.34 37.95 91.17 39.28 87.17 38.09 86.38 35.79 90.48 31.91 89.47 34.28 85.19 32.71 84.35 29.38 87.85 27.66 85.87 29.55 82.68 30.95 79 31.71 71.35 36.85 67.35 35.45 57.51"/><polygon class="cls-4" points="48.96 64.34 50.54 73.02 59.54 77.03 65.74 76.77 67.55 72.02 67.61 65.03 61.7 59.08 53.27 58.68 48.96 64.34"/><polygon class="cls-4" points="41.88 72.52 40.05 77.03 41.88 80.85 43.08 77.03 41.88 72.52"/><polygon class="cls-4" points="38.58 72.33 38.23 76.4 35.24 78.34 35.81 75.05 38.58 72.33"/><polygon class="cls-4" points="38.58 55.35 43.21 57.52 45.34 64.34 41.56 67.85 35.08 68.73 36.85 67.35 35.45 57.51 38.58 55.35"/><polygon class="cls-4" points="59.71 76.18 60.55 79.1 60.55 82.43 60.96 85.52 62.36 86.6 63.42 85.93 63.42 84.1 63.42 80.85 63.8 78.77 63.42 76.18 59.71 76.18"/><polygon class="cls-4" points="56.57 75.15 57.13 78.34 57.13 80.43 57.63 82.43 58.55 80.85 58.55 78.34 59.08 76.18 56.57 75.15"/><polygon points="54.32 61.24 51.46 64.33 51.46 71.08 59.08 75.15 63.15 75.33 65.71 72.33 65.71 66.58 61.34 60.77 54.32 61.24"/><polygon points="35.62 58.68 38.09 57.02 40.96 58.68 43.92 63.73 40.92 66.6 36.2 67.85 36.85 67.35 35.62 58.68"/></g></g></svg>