<svg xmlns="http://www.w3.org/2000/svg" viewBox="0 0 124.72 189.38"><defs><style>.cls-1{fill:#51666d;}.cls-2,.cls-3,.cls-4{fill:#fff;}.cls-2,.cls-4{stroke:#000;stroke-miterlimit:10;}.cls-2{stroke-width:1.86px;}.cls-4{stroke-width:2px;}.cls-5{fill:#fe9;}</style></defs><title>Element 37</title><g id="Ebene_2" data-name="Ebene 2"><g id="Ebene_1-2" data-name="Ebene 1"><path d="M124.72,178.58V11.34A11.37,11.37,0,0,0,113.39,0h-102A11.37,11.37,0,0,0,0,11.34V178.58a11.38,11.38,0,0,0,7.89,10.8H116.83A11.38,11.38,0,0,0,124.72,178.58Z"/><path class="cls-1" d="M120.05,172.29V17.59A10.52,10.52,0,0,0,109.56,7.1H15.16A10.52,10.52,0,0,0,4.67,17.59V172.29a10.53,10.53,0,0,0,7.3,10H112.75A10.53,10.53,0,0,0,120.05,172.29Z"/><rect class="cls-2" x="93.97" y="110.88" width="15.81" height="15.81" transform="translate(113.83 -37.25) rotate(45)"/><rect x="100.21" y="113.19" width="3.33" height="10.56"/><rect x="100.21" y="113.19" width="3.33" height="10.56" transform="translate(-16.6 220.35) rotate(-90)"/><polygon class="cls-2" points="12.26 128.36 24.55 109.85 36.85 128.36 12.26 128.36"/><polygon points="25.8 121.84 25.8 115.01 24.55 112.11 23.31 115.01 23.31 121.84 21.45 121.84 21.45 122.67 23.93 123.29 23.93 124.94 23.31 125.67 23.93 126.39 24.55 127.01 25.17 126.39 25.8 125.67 25.17 124.94 25.17 123.29 27.66 122.67 27.66 121.84 25.8 121.84"/><rect class="cls-2" x="54.76" y="110.4" width="17.39" height="17.39" transform="translate(182.55 55.64) rotate(90)"/><polygon points="58.17 114.44 68.88 114.44 68.11 120.55 63.53 124.37 58.94 120.55 58.17 114.44"/><polygon points="25.03 9.58 7 22.31 13.89 42.91 36.17 42.91 43.05 22.31 25.03 9.58"/><path class="cls-3" d="M22.06,12"/><polygon class="cls-3" points="16.55 18.46 24.55 24.46 22.55 25.46 16.55 18.46"/><polygon class="cls-3" points="23.41 13.77 26.29 23.35 24.09 22.97 23.41 13.77"/><polygon class="cls-3" points="28.81 15.8 27.18 25.67 25.37 24.35 28.81 15.8"/><polygon class="cls-3" points="12.37 29.13 21.93 26.21 21.56 28.41 12.37 29.13"/><polygon class="cls-3" points="10.35 21.91 20.27 23.15 19.03 25.01 10.35 21.91"/><polygon class="cls-3" points="16.94 37.59 21.19 28.54 22.57 30.29 16.94 37.59"/><polygon class="cls-3" points="37.73 23.75 28.19 26.76 28.55 24.55 37.73 23.75"/><polygon class="cls-3" points="32.45 18.51 27.64 27.28 26.37 25.44 32.45 18.51"/><polygon class="cls-3" points="34.86 34.08 26.34 28.85 28.24 27.67 34.86 34.08"/><polygon class="cls-3" points="30.97 39.04 23.99 31.88 26.12 31.2 30.97 39.04"/><polygon class="cls-3" points="23.04 41.25 23.26 31.26 25.24 32.3 23.04 41.25"/><polygon class="cls-4" points="25.05 19.96 18.05 24.7 23.05 34.96 25.05 34.96 27.05 34.96 32.05 24.7 25.05 19.96"/><polygon class="cls-5" points="28.6 82.19 46.1 99.35 52.19 92.85 57.36 92.77 84.02 82.77 94.94 80.6 98.69 77.02 98.69 74.35 95.77 73.85 88.94 75.85 87.35 75.85 96.6 73.06 98.69 69.19 97.44 67.37 94.52 66.27 89.6 68.52 94.94 65.27 95.6 61.52 92.94 60.1 87.52 61.19 82.1 65.1 80.1 65.6 86.27 60.69 83.77 59.27 77.44 59.27 72.27 62.52 63.39 63.77 59.35 59.94 58.85 57.37 61.35 57.37 63.64 52.77 63.02 47.52 59.94 45.44 55.44 49.52 47.35 54.44 38.94 66.1 38.19 75.44 28.6 82.19"/><polygon class="cls-3" points="89.1 76.27 79.77 77.6 86.6 75.44 95.27 72.77 97.77 69.27 96.94 68.06 94.6 67.1 90.1 69.1 79.27 72.1 88.27 68.06 93.94 64.77 94.6 62 92.6 60.94 88.1 62 82.94 65.44 75.77 68.06 81.94 63.62 85.1 60.94 83.27 60 78.27 60 72.94 63.62 63.27 64.77 58.44 60 57.36 57.27 60.78 56.5 62.45 52.77 62.36 48.37 60.1 46.48 56.27 50.27 48.77 55.1 45.66 60 40.33 66.27 39.45 76.27 30.08 81.94 45.66 97.44 51.6 91.97 57.36 91.72 69.77 87.1 83.94 81.94 93.94 79.78 97.77 76.6 97.77 74.77 95.27 74.6 89.1 76.27"/><polygon points="62.64 66.81 62.02 70.19 54.77 73.56 53.27 77.56 55.64 74.44 63.39 72.19 62.64 66.81"/><polygon points="48.64 57.37 46.21 68.25 42.33 77.06 33.02 83.44 31.83 82.06 40.21 76.87 40.83 66.5 48.64 57.37"/><polygon points="69.64 67.37 72.14 68.81 72.64 71.69 76.14 75.06 76.58 78.75 75.52 75.62 72.39 72.19 71.52 69.12 69.64 67.37"/></g></g></svg>