<svg xmlns="http://www.w3.org/2000/svg" viewBox="0 0 124.72 189.38"><defs><style>.cls-1{fill:#51666d;}.cls-2,.cls-3{fill:#fff;}.cls-2{stroke:#000;stroke-miterlimit:10;stroke-width:1.86px;}.cls-4{fill:#5fffef;}</style></defs><title>Element 13</title><g id="Ebene_2" data-name="Ebene 2"><g id="Ebene_1-2" data-name="Ebene 1"><path d="M124.72,178.58V11.34A11.37,11.37,0,0,0,113.39,0h-102A11.37,11.37,0,0,0,0,11.34V178.58a11.38,11.38,0,0,0,7.89,10.8H116.83A11.38,11.38,0,0,0,124.72,178.58Z"/><path class="cls-1" d="M120.05,172.29V17.59A10.52,10.52,0,0,0,109.56,7.1H15.16A10.52,10.52,0,0,0,4.67,17.59V172.29a10.53,10.53,0,0,0,7.3,10H112.75A10.53,10.53,0,0,0,120.05,172.29Z"/><rect class="cls-2" x="93.97" y="110.88" width="15.81" height="15.81" transform="translate(113.83 -37.25) rotate(45)"/><rect x="100.21" y="113.19" width="3.33" height="10.56"/><rect x="100.21" y="113.19" width="3.33" height="10.56" transform="translate(-16.6 220.35) rotate(-90)"/><polygon class="cls-2" points="12.26 128.36 24.55 109.85 36.85 128.36 12.26 128.36"/><polygon points="25.8 121.84 25.8 115.01 24.55 112.11 23.31 115.01 23.31 121.84 21.45 121.84 21.45 122.67 23.93 123.29 23.93 124.94 23.31 125.67 23.93 126.39 24.55 127.01 25.17 126.39 25.8 125.67 25.17 124.94 25.17 123.29 27.66 122.67 27.66 121.84 25.8 121.84"/><rect class="cls-2" x="54.76" y="110.4" width="17.39" height="17.39" transform="translate(182.55 55.64) rotate(90)"/><polygon points="58.17 114.44 68.88 114.44 68.11 120.55 63.53 124.37 58.94 120.55 58.17 114.44"/><polygon points="81.69 100.24 81.37 100.12 78.67 99.14 71.12 99.33 65.83 98.96 61.3 99.33 54.5 99.33 49.97 99.14 43.93 99.87 37.89 100.05 36.38 100.96 31.85 101.69 25.81 102.24 25.05 103.33 29.59 104.42 28.07 105.51 30.34 106.78 36.38 107.51 41.67 108.42 47.71 108.42 61.3 108.96 68.85 108.05 78.67 108.05 83.95 107.33 93.01 107.51 96.03 106.05 99.06 104.42 96.03 103.69 96.03 102.42 93.01 100.96 93.01 100.05 85.46 99.87 81.69 100.24"/><polygon class="cls-3" points="90.06 53.96 89.63 53.33 86.06 47.96 76.06 48.96 69.06 46.96 63.05 48.96 54.05 48.96 48.05 47.96 40.05 51.96 32.05 52.96 30.05 57.96 24.05 61.96 16.05 64.96 15.05 70.96 21.05 76.96 19.05 82.96 22.05 89.96 30.05 93.96 37.05 98.96 45.05 98.96 63.05 101.96 73.06 96.96 86.06 96.96 93.06 92.96 105.06 93.96 109.06 85.96 113.06 76.96 109.06 72.96 109.06 65.96 105.06 57.96 105.06 52.96 95.06 51.96 90.06 53.96"/><polygon class="cls-4" points="51.05 53.96 41.05 56.96 46.05 57.96 40.05 61.96 42.05 64.96 41.05 65.96 38.05 65.96 37.05 67.96 40.05 68.96 40.05 70.96 41.05 72.96 36.05 74.96 36.05 76.96 39.05 78.96 38.05 80.96 39.05 81.96 39.05 83.96 49.05 84.96 51.05 81.96 54.05 81.96 59.05 84.96 62.05 81.96 64.06 78.96 69.06 78.96 72.06 79.96 73.06 82.96 76.06 82.96 80.06 83.96 86.06 83.96 88.06 80.96 94.06 79.96 96.06 74.96 92.06 71.96 93.06 68.96 88.06 66.96 83.06 66.96 81.06 61.96 77.06 60.96 72.06 62.96 67.06 61.96 66.06 57.96 69.06 55.96 64.06 54.96 60.05 56.96 55.05 55.96 51.05 53.96"/><path class="cls-3" d="M49.06,61l-4-1-1,4-2,1,1,5,2,2v3l-1,1-1,3,3,1,2,2h3l2-2,2,1h3l2-3,4-1,6-2,2,2h4s1,2,2,2h6l2-4,3-4V68l-5-1-4,1-4-3h-5l-5-2-3-3-5,1-4,1-2-1Z"/><path class="cls-4" d="M54.23,65.32l-2.38-.46-.6,1.84-1.19.46.6,2.3,1.19.92v1.38l-.6.46-.6,1.38,1.79.46,1.19.92h1.79L56.61,74l1.19.46h1.79l1.19-1.38,2.38-.46,3.57-.92,1.19.92h2.38s.6.92,1.19.92h3.57l1.19-1.84,1.79-1.84V68.53l-3-.46-2.38.46-2.38-1.38h-3l-3-.92-1.79-1.38-3,.46-2.38.46L56,65.32Z"/><polygon class="cls-3" points="73.06 37.96 71.06 39.96 73.06 40.96 74.06 38.96 73.06 37.96"/><polygon class="cls-3" points="47.29 36.52 48.55 39.05 50.14 37.46 48.55 35.88 47.29 36.52"/><polygon class="cls-3" points="111.76 50.26 100.04 44.64 84.35 42.66 99.17 46.45 111.76 50.26"/><polygon class="cls-3" points="102.06 44.96 89.06 42.96 77.06 43.96 89.06 43.96 104.06 46.96 110.06 48.96 102.06 44.96"/><polygon class="cls-3" points="95.06 38.96 108.06 42.96 115.06 48.96 107.06 43.96 95.06 38.96"/><polygon class="cls-3" points="115.06 69.96 118.06 78.96 113.06 94.96 96.06 104.96 114.06 97.96 120.05 84.71 120.05 75.96 116.06 67.96 111.06 61.96 115.06 69.96"/><polygon class="cls-3" points="24.05 54.96 12.05 62.96 10.05 74.96 10.05 61.96 24.05 54.96"/><polygon class="cls-3" points="7.05 76.96 9.05 88.96 25.05 99.96 43.05 102.96 23.05 102.96 7.05 90.96 7.05 76.96"/><polygon class="cls-3" points="95.06 42.96 93.06 43.96 94.06 44.96 96.06 44.96 95.06 42.96"/><polygon class="cls-3" points="16.05 47.96 16.05 48.96 19.05 49.96 19.05 47.96 17.05 46.96 16.05 47.96"/><polygon class="cls-3" points="28.12 44.91 27.48 45.08 27.35 47.19 28.63 46.84 28.94 45.38 28.12 44.91"/><polygon class="cls-3" points="60.81 42.94 60.03 43.88 60.97 44.96 61.9 44.34 62.05 43.25 60.81 42.94"/><polygon class="cls-3" points="59.57 39.21 58.79 39.67 58.79 40.3 59.72 40.45 60.03 39.67 59.57 39.21"/><polygon class="cls-3" points="55.52 43.25 55.05 44.19 55.37 44.65 56.3 44.5 56.45 43.56 55.52 43.25"/><polygon class="cls-3" points="55.68 38.74 55.21 39.21 55.21 39.36 55.99 39.67 56.14 39.21 55.68 38.74"/><polygon class="cls-3" points="60.5 36.72 61.28 36.56 61.74 37.19 61.12 37.65 60.5 37.34 60.5 36.72"/><polygon class="cls-3" points="72.69 32.89 72.73 34.1 74.15 34.29 74.43 33.21 73.82 32.29 72.69 32.89"/><polygon class="cls-3" points="69.27 30.93 69 31.8 69.42 32.26 70.22 31.75 69.93 30.97 69.27 30.93"/><polygon class="cls-3" points="68.95 36.64 69.22 37.65 69.77 37.79 70.36 37.05 69.85 36.25 68.95 36.64"/><polygon class="cls-3" points="66.06 33.17 66.02 33.83 66.13 33.95 66.92 33.66 66.72 33.21 66.06 33.17"/><polygon class="cls-3" points="68.31 28.45 68.79 27.82 69.55 27.97 69.4 28.73 68.73 28.91 68.31 28.45"/><polygon class="cls-3" points="58.43 20.02 58.24 18.82 56.81 18.8 56.66 19.91 57.38 20.75 58.43 20.02"/><polygon class="cls-3" points="62.06 21.55 62.22 20.66 61.75 20.25 61.02 20.84 61.4 21.59 62.06 21.55"/><polygon class="cls-3" points="61.69 15.84 61.3 14.88 60.74 14.8 60.24 15.6 60.84 16.34 61.69 15.84"/><polygon class="cls-3" points="64.97 18.94 64.93 18.28 64.81 18.18 64.07 18.55 64.31 18.98 64.97 18.94"/><polygon class="cls-3" points="63.31 23.89 62.91 24.58 62.14 24.52 62.2 23.75 62.84 23.48 63.31 23.89"/><polygon class="cls-3" points="39.12 100.84 39.73 102.17 41.4 101.72 41.21 100.38 40.1 99.65 39.12 100.84"/><polygon class="cls-3" points="34.41 100.27 34.51 101.36 35.19 101.68 35.84 100.75 35.16 100 34.41 100.27"/><polygon class="cls-3" points="36.73 106.77 37.5 107.76 38.17 107.66 38.48 106.57 37.55 105.91 36.73 106.77"/><polygon class="cls-3" points="31.89 104.27 32.16 105.02 32.33 105.1 33.07 104.41 32.64 104 31.89 104.27"/><polygon class="cls-3" points="32.17 97.97 32.41 97.04 33.33 96.85 33.51 97.77 32.85 98.29 32.17 97.97"/><polygon class="cls-3" points="34.29 82.7 35.64 83.28 36.58 81.83 35.54 80.96 34.23 81.15 34.29 82.7"/><polygon class="cls-3" points="30.39 85.41 31.2 86.15 31.92 85.94 31.78 84.81 30.77 84.71 30.39 85.41"/><polygon class="cls-3" points="36.45 88.72 37.69 88.94 38.13 88.42 37.63 87.39 36.49 87.53 36.45 88.72"/><polygon class="cls-3" points="31.18 90.07 31.88 90.45 32.06 90.4 32.15 89.39 31.56 89.37 31.18 90.07"/><polygon class="cls-3" points="27.2 85.18 26.75 84.33 27.31 83.58 28.06 84.14 27.91 84.97 27.2 85.18"/><polygon class="cls-3" points="12.9 91.6 11.49 91.18 10.73 92.74 11.87 93.47 13.15 93.13 12.9 91.6"/><polygon class="cls-3" points="16.44 88.44 15.55 87.8 14.86 88.1 15.13 89.2 16.14 89.18 16.44 88.44"/><polygon class="cls-3" points="10.03 85.89 8.77 85.82 8.4 86.39 9.02 87.34 10.13 87.07 10.03 85.89"/><polygon class="cls-3" points="15.1 83.91 14.36 83.61 14.19 83.69 14.21 84.7 14.8 84.65 15.1 83.91"/><polygon class="cls-3" points="19.64 88.28 20.19 89.07 19.72 89.88 18.91 89.42 18.95 88.58 19.64 88.28"/><polygon class="cls-3" points="97.12 27.84 97.73 29.17 99.4 28.72 99.21 27.38 98.1 26.65 97.12 27.84"/><polygon class="cls-3" points="92.41 27.27 92.51 28.36 93.19 28.68 93.84 27.75 93.16 27 92.41 27.27"/><polygon class="cls-3" points="94.73 33.77 95.5 34.76 96.17 34.66 96.48 33.57 95.55 32.91 94.73 33.77"/><polygon class="cls-3" points="89.89 31.27 90.16 32.02 90.33 32.1 91.07 31.41 90.64 31 89.89 31.27"/><polygon class="cls-3" points="90.17 24.97 90.41 24.04 91.33 23.85 91.51 24.77 90.85 25.29 90.17 24.97"/><polygon class="cls-3" points="92.29 9.7 93.64 10.28 94.58 8.83 93.54 7.96 92.23 8.15 92.29 9.7"/><polygon class="cls-3" points="88.39 12.41 89.2 13.15 89.92 12.94 89.78 11.81 88.78 11.71 88.39 12.41"/><polygon class="cls-3" points="94.45 15.72 95.69 15.94 96.13 15.42 95.63 14.39 94.49 14.53 94.45 15.72"/><polygon class="cls-3" points="89.18 17.07 89.88 17.45 90.06 17.4 90.15 16.39 89.56 16.37 89.18 17.07"/><polygon class="cls-3" points="85.19 12.18 84.75 11.33 85.31 10.58 86.06 11.14 85.92 11.97 85.19 12.18"/><polygon class="cls-3" points="70.9 18.6 69.49 18.18 68.73 19.74 69.87 20.48 71.15 20.13 70.9 18.6"/><polygon class="cls-3" points="74.44 15.44 73.55 14.8 72.86 15.1 73.13 16.2 74.14 16.18 74.44 15.44"/><polygon class="cls-3" points="68.03 12.89 66.77 12.82 66.4 13.38 67.02 14.35 68.13 14.07 68.03 12.89"/><polygon class="cls-3" points="73.1 10.91 72.36 10.61 72.19 10.69 72.21 11.7 72.8 11.65 73.1 10.91"/><polygon class="cls-3" points="77.64 15.28 78.19 16.07 77.72 16.88 76.91 16.42 76.95 15.58 77.64 15.28"/><polygon class="cls-3" points="34.29 42.56 33.11 43.43 33.88 44.98 35.15 44.52 35.66 43.3 34.29 42.56"/><polygon class="cls-3" points="33.94 37.83 32.89 38.15 32.71 38.87 33.76 39.33 34.35 38.51 33.94 37.83"/><polygon class="cls-3" points="28.02 41.36 27.19 42.32 27.42 42.95 28.56 43.05 29.02 42 28.02 41.36"/><polygon class="cls-3" points="29.53 36.13 28.85 36.54 28.8 36.72 29.62 37.32 29.94 36.82 29.53 36.13"/><polygon class="cls-3" points="35.77 35.2 36.73 35.24 37.09 36.11 36.22 36.47 35.59 35.92 35.77 35.2"/><polygon class="cls-3" points="51.16 34.32 50.85 35.75 52.45 36.4 53.11 35.21 52.66 33.96 51.16 34.32"/><polygon class="cls-3" points="47.75 31.02 47.17 31.95 47.52 32.62 48.61 32.26 48.51 31.26 47.75 31.02"/><polygon class="cls-3" points="45.68 37.6 45.7 38.86 46.29 39.19 47.2 38.5 46.85 37.41 45.68 37.6"/><polygon class="cls-3" points="43.33 32.69 43.09 33.45 43.17 33.62 44.18 33.52 44.09 32.93 43.33 32.69"/><polygon class="cls-3" points="47.36 27.84 48.1 27.24 48.95 27.64 48.54 28.49 47.7 28.5 47.36 27.84"/><polygon class="cls-3" points="38.29 15.05 38.43 13.59 36.76 13.14 36.25 14.4 36.84 15.59 38.29 15.05"/><polygon class="cls-3" points="42.08 17.91 42.53 16.92 42.11 16.3 41.07 16.78 41.3 17.77 42.08 17.91"/><polygon class="cls-3" points="43.34 11.13 43.16 9.88 42.54 9.63 41.72 10.42 42.2 11.46 43.34 11.13"/><polygon class="cls-3" points="46.27 15.72 46.41 14.94 46.3 14.78 45.32 15.01 45.48 15.57 46.27 15.72"/><polygon class="cls-3" points="42.85 21.03 42.18 21.71 41.29 21.41 41.59 20.52 42.42 20.41 42.85 21.03"/><polygon class="cls-3" points="55.84 25.7 55.23 24.64 53.88 25.15 54.15 26.24 55.12 26.76 55.84 25.7"/><polygon class="cls-3" points="59.77 25.81 59.6 24.92 59.01 24.71 58.55 25.53 59.17 26.09 59.77 25.81"/><polygon class="cls-3" points="57.36 20.62 56.65 19.86 56.1 20 55.93 20.93 56.75 21.39 57.36 20.62"/><polygon class="cls-3" points="61.54 22.32 61.27 21.72 61.12 21.67 60.56 22.29 60.95 22.6 61.54 22.32"/><polygon class="cls-3" points="61.78 27.55 61.66 28.33 60.92 28.55 60.69 27.81 61.2 27.33 61.78 27.55"/><polygon class="cls-3" points="61.19 40.31 60.03 39.93 59.37 41.2 60.29 41.84 61.36 41.58 61.19 40.31"/><polygon class="cls-3" points="64.2 37.77 63.48 37.22 62.9 37.45 63.1 38.38 63.94 38.38 64.2 37.77"/><polygon class="cls-3" points="58.95 35.51 57.91 35.42 57.59 35.88 58.08 36.69 59.01 36.49 58.95 35.51"/><polygon class="cls-3" points="63.2 33.99 62.6 33.73 62.45 33.78 62.45 34.62 62.94 34.59 63.2 33.99"/><polygon class="cls-3" points="66.86 37.73 67.29 38.39 66.88 39.05 66.22 38.65 66.28 37.95 66.86 37.73"/><polygon class="cls-3" points="78.18 31.35 79.37 31.58 79.88 30.24 78.89 29.72 77.86 30.11 78.18 31.35"/><polygon class="cls-3" points="75.49 34.23 76.27 34.69 76.82 34.39 76.51 33.49 75.68 33.59 75.49 34.23"/><polygon class="cls-3" points="80.98 35.84 82.02 35.81 82.28 35.31 81.7 34.57 80.81 34.88 80.98 35.84"/><polygon class="cls-3" points="76.94 37.86 77.57 38.05 77.71 37.98 77.61 37.14 77.13 37.23 76.94 37.86"/><polygon class="cls-3" points="72.86 34.59 72.35 33.99 72.67 33.28 73.38 33.6 73.41 34.3 72.86 34.59"/><polygon points="25.03 8.63 7 21.36 13.89 41.96 36.17 41.96 43.05 21.36 25.03 8.63"/><polygon class="cls-3" points="25.77 32.22 25.77 30.05 27.07 30.48 27.07 30.05 25.77 29.18 26.42 28.32 26.93 28.66 26.93 28.98 27.91 29.64 28.56 29.64 28.56 28.98 27.91 28 27.58 28 27.05 27.48 27.07 27.45 28.37 27.02 29.24 28.75 29.67 28.75 29.24 27.02 30.97 26.59 31.83 27.45 34 27.02 34.43 26.15 34 25.29 31.83 24.86 30.97 25.72 29.24 25.29 29.67 23.56 29.24 23.56 28.37 25.29 27.2 24.9 27.02 24.79 26.95 24.69 27.42 23.92 28.07 23.92 28.72 22.94 28.56 22.45 28.07 22.28 27.09 22.94 27.09 23.59 26.42 23.99 25.77 23.12 27.07 22.26 27.07 21.82 25.77 22.26 25.77 20.09 26.21 19.66 25.77 17.5 24.91 16.63 24.04 17.5 23.61 19.66 24.04 20.09 23.61 22.26 22.74 21.82 22.74 22.26 23.61 23.12 23.31 23.73 23.01 23.43 23.01 23.1 22.03 22.45 21.37 22.45 21.37 23.1 22.03 24.08 22.35 24.08 22.8 24.75 22.74 24.86 21.01 25.29 20.14 24.42 19.71 24.42 20.14 25.29 18.41 25.72 17.55 24.86 15.38 25.29 14.95 26.15 15.38 27.02 17.55 27.45 18.41 26.59 20.14 27.02 19.71 27.89 20.14 27.89 21.01 27.02 22.45 27.38 22.76 27.48 22.8 27.58 22.35 28.33 21.7 28.33 21.05 29.31 21.21 29.8 21.7 29.96 22.68 29.31 22.68 28.66 23.19 28.35 23.61 29.18 22.74 30.05 22.74 30.48 23.61 30.05 24.04 32.22 23.61 32.65 24.04 34.81 24.91 35.68 25.77 34.81 26.21 32.65 25.77 32.22"/></g></g></svg>