<svg xmlns="http://www.w3.org/2000/svg" viewBox="0 0 124.72 189.38"><defs><style>.cls-1{fill:#51666d;}.cls-2,.cls-3{fill:#fff;}.cls-2{stroke:#000;stroke-miterlimit:10;stroke-width:1.86px;}.cls-4{fill:#1d1d1b;}.cls-5{fill:#216d5e;}</style></defs><title>Element 42</title><g id="Ebene_2" data-name="Ebene 2"><g id="Ebene_1-2" data-name="Ebene 1"><path d="M124.72,178.58V11.34A11.37,11.37,0,0,0,113.39,0h-102A11.37,11.37,0,0,0,0,11.34V178.58a11.38,11.38,0,0,0,7.89,10.8H116.83A11.38,11.38,0,0,0,124.72,178.58Z"/><path class="cls-1" d="M120.05,172.62V17.91A10.52,10.52,0,0,0,109.56,7.42H15.16A10.52,10.52,0,0,0,4.67,17.91V172.62a10.53,10.53,0,0,0,7.3,10H112.75A10.53,10.53,0,0,0,120.05,172.62Z"/><rect class="cls-2" x="93.97" y="110.88" width="15.81" height="15.81" transform="translate(113.83 -37.25) rotate(45)"/><rect x="100.21" y="113.19" width="3.33" height="10.56"/><rect x="100.21" y="113.19" width="3.33" height="10.56" transform="translate(-16.6 220.35) rotate(-90)"/><polygon class="cls-2" points="12.26 128.36 24.55 109.85 36.85 128.36 12.26 128.36"/><polygon points="25.8 121.84 25.8 115.01 24.55 112.11 23.31 115.01 23.31 121.84 21.45 121.84 21.45 122.67 23.93 123.29 23.93 124.94 23.31 125.67 23.93 126.39 24.55 127.01 25.17 126.39 25.8 125.67 25.17 124.94 25.17 123.29 27.66 122.67 27.66 121.84 25.8 121.84"/><polygon points="25.05 9.58 7.03 22.31 13.91 42.91 36.2 42.91 43.08 22.31 25.05 9.58"/><polygon class="cls-3" points="35.08 28.91 34.08 22.91 32.08 20.91 31.08 18.91 31.08 21.91 30.08 24.91 28.08 24.91 29.08 23.91 28.08 22.91 26.08 20.91 27.08 19.91 28.08 19.91 29.08 21.91 29.08 19.91 27.08 18.91 25.08 19.91 23.08 18.91 21.08 19.91 21.08 21.91 22.08 19.91 23.08 19.91 24.08 20.91 22.08 22.91 21.08 23.91 22.08 24.91 20.08 24.91 19.08 21.91 19.08 18.91 18.08 20.91 16.08 22.91 15.08 28.91 17.08 33.91 17.08 30.91 20.08 29.91 20.08 30.91 23.08 28.91 23.08 30.91 22.08 33.91 24.08 31.91 25.08 30.91 26.08 31.91 28.08 33.91 27.08 30.91 27.08 28.91 30.08 30.91 30.08 29.91 33.08 30.91 33.08 33.91 35.08 28.91"/><rect class="cls-2" x="54.76" y="110.4" width="17.39" height="17.39" transform="translate(182.55 55.64) rotate(90)"/><polygon points="58.17 114.44 68.88 114.44 68.11 120.55 63.53 124.37 58.94 120.55 58.17 114.44"/><polygon class="cls-4" points="29.57 75.75 24.55 75.75 21.45 77.27 21.45 79.52 17.32 80.64 14.2 84.14 15.08 87.27 15.7 92.89 19.7 94.69 30.32 94.19 36.2 97.77 38.2 101.52 35.08 103.27 34.57 107.77 32.82 110.4 35.08 113.19 36.85 111.14 36.85 108.77 38.2 106.27 38.2 104.27 42.2 103.39 47.57 105.02 58.17 104.27 72.15 106.14 83.7 102.14 90.82 101.64 101.88 97.52 101.88 90.52 107.82 86.52 111.95 80.64 107.7 76.27 101.88 75.75 99.32 73.02 91.82 71.52 29.57 75.75"/><polygon class="cls-3" points="64.13 36.3 27.83 77.74 64.13 95.02 100.43 77.74 64.13 36.3"/><polygon class="cls-4" points="62.93 39.59 33.95 73.11 63.41 83.89 62.93 39.59"/><polygon class="cls-4" points="64.08 39.06 64.57 83.36 93.79 71.94 64.08 39.06"/><rect class="cls-5" x="71.32" y="58.97" width="7.68" height="6.05" transform="translate(121 147.96) rotate(-157.58)"/><rect class="cls-4" x="73.48" y="60.18" width="4.61" height="3.63" transform="translate(122.2 148.2) rotate(-157.58)"/><rect class="cls-5" x="74.87" y="61.21" width="1.86" height="1.47" transform="translate(122.26 148.1) rotate(-157.58)"/><rect class="cls-5" x="48.32" y="58.64" width="7.68" height="6.05" transform="translate(-19.57 24.55) rotate(-22.42)"/><rect class="cls-4" x="49.23" y="59.84" width="4.61" height="3.63" transform="translate(-19.62 24.31) rotate(-22.42)"/><rect class="cls-5" x="50.58" y="60.87" width="1.86" height="1.47" transform="translate(-19.6 24.3) rotate(-22.42)"/><path class="cls-3" d="M18.83,80.87l-1.39,2.46L18,84.79l-.24,1.86,1,2.17.61,2.46,2.94,1.09,3.86.17-3.46.3h-.21l-3.33-.29-.69-1.28-.23-1.65-1.26-2.74.43-1.71L16.82,83Z"/><polygon class="cls-3" points="35.93 95.06 39.02 96.57 40.37 99.06 40.42 100.86 37.88 102.39 39.77 100.68 39.81 99.21 38.52 96.96 35.93 95.06"/><polygon class="cls-4" points="88.94 46.61 88.48 48.51 87.86 50.29 88.94 52.52 90.93 52.13 91.7 50.29 91.08 48.1 90.09 45.39 89.78 43.47 88.94 46.61"/><polygon class="cls-4" points="99.58 61.1 99.13 63.95 98.51 66.61 99.58 69.93 101.58 69.36 102.34 66.61 101.73 63.33 100.73 59.27 100.43 56.41 99.58 61.1"/><polygon class="cls-4" points="51.19 29.68 50.51 32.5 49.6 35.14 51.19 38.44 54.15 37.87 55.29 35.14 54.38 31.89 52.9 27.86 52.44 25.02 51.19 29.68"/><polygon class="cls-4" points="24.52 61.56 23.99 63.75 23.28 65.81 24.52 68.37 26.82 67.93 27.7 65.81 26.99 63.28 25.84 60.15 25.49 57.95 24.52 61.56"/></g></g></svg>