<svg xmlns="http://www.w3.org/2000/svg" viewBox="0 0 124.72 189.38"><defs><style>.cls-1{fill:#51666d;}.cls-2,.cls-3{fill:#fff;}.cls-2,.cls-4{stroke:#000;stroke-miterlimit:10;}.cls-2{stroke-width:1.86px;}.cls-4{fill:#216d5e;stroke-width:3px;}</style></defs><title>Element 39</title><g id="Ebene_2" data-name="Ebene 2"><g id="Ebene_1-2" data-name="Ebene 1"><path d="M124.72,178.58V11.34A11.37,11.37,0,0,0,113.39,0h-102A11.37,11.37,0,0,0,0,11.34V178.58a11.38,11.38,0,0,0,7.89,10.8H116.83A11.38,11.38,0,0,0,124.72,178.58Z"/><path class="cls-1" d="M120.05,172.29V17.59A10.52,10.52,0,0,0,109.56,7.1H15.16A10.52,10.52,0,0,0,4.67,17.59V172.29a10.53,10.53,0,0,0,7.3,10H112.75A10.53,10.53,0,0,0,120.05,172.29Z"/><rect class="cls-2" x="93.97" y="110.88" width="15.81" height="15.81" transform="translate(113.83 -37.25) rotate(45)"/><rect x="100.21" y="113.19" width="3.33" height="10.56"/><rect x="100.21" y="113.19" width="3.33" height="10.56" transform="translate(-16.6 220.35) rotate(-90)"/><polygon class="cls-2" points="12.26 128.36 24.55 109.85 36.85 128.36 12.26 128.36"/><polygon points="25.8 121.84 25.8 115.01 24.55 112.11 23.31 115.01 23.31 121.84 21.45 121.84 21.45 122.67 23.93 123.29 23.93 124.94 23.31 125.67 23.93 126.39 24.55 127.01 25.17 126.39 25.8 125.67 25.17 124.94 25.17 123.29 27.66 122.67 27.66 121.84 25.8 121.84"/><polygon class="cls-3" points="44.08 72.9 27.12 84.03 43.49 78.46 45.87 80.15 44.74 86.65 32.49 101.28 47.62 90.65 50.99 91.4 52.49 92.9 48.62 112.11 57.24 96.77 62.49 96.15 66.24 97.9 74.12 115.28 71.3 98.03 73.52 95.07 90.12 104.89 77.94 92.4 79.2 88.64 90.62 88.64 104.54 90.65 91.37 84.4 82.62 79.03 82.74 72.9 86.74 71.03 108.87 69.53 86.62 66.4 82.24 63.72 82.49 59.06 87.37 55.28 103.49 50.65 84.87 52.15 81.62 48.28 80.49 44.4 85.87 39.4 95.99 30.78 82.87 37.78 77.49 38.87 75.73 32.87 77.94 26.25 82.12 14.65 75.73 25.4 69.88 30.53 65.87 27.03 63.36 16.9 61.87 8.28 61.37 17.65 60.74 29.78 55.12 35.65 48.49 35.53 32.62 23.53 45.24 38.87 46.87 45.15 42.87 50.15 35.49 50.53 19.24 48.15 34.62 53.9 42.74 57.65 42.62 61.78 36.62 63.72 19.24 67.53 37.85 67.03 43.49 70.15 44.08 72.9"/><polygon class="cls-4" points="56.58 89.87 50.45 76.47 48.85 54.44 54.44 39 64.47 32.87 71.43 36.85 78.2 51.1 77.1 73.8 73.01 88.64 65.63 94.57 56.58 89.87"/><polygon points="59.27 43.41 55.66 59.73 57.46 75.8 64.6 85.26 69.07 78.92 71.52 59.73 67.16 47.01 62.36 57.69 62.36 70.46 65.84 59.73 67.16 63.72 63.59 75.8 59.27 67.99 59.27 55.67 66.12 41.92 76.94 48.44 71.43 36.85 64.47 32.87 59.27 43.41"/><polygon points="54.47 85.26 52.14 104.89 53.3 104.89 58.4 90.81 56.58 89.87 54.47 85.26"/><polygon points="70.3 90.81 73.01 88.64 74.73 104.89 73.33 104.89 70.3 90.81"/><polygon points="25.05 9.58 7.03 22.31 13.91 42.91 36.2 42.91 43.08 22.31 25.05 9.58"/><polygon class="cls-3" points="35.08 28.91 34.08 22.91 32.08 20.91 31.08 18.91 31.08 21.91 30.08 24.91 28.08 24.91 29.08 23.91 28.08 22.91 26.08 20.91 27.08 19.91 28.08 19.91 29.08 21.91 29.08 19.91 27.08 18.91 25.08 19.91 23.08 18.91 21.08 19.91 21.08 21.91 22.08 19.91 23.08 19.91 24.08 20.91 22.08 22.91 21.08 23.91 22.08 24.91 20.08 24.91 19.08 21.91 19.08 18.91 18.08 20.91 16.08 22.91 15.08 28.91 17.08 33.91 17.08 30.91 20.08 29.91 20.08 30.91 23.08 28.91 23.08 30.91 22.08 33.91 24.08 31.91 25.08 30.91 26.08 31.91 28.08 33.91 27.08 30.91 27.08 28.91 30.08 30.91 30.08 29.91 33.08 30.91 33.08 33.91 35.08 28.91"/><rect class="cls-2" x="54.76" y="110.4" width="17.39" height="17.39" transform="translate(182.55 55.64) rotate(90)"/><polygon points="58.17 114.44 68.88 114.44 68.11 120.55 63.53 124.37 58.94 120.55 58.17 114.44"/></g></g></svg>