<svg xmlns="http://www.w3.org/2000/svg" viewBox="0 0 124.72 189.38"><defs><style>.cls-1{fill:#51666d;}.cls-2,.cls-3{fill:#fff;}.cls-2{stroke:#000;stroke-miterlimit:10;stroke-width:1.86px;}.cls-4{fill:#ffdb45;}</style></defs><title>Element 17</title><g id="Ebene_2" data-name="Ebene 2"><g id="Ebene_1-2" data-name="Ebene 1"><path d="M124.72,178.58V11.34A11.37,11.37,0,0,0,113.39,0h-102A11.37,11.37,0,0,0,0,11.34V178.58a11.38,11.38,0,0,0,7.89,10.8H116.83A11.38,11.38,0,0,0,124.72,178.58Z"/><path class="cls-1" d="M120.05,172.29V17.59A10.52,10.52,0,0,0,109.56,7.1H15.16A10.52,10.52,0,0,0,4.67,17.59V172.29a10.53,10.53,0,0,0,7.3,10H112.75A10.53,10.53,0,0,0,120.05,172.29Z"/><rect class="cls-2" x="93.97" y="110.88" width="15.81" height="15.81" transform="translate(113.83 -37.25) rotate(45)"/><rect x="100.21" y="113.19" width="3.33" height="10.56"/><rect x="100.21" y="113.19" width="3.33" height="10.56" transform="translate(-16.6 220.35) rotate(-90)"/><polygon class="cls-2" points="12.26 128.36 24.55 109.85 36.85 128.36 12.26 128.36"/><polygon points="25.8 121.84 25.8 115.01 24.55 112.11 23.31 115.01 23.31 121.84 21.45 121.84 21.45 122.67 23.93 123.29 23.93 124.94 23.31 125.67 23.93 126.39 24.55 127.01 25.17 126.39 25.8 125.67 25.17 124.94 25.17 123.29 27.66 122.67 27.66 121.84 25.8 121.84"/><rect class="cls-2" x="54.76" y="110.4" width="17.39" height="17.39" transform="translate(182.55 55.64) rotate(90)"/><polygon points="58.17 114.44 68.88 114.44 68.11 120.55 63.53 124.37 58.94 120.55 58.17 114.44"/><polygon points="25.03 8.63 7 21.36 13.89 41.96 36.17 41.96 43.05 21.36 25.03 8.63"/><polygon class="cls-3" points="26.45 20.48 21.14 25.8 25.7 30.36 23.41 37.96 27.21 31.12 24.18 26.56 29.5 21.24 30.25 24.28 32.53 26.56 31.02 31.12 34.05 25.8 31.77 22.76 31.02 18.96 24.93 15.16 20.38 18.96 19.61 22.76 15.05 24.28 15.81 28.08 16.57 25.04 21.14 24.28 22.66 19.72 24.93 18.96 26.45 20.48"/><polygon class="cls-4" points="58.83 64.09 52.62 62.22 51.81 66.08 49.44 69.24 45.36 67.87 42.6 70.85 41.54 73.19 38.28 73.13 41.75 73.76 43.77 71.38 46.39 69.75 50.44 70.16 53.2 67.18 53.44 63.53 58.83 64.09"/><polygon class="cls-4" points="34.83 88.09 28.62 86.22 27.81 90.08 25.44 93.24 21.36 91.87 18.6 94.85 17.54 97.19 14.28 97.13 17.75 97.76 19.77 95.38 22.39 93.75 26.44 94.16 29.2 91.18 29.44 87.53 34.83 88.09"/><polygon points="55.73 45.24 55.82 38.76 51.88 39.05 48.19 37.63 48.39 33.33 44.76 31.5 42.21 31.13 41.38 27.97 41.73 31.49 44.57 32.77 46.87 34.84 47.58 38.84 51.2 40.68 54.78 39.91 55.73 45.24"/><polygon points="13.84 81.52 19.7 84.31 21.08 80.61 23.91 77.84 27.73 79.82 30.91 77.29 32.32 75.14 35.53 75.7 32.19 74.55 29.84 76.59 27 77.81 23.06 76.78 19.88 79.31 19.09 82.89 13.84 81.52"/><polygon points="117.83 35.77 113.26 34.08 112.47 36.93 110.55 39.19 107.56 37.97 105.35 40.07 104.44 41.78 102 41.57 104.58 42.21 106.2 40.52 108.24 39.42 111.25 39.93 113.46 37.82 113.81 35.1 117.83 35.77"/><polygon class="cls-4" points="102.96 70.88 102.06 64.45 98.21 65.34 94.35 64.51 93.89 60.22 90.03 58.96 87.45 58.98 86.15 55.99 87.03 59.41 90.03 60.25 92.62 61.95 93.93 65.8 97.79 67.06 101.21 65.75 102.96 70.88"/><polygon class="cls-4" points="87.06 29.96 90.06 45.96 83.06 49.96 78.06 47.96 74.06 51.96 51.05 50.96 43.05 54.96 50.05 58.96 57.05 68.96 71.06 71.96 75.06 78.96 63.05 81.96 54.05 79.96 48.05 85.96 33.05 90.96 29.05 101.96 34.05 93.96 49.05 88.96 55.05 83.96 64.06 83.96 72.06 89.96 73.06 97.96 80.06 101.96 75.06 96.96 74.06 89.96 70.06 83.96 80.06 79.96 76.06 71.96 65.06 67.96 67.06 62.96 78.06 62.96 82.06 65.96 88.06 64.96 83.06 64.96 80.06 60.96 67.06 60.96 62.05 64.96 56.05 58.96 52.05 55.96 55.05 53.96 76.06 54.96 79.06 52.96 88.06 54.96 102.06 53.96 110.06 55.96 102.06 52.96 90.06 52.96 86.06 51.96 94.06 46.96 92.06 28.96 87.06 29.96"/><polygon class="cls-3" points="77.06 38.96 79.06 48.96 75.06 52.96 64.06 52.96 58.05 57.96 50.05 57.96 57.05 56.96 63.05 50.96 75.06 50.96 78.06 47.96 77.06 38.96"/><polygon class="cls-3" points="59.05 59.96 65.06 67.96 63.05 71.96 70.06 78.96 80.06 77.96 84.06 79.96 80.06 76.96 71.06 75.96 66.06 71.96 67.06 66.96 59.05 59.96"/><polygon class="cls-3" points="31.41 91.47 41.14 89.14 44.02 92.56 53.22 88.91 56.27 79.34 59.7 76.46 55.35 78.94 50.86 86.8 45.21 89.81 41.02 86.9 31.41 91.47"/></g></g></svg>