<svg xmlns="http://www.w3.org/2000/svg" viewBox="0 0 124.72 189.38"><defs><style>.cls-1{fill:#51666d;}.cls-2,.cls-3,.cls-5{fill:#fff;}.cls-3,.cls-5{stroke:#000;stroke-miterlimit:10;}.cls-3{stroke-width:2px;}.cls-4{fill:#fe9;}.cls-5{stroke-width:1.86px;}</style></defs><title>Element 38</title><g id="Ebene_2" data-name="Ebene 2"><g id="Ebene_1-2" data-name="Ebene 1"><path d="M124.72,178.58V11.34A11.37,11.37,0,0,0,113.39,0h-102A11.37,11.37,0,0,0,0,11.34V178.58a11.38,11.38,0,0,0,7.89,10.8H116.83A11.38,11.38,0,0,0,124.72,178.58Z"/><path class="cls-1" d="M120.05,172.29V17.59A10.52,10.52,0,0,0,109.56,7.1H15.16A10.52,10.52,0,0,0,4.67,17.59V172.29a10.53,10.53,0,0,0,7.3,10H112.75A10.53,10.53,0,0,0,120.05,172.29Z"/><polygon points="25.03 9.58 7 22.31 13.89 42.91 36.17 42.91 43.05 22.31 25.03 9.58"/><path class="cls-2" d="M22.06,12"/><polygon class="cls-2" points="16.55 18.46 24.55 24.46 22.55 25.46 16.55 18.46"/><polygon class="cls-2" points="23.41 13.77 26.29 23.35 24.09 22.97 23.41 13.77"/><polygon class="cls-2" points="28.81 15.8 27.18 25.67 25.37 24.35 28.81 15.8"/><polygon class="cls-2" points="12.37 29.13 21.93 26.21 21.56 28.41 12.37 29.13"/><polygon class="cls-2" points="10.35 21.91 20.27 23.15 19.03 25.01 10.35 21.91"/><polygon class="cls-2" points="16.94 37.59 21.19 28.54 22.57 30.29 16.94 37.59"/><polygon class="cls-2" points="37.73 23.75 28.19 26.76 28.55 24.55 37.73 23.75"/><polygon class="cls-2" points="32.45 18.51 27.64 27.28 26.37 25.44 32.45 18.51"/><polygon class="cls-2" points="34.86 34.08 26.34 28.85 28.24 27.67 34.86 34.08"/><polygon class="cls-2" points="30.97 39.04 23.99 31.88 26.12 31.2 30.97 39.04"/><polygon class="cls-2" points="23.04 41.25 23.26 31.26 25.24 32.3 23.04 41.25"/><polygon class="cls-3" points="25.05 19.96 18.05 24.7 23.05 34.96 25.05 34.96 27.05 34.96 32.05 24.7 25.05 19.96"/><polygon class="cls-4" points="27.48 105.88 65.5 47.73 76.33 48.73 45.34 109.85 27.48 105.88"/><polygon class="cls-4" points="80.83 46.48 66.91 106.97 87.35 107.56 87.83 46.48 80.83 46.48"/><polygon class="cls-2" points="72.67 51.78 44.25 110.4 69.18 108.14 80.67 53.15 72.67 51.78"/><polygon points="103.66 30.63 96.63 25.4 86.27 26.02 80 21.63 71.25 22.73 67 25.35 60.27 24.38 51.51 25.32 49.13 32.54 41.3 33.13 39.86 36.09 42.82 42.41 46.52 43.61 43.88 45.56 44.07 48.99 48.61 52.5 57.85 53.83 63.63 49.95 67 52.28 73.69 56.11 81.61 56.07 88.1 51.92 96.92 54.06 103.27 50.6 106.7 45.54 110.75 46.62 115.06 41.2 113.97 37.12 106.74 34.62 108.28 32.19 106.41 30 103.66 30.63"/><rect class="cls-5" x="93.97" y="110.88" width="15.81" height="15.81" transform="translate(113.83 -37.25) rotate(45)"/><rect x="100.21" y="113.19" width="3.33" height="10.56"/><rect x="100.21" y="113.19" width="3.33" height="10.56" transform="translate(-16.6 220.35) rotate(-90)"/><polygon class="cls-2" points="28.48 100.4 52.67 98.57 81.67 99.35 90.17 101.73 94.83 105.57 91 110.4 69.12 113.19 43.9 113.19 28.09 109.85 22.45 105.88 24.41 103.23 28.48 100.4"/><polygon class="cls-5" points="12.26 128.36 24.55 109.85 36.85 128.36 12.26 128.36"/><polygon points="25.8 121.84 25.8 115.01 24.55 112.11 23.31 115.01 23.31 121.84 21.45 121.84 21.45 122.67 23.93 123.29 23.93 124.94 23.31 125.67 23.93 126.39 24.55 127.01 25.17 126.39 25.8 125.67 25.17 124.94 25.17 123.29 27.66 122.67 27.66 121.84 25.8 121.84"/><rect class="cls-5" x="54.76" y="110.4" width="17.39" height="17.39" transform="translate(182.55 55.64) rotate(90)"/><polygon points="58.17 114.44 68.88 114.44 68.11 120.55 63.53 124.37 58.94 120.55 58.17 114.44"/></g></g></svg>