<svg xmlns="http://www.w3.org/2000/svg" viewBox="0 0 124.72 189.38"><defs><style>.cls-1{fill:#51666d;}.cls-2,.cls-3{fill:#fff;}.cls-2{stroke:#000;stroke-miterlimit:10;stroke-width:1.86px;}.cls-4{fill:#b5875d;}</style></defs><title>Element 30</title><g id="Ebene_2" data-name="Ebene 2"><g id="Ebene_1-2" data-name="Ebene 1"><path d="M124.72,178.58V11.34A11.37,11.37,0,0,0,113.39,0h-102A11.37,11.37,0,0,0,0,11.34V178.58a11.38,11.38,0,0,0,7.89,10.8H116.83A11.38,11.38,0,0,0,124.72,178.58Z"/><path class="cls-1" d="M120.48,173.54V18.84A10.52,10.52,0,0,0,110,8.35H15.59A10.52,10.52,0,0,0,5.1,18.84V173.54a10.53,10.53,0,0,0,7.3,10H113.17A10.53,10.53,0,0,0,120.48,173.54Z"/><rect class="cls-2" x="93.97" y="110.88" width="15.81" height="15.81" transform="translate(113.83 -37.25) rotate(45)"/><rect x="100.21" y="113.19" width="3.33" height="10.56"/><rect x="100.21" y="113.19" width="3.33" height="10.56" transform="translate(-16.6 220.35) rotate(-90)"/><rect class="cls-2" x="54.76" y="110.4" width="17.39" height="17.39" transform="translate(182.55 55.64) rotate(90)"/><polygon points="58.17 114.44 68.88 114.44 68.11 120.55 63.53 124.37 58.94 120.55 58.17 114.44"/><polygon class="cls-2" points="12.26 128.36 24.55 109.85 36.85 128.36 12.26 128.36"/><polygon points="25.8 121.84 25.8 115.01 24.55 112.11 23.31 115.01 23.31 121.84 21.45 121.84 21.45 122.67 23.93 123.29 23.93 124.94 23.31 125.67 23.93 126.39 24.55 127.01 25.17 126.39 25.8 125.67 25.17 124.94 25.17 123.29 27.66 122.67 27.66 121.84 25.8 121.84"/><polygon points="25.66 9.1 7.63 21.84 14.52 42.44 36.8 42.44 43.69 21.84 25.66 9.1"/><polygon class="cls-3" points="28.28 19.9 31.24 23.98 33.66 26.77 35.8 29.29 37.16 32.32 30.53 33.15 24.53 33.15 18.53 33.15 14.53 32.15 16.41 29.15 20.37 22.73 21.87 23.69 23.83 20.86 24.83 17.98 25.66 16.4 28.28 19.9"/><polygon points="32.83 78.69 33.83 88.69 36.83 95.69 46.83 98.69 65.83 101.69 81.83 98.69 86.83 93.69 87.83 84.69 89.83 75.69 89.07 72.69 56.83 72.69 32.83 78.69"/><polygon points="41.83 52.69 33.83 58.69 29.83 72.69 32.83 79.69 44.83 81.69 52.83 78.69 56.83 75.69 56.83 79.69 62.83 83.69 81.83 84.69 87.83 77.69 90.83 65.69 88.83 50.69 83.83 51.69 80.83 55.69 62.83 56.69 49.83 52.69 50.83 49.69 45.83 49.69 41.83 52.69"/><polygon class="cls-4" points="30.4 70.69 34.83 74.69 42.83 75.69 53.83 72.69 56.83 70.69 56.83 75.69 52.83 78.69 44.83 81.69 32.83 79.69 29.83 72.69 30.4 70.69"/><polygon class="cls-4" points="39.15 54.7 42.83 55.69 45.83 58.69 49.83 59.69 44.83 59.69 42.83 57.69 36.89 56.39 39.15 54.7"/><polygon class="cls-4" points="90.16 60.7 87.83 66.69 84.83 74.69 80.83 78.69 65.83 79.69 59.83 76.69 56.83 74.61 56.83 79.69 62.83 83.69 81.83 84.69 87.83 77.69 90.83 65.69 90.16 60.7"/><polygon class="cls-4" points="84.41 96.11 82.83 94.69 78.83 94.69 75.83 91.69 73.83 90.69 73.83 88.69 71.83 85.69 72.83 88.69 72.83 90.69 65.83 89.69 62.83 90.69 65.83 90.69 72.83 91.69 74.83 92.69 77.83 95.69 80.83 95.69 83.12 97.4 84.41 96.11"/><polygon class="cls-4" points="74.83 63.69 70.83 65.69 66.83 66.69 63.83 68.69 65.83 71.69 71.83 73.69 77.83 71.69 81.91 72.69 83.83 69.69 81.83 66.69 81.83 63.69 74.83 63.69"/><polygon class="cls-4" points="51.83 88.69 47.83 88.69 46.83 89.69 43.83 89.69 47.83 91.69 51.83 88.69"/><polygon class="cls-4" points="57.83 90.69 59.83 93.69 63.83 92.69 64.83 93.69 60.83 95.69 58.83 94.69 57.83 90.69"/><polygon points="92.75 61.6 96.39 70.09 113.37 74.94 117.01 72.51 117.01 60.38 107.31 53.11 93.97 53.11 90.33 59.17 92.75 61.6"/><polygon points="33.33 57.43 29.95 65.34 14.2 69.86 10.83 67.6 10.83 56.3 19.83 49.52 32.2 49.52 35.58 55.17 33.33 57.43"/><polygon class="cls-4" points="10.83 67.69 19.83 62.69 24.83 55.69 34.08 52.66 35.83 55.69 33.83 57.69 29.83 66.69 13.83 70.69 10.83 67.69"/><polygon class="cls-4" points="92.27 55.92 96.83 60.69 99.83 64.69 104.83 65.69 110.83 69.69 114.83 69.69 115.25 73.69 112.83 75.69 95.83 70.69 91.83 61.69 89.83 58.69 92.27 55.92"/></g></g></svg>