<svg xmlns="http://www.w3.org/2000/svg" viewBox="0 0 124.72 189.38"><defs><style>.cls-1{fill:#51666d;}.cls-2,.cls-4,.cls-5{fill:#fff;}.cls-3{fill:#c93636;}.cls-4,.cls-5{stroke:#000;stroke-miterlimit:10;}.cls-4{stroke-width:1.86px;}.cls-5{stroke-width:2px;}</style></defs><title>Element 6</title><g id="Ebene_2" data-name="Ebene 2"><g id="Ebene_1-2" data-name="Ebene 1"><path d="M124.72,178.58V11.34A11.37,11.37,0,0,0,113.39,0h-102A11.37,11.37,0,0,0,0,11.34V178.58a11.38,11.38,0,0,0,7.89,10.8H116.83A11.38,11.38,0,0,0,124.72,178.58Z"/><path class="cls-1" d="M120.05,172.29V17.59A10.52,10.52,0,0,0,109.56,7.1H15.16A10.52,10.52,0,0,0,4.67,17.59V172.29a10.53,10.53,0,0,0,7.3,10H112.75A10.53,10.53,0,0,0,120.05,172.29Z"/><polygon points="59.75 44.17 57.77 50.11 40.63 55.38 32.71 67.91 32.05 83.07 43.92 98.24 67.66 101.53 86.78 92.96 89.42 73.84 80.19 56.04 82.82 49.45 86.78 48.79 91.4 42.85 92.06 37.58 84.8 29.01 71.61 24.39 59.09 26.37 55.13 35.6 57.11 42.19 59.75 44.17"/><polygon class="cls-2" points="57.77 35.6 61.73 29.01 70.96 27.69 80.85 29.67 81.51 29.01 70.96 25.71 60.41 27.03 57.11 34.28 57.77 35.6"/><polygon class="cls-2" points="63.7 34.94 59.09 49.45 62.38 48.13 68.32 32.96 66.34 32.96 63.7 34.94"/><polygon class="cls-3" points="34.69 70.55 34.03 81.09 45.24 95.6 67 98.9 84.8 90.98 86.12 85.71 76.23 76.48 55.79 69.23 41.29 66.59 34.69 70.55"/><polygon class="cls-2" points="54.47 53.4 44.55 59.34 41.29 75.16 47.22 91.64 53.15 94.28 45.9 92.96 37.33 76.48 41.95 58.68 54.47 53.4"/><path class="cls-2" d="M33.27,163.32c0,1.58-.8,2.06-1.52,2.07l-1.42-.19c0,2.08,0,2.1-1.24,2.1v-8.24l2.24-.24a1.81,1.81,0,0,1,1.93,2.07ZM32,161c0-1-.26-1.26-.77-1.26h-.88v4.86h.9c.52,0,.74-.26.74-1.27Z"/><path class="cls-2" d="M34.23,165.33V157c1.25,0,1.25,0,1.25,1.92v6.44Z"/><path class="cls-2" d="M38.42,165.42c-1.45,0-2-.73-2-2.11v-.22c0-1.37.54-2,1.51-2l1.43.13v-.58c0-.67-.24-.91-1.21-.91H36.71v-.66l1.55-.22c1.82,0,2.35.72,2.35,2.19v4.14Zm1-2.11V161.8h-.94c-.52,0-.73.25-.73,1.29v.26c0,1,.23,1.3.74,1.3h.92Z"/><path class="cls-2" d="M43.65,165.42a2.67,2.67,0,0,1-1.39-.24c-.38-.23-.74-.73-.74-1.87V161c0-2.09,1.24-2.15,2.13-2.15l1.18.16v.66H43.71c-.72,0-.91.13-.91,1.29v2.35c0,1.18.19,1.3.91,1.3h1.12v.65Z"/><path class="cls-2" d="M49.51,161.15c0,1.48-.25,2-1.51,2L46.6,163v.74c0,.48.16.88.73.88h2v.61l-2.09.2c-1.38,0-1.92-.77-1.92-2.11V161c0-1.33.66-2.11,1.93-2.11h.31c1.32,0,1.93.76,1.93,2.11Zm-1.27-.25c0-1-.23-1.28-.74-1.28h-.16c-.49,0-.74.32-.74,1.28v1.55h1a.59.59,0,0,0,.42-.17c.19-.18.25-.54.25-1.14Z"/><path class="cls-2" d="M53.36,163.72V161c0-1-.22-1.28-.78-1.28h-.85v5.6H50.48V157c1.25,0,1.25,0,1.25,2.11l1.4-.16c.73,0,1.49.56,1.49,2.09v4.32C53.34,165.33,53.36,165.33,53.36,163.72Z"/><path class="cls-2" d="M59.69,163.3c0,1.38-.61,2.12-1.93,2.11h-.31c-1.32,0-1.93-.74-1.93-2.11V161c0-1.34.64-2.11,1.93-2.11h.31c1.31,0,1.93.77,1.93,2.11Zm-1.28-2.36c0-1-.26-1.3-.82-1.3s-.83.3-.83,1.3v2.42c0,1,.31,1.3.82,1.3s.83-.25.83-1.3Z"/><path class="cls-2" d="M60.65,165.33V157c1.25,0,1.25,0,1.25,1.92v6.44Z"/><path class="cls-2" d="M64.78,165.44c-1.3,0-1.92-.76-1.92-2.09V161c0-1.61.74-2.06,1.54-2.07l1.4.17c0-2.1,0-2.13,1.24-2.13v8.23Zm1-5.7h-.91c-.52,0-.73.26-.73,1.27v2.34c0,1,.23,1.28.73,1.28h.91Z"/><path class="cls-2" d="M72.17,161.15c0,1.48-.25,2-1.51,2l-1.4-.17v.74c0,.48.16.88.73.88h2v.61l-2.09.2c-1.38,0-1.92-.77-1.92-2.11V161c0-1.33.66-2.11,1.93-2.11h.31c1.32,0,1.93.76,1.93,2.11Zm-1.27-.25c0-1-.23-1.28-.74-1.28H70c-.49,0-.74.32-.74,1.28v1.55h1a.59.59,0,0,0,.42-.17c.19-.18.25-.54.25-1.14Z"/><path class="cls-2" d="M76.67,161.25h-.94c0-1.28-.35-1.55-.88-1.55h-.49v5.63H73.13v-6.26l2-.24a1.59,1.59,0,0,1,1.66,1.83Z"/><path class="cls-2" d="M81.11,165.44c-1.4,0-2-.62-2-2.1V159c.6-.07.71-.41.72-1.13h.54v1.07H82v.65l-1.64.19v3.55c0,1,.22,1.28.74,1.28H82v.65Z"/><path class="cls-2" d="M84.48,165.42c-1.45,0-2-.73-2-2.11v-.22c0-1.37.54-2,1.51-2l1.43.13v-.58c0-.67-.24-.91-1.21-.91H82.78v-.66l1.55-.22c1.82,0,2.35.72,2.35,2.19v4.14Zm1-2.11V161.8h-.94c-.52,0-.73.25-.73,1.29v.26c0,1,.23,1.3.74,1.3h.92Z"/><path class="cls-2" d="M90.82,159.75c.71.16.95.72.95,1.63,0,1.37-.42,1.94-1.5,2l-1.43-.17v.94l3.07.59v.88c0,1.1-.37,1.75-1.88,1.75l-2.59-.2v-.6H90a.55.55,0,0,0,.6-.6v-.66l-3-.58V161c0-1.34.64-2.05,1.94-2.05H92v.65ZM90.47,161c0-1-.23-1.28-.73-1.28h-.17c-.49,0-.73.29-.73,1.28v1.64h.94c.52,0,.7-.25.7-1.27Z"/><path class="cls-2" d="M27.41,141.41c0,1.92-1,2.79-2.88,2.79h-.46c-1.87,0-2.91-.93-2.91-2.79v-5.07c0-1.86,1-2.79,2.9-2.79h.48c1.87,0,2.88.93,2.88,2.79Zm-1.92-5.15c0-1.38-.4-1.71-1.18-1.71s-1.2.34-1.2,1.71v5.23c0,1.38.46,1.7,1.18,1.7s1.2-.32,1.2-1.7Z"/><path class="cls-2" d="M66.41,141.41c0,1.92-1,2.79-2.88,2.79h-.46c-1.87,0-2.91-.93-2.91-2.79v-5.07c0-1.86,1-2.79,2.9-2.79h.48c1.87,0,2.88.93,2.88,2.79Zm-1.92-5.15c0-1.38-.4-1.71-1.18-1.71s-1.2.34-1.2,1.71v5.23c0,1.38.46,1.7,1.18,1.7s1.2-.32,1.2-1.7Z"/><path class="cls-2" d="M101.5,144.24,98.88,144v-.94h1.81c1.33,0,1.66-.53,1.66-1.71v-.83a1.2,1.2,0,0,0-1.2-1.28h-1v-1.07h1c.72,0,1.22-.37,1.22-1.3v-.48c0-1.2-.32-1.68-1.62-1.68H98.88v-1l2.63-.24a2.59,2.59,0,0,1,2.88,2.9c0,1.67-.43,2.13-2.18,2.37,1.9.14,2.18.88,2.18,2.59A2.58,2.58,0,0,1,101.5,144.24Z"/><rect class="cls-4" x="93.97" y="110.88" width="15.81" height="15.81" transform="translate(113.83 -37.25) rotate(45)"/><rect x="100.21" y="113.19" width="3.33" height="10.56"/><rect x="100.21" y="113.19" width="3.33" height="10.56" transform="translate(-16.6 220.35) rotate(-90)"/><polygon class="cls-4" points="12.26 128.36 24.55 109.85 36.85 128.36 12.26 128.36"/><polygon points="25.8 121.84 25.8 115.01 24.55 112.11 23.31 115.01 23.31 121.84 21.45 121.84 21.45 122.67 23.93 123.29 23.93 124.94 23.31 125.67 23.93 126.39 24.55 127.01 25.17 126.39 25.8 125.67 25.17 124.94 25.17 123.29 27.66 122.67 27.66 121.84 25.8 121.84"/><rect class="cls-4" x="54.76" y="110.4" width="17.39" height="17.39" transform="translate(182.55 55.64) rotate(90)"/><polygon points="58.17 114.44 68.88 114.44 68.11 120.55 63.53 124.37 58.94 120.55 58.17 114.44"/><polygon points="25.03 9.58 7 22.31 13.89 42.91 36.17 42.91 43.05 22.31 25.03 9.58"/><path class="cls-2" d="M22.06,12"/><polygon class="cls-2" points="16.55 18.46 24.55 24.46 22.55 25.46 16.55 18.46"/><polygon class="cls-2" points="23.41 13.77 26.29 23.35 24.09 22.97 23.41 13.77"/><polygon class="cls-2" points="28.81 15.8 27.18 25.67 25.37 24.35 28.81 15.8"/><polygon class="cls-2" points="12.37 29.13 21.93 26.21 21.56 28.41 12.37 29.13"/><polygon class="cls-2" points="10.35 21.91 20.27 23.15 19.03 25.01 10.35 21.91"/><polygon class="cls-2" points="16.94 37.59 21.19 28.54 22.57 30.29 16.94 37.59"/><polygon class="cls-2" points="37.73 23.75 28.19 26.76 28.55 24.55 37.73 23.75"/><polygon class="cls-2" points="32.45 18.51 27.64 27.28 26.37 25.44 32.45 18.51"/><polygon class="cls-2" points="34.86 34.08 26.34 28.85 28.24 27.67 34.86 34.08"/><polygon class="cls-2" points="30.97 39.04 23.99 31.88 26.12 31.2 30.97 39.04"/><polygon class="cls-2" points="23.04 41.25 23.26 31.26 25.24 32.3 23.04 41.25"/><polygon class="cls-5" points="25.05 19.96 18.05 24.7 23.05 34.96 25.05 34.96 27.05 34.96 32.05 24.7 25.05 19.96"/></g></g></svg>