<svg xmlns="http://www.w3.org/2000/svg" viewBox="0 0 124.72 189.38"><defs><style>.cls-1{fill:#51666d;}.cls-2,.cls-3{fill:#fff;}.cls-2{stroke:#000;stroke-miterlimit:10;stroke-width:1.86px;}.cls-4{fill:#aa2c1b;}</style></defs><title>Element 10</title><g id="Ebene_2" data-name="Ebene 2"><g id="Ebene_1-2" data-name="Ebene 1"><path d="M124.72,178.58V11.34A11.37,11.37,0,0,0,113.39,0h-102A11.37,11.37,0,0,0,0,11.34V178.58a11.38,11.38,0,0,0,7.89,10.8H116.83A11.38,11.38,0,0,0,124.72,178.58Z"/><path class="cls-1" d="M120.05,172.29V17.59A10.52,10.52,0,0,0,109.56,7.1H15.16A10.52,10.52,0,0,0,4.67,17.59V172.29a10.53,10.53,0,0,0,7.3,10H112.75A10.53,10.53,0,0,0,120.05,172.29Z"/><rect class="cls-2" x="93.97" y="110.88" width="15.81" height="15.81" transform="translate(113.83 -37.25) rotate(45)"/><rect x="100.21" y="113.19" width="3.33" height="10.56"/><rect x="100.21" y="113.19" width="3.33" height="10.56" transform="translate(-16.6 220.35) rotate(-90)"/><polygon class="cls-2" points="12.26 128.36 24.55 109.85 36.85 128.36 12.26 128.36"/><polygon points="25.8 121.84 25.8 115.01 24.55 112.11 23.31 115.01 23.31 121.84 21.45 121.84 21.45 122.67 23.93 123.29 23.93 124.94 23.31 125.67 23.93 126.39 24.55 127.01 25.17 126.39 25.8 125.67 25.17 124.94 25.17 123.29 27.66 122.67 27.66 121.84 25.8 121.84"/><rect class="cls-2" x="54.76" y="110.4" width="17.39" height="17.39" transform="translate(182.55 55.64) rotate(90)"/><polygon points="58.17 114.44 68.88 114.44 68.11 120.55 63.53 124.37 58.94 120.55 58.17 114.44"/><polygon points="25.03 8.63 7 21.36 13.89 41.96 36.17 41.96 43.05 21.36 25.03 8.63"/><polygon class="cls-3" points="17.05 26.96 18.05 21.96 25.05 20.96 28.05 24.96 27.05 25.96 24.05 23.96 21.05 24.96 21.05 27.96 18.05 28.96 17.05 26.96"/><polygon class="cls-3" points="32.05 21.96 29.05 22.96 29.05 25.96 33.05 24.96 32.05 21.96"/><polygon class="cls-3" points="28.05 26.96 32.05 26.96 32.05 28.96 29.05 29.96 28.05 26.96"/><polygon class="cls-3" points="27.05 20.96 28.05 22.96 31.05 20.96 29.05 18.96 27.05 20.96"/><polygon class="cls-3" points="28.05 30.96 31.05 30.96 30.05 32.96 28.05 32.96 28.05 30.96"/><path d="M15.06,78l-6,2,7,4,4,4,9,9,8-2s15,1,16,1,14-5,14-5l13-5,10-3,5-5,11-4,6-5-5-5-23-4Z"/><polygon class="cls-3" points="62.05 59.96 67.06 51.96 81.06 46.96 87.06 50.96 102.06 53.96 112.06 57.96 110.06 63.96 101.06 69.96 86.06 71.96 85.06 69.96 74.06 64.96 71.06 60.96 62.05 59.96"/><polygon class="cls-4" points="18.05 71.96 20.05 66.96 33.05 61.96 46.05 62.96 59.05 56.96 66.06 56.96 75.06 57.96 83.06 64.96 93.06 68.96 95.06 72.96 87.06 79.96 72.06 83.96 57.05 91.96 36.05 91.96 30.05 93.96 27.05 87.96 21.05 80.96 15.05 79.96 10.05 75.96 18.05 71.96"/></g></g></svg>