<svg xmlns="http://www.w3.org/2000/svg" viewBox="0 0 124.72 189.38"><defs><style>.cls-1{fill:#51666d;}.cls-2,.cls-3{fill:#fff;}.cls-2{stroke:#000;stroke-miterlimit:10;stroke-width:1.86px;}.cls-4{fill:#ef780c;}</style></defs><title>Element 44</title><g id="Ebene_2" data-name="Ebene 2"><g id="Ebene_1-2" data-name="Ebene 1"><path d="M124.72,178.58V11.34A11.37,11.37,0,0,0,113.39,0h-102A11.37,11.37,0,0,0,0,11.34V178.58a11.38,11.38,0,0,0,7.89,10.8H116.83A11.38,11.38,0,0,0,124.72,178.58Z"/><path class="cls-1" d="M120.05,172.29V17.59A10.52,10.52,0,0,0,109.56,7.1H15.16A10.52,10.52,0,0,0,4.67,17.59V172.29a10.53,10.53,0,0,0,7.3,10H112.75A10.53,10.53,0,0,0,120.05,172.29Z"/><rect class="cls-2" x="93.97" y="110.88" width="15.81" height="15.81" transform="translate(113.83 -37.25) rotate(45)"/><rect x="100.21" y="113.19" width="3.33" height="10.56"/><rect x="100.21" y="113.19" width="3.33" height="10.56" transform="translate(-16.6 220.35) rotate(-90)"/><polygon class="cls-2" points="12.26 128.36 24.55 109.85 36.85 128.36 12.26 128.36"/><polygon points="25.8 121.84 25.8 115.01 24.55 112.11 23.31 115.01 23.31 121.84 21.45 121.84 21.45 122.67 23.93 123.29 23.93 124.94 23.31 125.67 23.93 126.39 24.55 127.01 25.17 126.39 25.8 125.67 25.17 124.94 25.17 123.29 27.66 122.67 27.66 121.84 25.8 121.84"/><rect class="cls-2" x="54.76" y="110.4" width="17.39" height="17.39" transform="translate(182.55 55.64) rotate(90)"/><polygon points="58.17 114.44 68.88 114.44 68.11 120.55 63.53 124.37 58.94 120.55 58.17 114.44"/><polygon points="83.63 102.09 70.63 99.09 53.63 99.09 41.63 102.09 42.63 104.09 53.63 107.09 69.63 108.09 80.63 105.09 83.63 102.09"/><polygon points="25.03 8.63 7 21.36 13.89 41.96 36.17 41.96 43.05 21.36 25.03 8.63"/><polygon class="cls-3" points="26.22 20.63 22.89 23.13 22.05 27.3 23.72 29.8 21.22 28.96 19.55 25.63 17.05 23.96 17.89 26.46 17.89 28.96 19.55 32.3 24.55 33.96 30.39 33.13 32.05 30.63 32.05 27.3 30.39 25.63 30.39 23.96 28.72 25.63 28.72 28.13 27.05 25.63 27.05 23.13 27.89 20.63 27.05 18.13 26.22 20.63"/><polygon class="cls-4" points="77.3 79.44 74.47 82.98 70.7 83.87 73.53 84.75 76.36 87.85 72.59 86.08 67.87 86.08 62.22 87.41 58.45 86.08 52.79 84.75 49.96 81.65 48.08 84.31 44.3 85.64 41.48 85.2 37.7 86.52 40.53 84.31 43.36 83.42 45.25 82.54 44.3 77.67 41.48 75.01 41.48 71.92 37.7 74.13 40.53 70.14 41.48 68.37 40.53 65.28 37.7 62.62 37.7 59.08 40.53 57.31 39.59 59.52 40.53 61.29 43.36 60.85 44.3 58.19 45.25 54.21 48.08 51.11 49.02 48.45 48.08 46.68 47.13 45.8 49.96 45.8 52.79 47.13 52.79 50.22 56.56 49.78 58.45 47.57 65.04 46.68 67.87 48.45 71.64 48.45 73.53 47.13 74.47 48.9 72.59 51.11 76.36 51.99 79.19 55.98 79.19 60.41 82.01 64.39 84.84 64.39 83.9 66.16 81.07 67.05 79.19 67.93 78.24 71.03 80.13 72.8 81.07 76.78 80.13 80.33 79.19 79 77.3 79.44"/><polygon class="cls-3" points="62.22 53.77 59.39 57.31 59.39 62.18 61.27 63.5 56.56 63.5 54.67 58.19 54.67 53.77 48.08 62.62 50.9 71.03 48.08 70.14 54.67 78.11 62.22 77.23 62.22 78.56 66.93 80.33 69.76 78.56 70.7 73.69 72.59 71.92 72.59 74.13 73.53 75.46 74.47 68.82 72.59 63.06 72.59 59.96 74.47 62.62 74.47 56.86 69.76 53.32 65.99 51.99 62.22 53.77"/><polygon class="cls-3" points="64.1 85.64 59.39 85.64 56.56 84.31 54.67 82.54 52.79 80.77 55.62 81.65 58.45 82.98 62.22 83.87 65.04 83.87 68.81 85.2 64.1 85.64"/><polygon class="cls-3" points="70.7 51.99 65.99 50.67 62.22 51.99 59.39 55.98 58.45 59.96 58.45 56.42 59.39 52.44 56.56 52.44 59.39 51.55 63.16 49.78 65.99 49.78 70.7 51.99"/><polygon class="cls-3" points="45.25 61.73 44.3 63.06 40.53 63.06 38.65 61.73 40.53 63.95 43.36 64.39 45.25 66.6 45.25 68.37 47.13 65.72 46.19 63.5 47.13 59.96 49.96 57.31 45.25 60.41 45.25 61.73"/><polygon class="cls-3" points="74.47 79.88 77.3 78.11 79.19 78.11 80.13 78.56 79.19 77.67 79.19 76.78 79.19 74.57 78.24 73.24 78.24 75.01 77.3 77.23 75.42 78.11 73.53 79.88 73.53 81.65 74.47 79.88"/><polygon class="cls-3" points="81.07 65.28 80.13 65.72 78.24 67.93 78.24 69.26 77.3 67.49 78.24 66.16 80.13 65.28 81.07 65.28"/><polygon class="cls-4" points="67.87 62.62 69.76 67.49 68.81 71.47 68.81 69.26 65.99 71.47 63.16 71.03 62.22 68.82 60.33 68.82 61.27 67.93 63.16 66.16 62.22 63.95 63.16 62.18 65.04 60.85 65.04 61.73 66.93 60.85 68.81 62.62 67.87 62.62"/><polygon class="cls-4" points="33.47 65.48 31.91 60.18 29.3 57.06 27.84 53.25 29.14 50.16 29.58 52.23 31.85 54.78 35.04 57.57 35.58 61.14 33.47 65.48"/><polygon class="cls-3" points="30.93 54.55 34.52 57.35 34.33 60.32 33.85 62.16 33.31 58.59 30.93 54.55"/><polygon class="cls-4" points="81.56 88.16 82.23 82.8 86.25 79.45 89.6 74.76 89.6 70.74 92.28 74.76 90.94 80.12 85.58 83.47 82.9 85.48 81.56 88.16"/><polygon class="cls-3" points="90.27 74.09 90.27 76.77 86.92 80.12 84.24 82.13 88.26 80.79 90.94 78.11 90.27 74.09"/><polygon class="cls-4" points="56.58 40.01 60.6 38 61.27 35.32 62.61 30.63 65.29 29.96 63.95 31.97 63.95 34.65 64.62 38 63.28 40.68 65.29 40.68 66.63 38 66.63 35.99 67.97 38 67.97 41.35 65.29 43.36 59.93 42.02 55.91 42.02 54.58 44.03 54.58 41.35 56.58 40.01"/><polygon class="cls-3" points="63.28 35.99 63.28 38.67 61.94 40.68 63.95 42.02 65.96 42.02 63.95 42.69 59.93 41.35 57.25 41.35 61.27 39.34 63.28 35.99"/><polygon class="cls-4" points="37.42 82.55 36.75 77.19 34.74 75.85 30.72 75.18 30.05 71.16 31.39 68.48 28.04 71.16 28.04 75.85 30.72 78.53 34.74 78.53 37.42 82.55"/><polygon class="cls-3" points="28.71 73.17 30.05 76.52 31.39 77.19 34.74 77.86 30.72 77.86 29.38 76.52 28.71 73.17"/><polygon class="cls-4" points="62.44 94.78 59.37 91.05 54.63 90.86 51.44 92.54 47.9 90.88 47.1 89.62 46.71 92.35 50.31 94.67 54.98 94.2 59.57 93.05 62.44 94.78"/><polygon class="cls-3" points="51.51 93.2 54.04 91.6 58.77 91.79 54.1 92.27 51.51 93.2"/></g></g></svg>