<svg xmlns="http://www.w3.org/2000/svg" viewBox="0 0 124.72 189.38"><defs><style>.cls-1{fill:#51666d;}.cls-2,.cls-3{fill:#fff;}.cls-2{stroke:#000;stroke-miterlimit:10;stroke-width:1.86px;}.cls-4{fill:#ef780c;}</style></defs><title>Element 9</title><g id="Ebene_2" data-name="Ebene 2"><g id="Ebene_1-2" data-name="Ebene 1"><path d="M124.72,178.58V11.34A11.37,11.37,0,0,0,113.39,0h-102A11.37,11.37,0,0,0,0,11.34V178.58a11.38,11.38,0,0,0,7.89,10.8H116.83A11.38,11.38,0,0,0,124.72,178.58Z"/><path class="cls-1" d="M120.05,172.29V17.59A10.52,10.52,0,0,0,109.56,7.1H15.16A10.52,10.52,0,0,0,4.67,17.59V172.29a10.53,10.53,0,0,0,7.3,10H112.75A10.53,10.53,0,0,0,120.05,172.29Z"/><rect class="cls-2" x="93.97" y="110.88" width="15.81" height="15.81" transform="translate(113.83 -37.25) rotate(45)"/><rect x="100.21" y="113.19" width="3.33" height="10.56"/><rect x="100.21" y="113.19" width="3.33" height="10.56" transform="translate(-16.6 220.35) rotate(-90)"/><polygon class="cls-2" points="12.26 128.36 24.55 109.85 36.85 128.36 12.26 128.36"/><polygon points="25.8 121.84 25.8 115.01 24.55 112.11 23.31 115.01 23.31 121.84 21.45 121.84 21.45 122.67 23.93 123.29 23.93 124.94 23.31 125.67 23.93 126.39 24.55 127.01 25.17 126.39 25.8 125.67 25.17 124.94 25.17 123.29 27.66 122.67 27.66 121.84 25.8 121.84"/><rect class="cls-2" x="54.76" y="110.4" width="17.39" height="17.39" transform="translate(182.55 55.64) rotate(90)"/><polygon points="58.17 114.44 68.88 114.44 68.11 120.55 63.53 124.37 58.94 120.55 58.17 114.44"/><polygon points="25.03 8.63 7 21.36 13.89 41.96 36.17 41.96 43.05 21.36 25.03 8.63"/><polygon class="cls-3" points="26.22 20.63 22.89 23.13 22.05 27.3 23.72 29.8 21.22 28.96 19.55 25.63 17.05 23.96 17.89 26.46 17.89 28.96 19.55 32.3 24.55 33.96 30.39 33.13 32.05 30.63 32.05 27.3 30.39 25.63 30.39 23.96 28.72 25.63 28.72 28.13 27.05 25.63 27.05 23.13 27.89 20.63 27.05 18.13 26.22 20.63"/><polygon points="64.18 47.79 76.06 44.96 76.06 45.96 92.06 50.96 88.06 52.96 103.06 61.96 82.06 58.96 84.06 59.96 59.05 57.96 64.18 47.79"/><polygon points="64.04 65.73 80.06 61.96 96.06 62.96 106.06 63.96 92.06 65.96 85.06 68.96 88.06 68.96 65.06 72.96 64.04 65.73"/><polygon points="78.06 78.96 85.06 71.96 85.06 72.96 94.06 69.96 107.06 70.96 99.06 73.96 101.06 73.96 88.06 78.96 82.33 82.88 78.06 78.96"/><polygon class="cls-4" points="83.06 54.96 88.06 46.96 81.06 49.96 72.06 48.96 65.06 49.96 63.05 44.96 51.05 42.96 51.05 38.96 48.05 43.96 53.05 46.96 50.05 51.96 39.05 52.96 39.05 60.96 29.05 68.96 29.05 79.96 34.05 70.96 51.05 60.96 71.06 55.96 90.06 57.96 83.06 54.96"/><polygon class="cls-4" points="88.06 62.96 62.05 65.96 48.05 75.96 43.05 90.96 45.05 96.96 48.05 87.96 57.05 78.96 68.06 71.96 94.06 63.96 88.06 62.96"/><polygon class="cls-4" points="90.06 72.96 74.06 79.96 69.06 90.96 71.06 97.96 76.06 100.96 75.06 93.96 78.06 87.96 82.06 88.96 82.06 91.96 80.06 93.96 85.06 92.96 86.06 87.96 83.06 84.96 84.06 80.96 89.06 76.96 97.06 73.96 90.06 72.96"/><polygon class="cls-3" points="81.06 54.96 70.06 53.96 51.05 58.96 34.05 68.96 32.05 71.96 33.05 67.96 47.05 56.96 55.05 51.96 57.05 47.96 54.05 44.96 59.05 46.96 61.05 50.96 68.06 51.96 73.06 51.96 81.06 54.96"/><polygon class="cls-3" points="88.06 63.96 67.06 69.96 56.05 76.96 48.05 84.96 46.05 87.96 47.05 83.96 51.05 75.96 63.05 67.96 72.06 65.96 88.06 63.96"/><polygon class="cls-3" points="89.06 74.96 83.06 79.96 82.06 83.96 82.06 85.96 84.06 87.96 83.06 89.96 82.06 87.96 78.06 86.96 76.06 88.96 74.06 95.96 73.06 91.96 76.06 84.96 81.06 78.96 89.06 74.96"/></g></g></svg>