<svg xmlns="http://www.w3.org/2000/svg" viewBox="0 0 124.72 189.38"><defs><style>.cls-1{fill:#51666d;}.cls-2,.cls-4{fill:#fff;}.cls-2{stroke:#000;stroke-miterlimit:10;stroke-width:1.86px;}.cls-3{fill:#ef780c;}</style></defs><title>Element 23</title><g id="Ebene_2" data-name="Ebene 2"><g id="Ebene_1-2" data-name="Ebene 1"><path d="M124.72,178.58V11.34A11.37,11.37,0,0,0,113.39,0h-102A11.37,11.37,0,0,0,0,11.34V178.58a11.38,11.38,0,0,0,7.89,10.8H116.83A11.38,11.38,0,0,0,124.72,178.58Z"/><path class="cls-1" d="M120.05,172.29V17.59A10.52,10.52,0,0,0,109.56,7.1H15.16A10.52,10.52,0,0,0,4.67,17.59V172.29a10.53,10.53,0,0,0,7.3,10H112.75A10.53,10.53,0,0,0,120.05,172.29Z"/><rect class="cls-2" x="93.97" y="110.88" width="15.81" height="15.81" transform="translate(113.83 -37.25) rotate(45)"/><rect x="100.21" y="113.19" width="3.33" height="10.56"/><rect x="100.21" y="113.19" width="3.33" height="10.56" transform="translate(-16.6 220.35) rotate(-90)"/><polygon class="cls-2" points="12.26 128.36 24.55 109.85 36.85 128.36 12.26 128.36"/><polygon points="25.8 121.84 25.8 115.01 24.55 112.11 23.31 115.01 23.31 121.84 21.45 121.84 21.45 122.67 23.93 123.29 23.93 124.94 23.31 125.67 23.93 126.39 24.55 127.01 25.17 126.39 25.8 125.67 25.17 124.94 25.17 123.29 27.66 122.67 27.66 121.84 25.8 121.84"/><rect class="cls-2" x="54.76" y="110.4" width="17.39" height="17.39" transform="translate(182.55 55.64) rotate(90)"/><polygon points="58.17 114.44 68.88 114.44 68.11 120.55 63.53 124.37 58.94 120.55 58.17 114.44"/><polygon class="cls-3" points="55.76 71.28 56.09 63.64 53.71 59.53 53.34 51.3 47.91 45.97 50.03 51.89 48.75 60.41 53.44 65.9 55.76 71.28"/><polygon class="cls-3" points="47.15 82.58 44.2 75.52 44.53 71.04 41.9 63.25 44.09 56.8 44.59 62.91 48.57 70.53 46.99 76.92 47.15 82.58"/><polygon class="cls-3" points="70.33 71.11 74.52 61.63 72.33 54.71 72.33 46.15 74.52 42.5 74.52 46.33 78.52 53.8 77.98 63.27 70.33 71.11"/><polygon class="cls-3" points="74.47 75.93 84.17 68.77 84.18 57.8 91.04 47.48 99.06 44.83 93.83 49.18 90.78 58.39 85.7 70.18 74.47 75.93"/><polygon class="cls-3" points="70.22 46.93 74.56 35.05 78.06 32.33 76.33 24.56 71.29 19.83 70.43 13.66 67.97 20.59 71.66 26.26 72.34 32.1 69.23 36.69 70.22 46.93"/><polygon class="cls-3" points="51.27 31.17 45.07 36.68 45.07 44.23 54.06 45.31 57.6 49.4 56.71 43.27 50.47 40.86 49.35 36.98 51.27 31.17"/><path class="cls-3" d="M57.94,54.53c.18-.36,5.83-6.56,5.83-6.56L68,41.77l-.36-7.29L61,27.56l-3.1-5.65v7.47l3.46,8.74-.18,9.29Z"/><polygon points="85.06 100.96 72.06 97.96 55.05 97.96 43.05 100.96 44.05 102.96 55.05 105.96 71.06 106.96 82.06 103.96 85.06 100.96"/><polygon class="cls-3" points="62.86 70.19 57.57 77.84 49.56 81.85 45.73 90.96 51.2 100.44 65.59 104.26 82.35 94.97 79.25 86.95 74.33 82.03 75.79 87.5 72.51 92.06 67.05 86.95 68.32 80.03 66.86 74.57 64.86 79.3 59.21 82.76 63.77 76.21 65.59 66.92 63.77 61.63 64.68 54.71 66.68 51.43 62.67 54.34 60.49 61.63 62.86 70.19"/><polygon class="cls-4" points="54.35 84.69 51.29 89.31 54.02 98.03 63.52 102.04 69.59 99.17 72.93 94.11 68.79 95.62 65.27 90.81 63.21 85.86 61.66 89.76 62.96 95.44 57.8 92.5 54.43 89.16 54.35 84.69"/><polygon class="cls-4" points="59.05 26.96 62.05 30.96 64.06 39.96 63.05 43.96 62.05 37.96 59.05 29.96 59.05 26.96"/><polygon class="cls-4" points="92.06 50.96 88.06 59.96 86.06 66.96 86.06 58.96 92.06 50.96"/><polygon class="cls-4" points="59.05 78.96 53.05 82.96 50.05 88.96 51.05 95.96 48.05 89.96 51.05 82.96 59.05 78.96"/><polygon class="cls-4" points="51.05 52.96 51.05 58.96 54.05 63.96 50.05 59.96 51.05 52.96"/><polygon points="25.03 8.63 7 21.36 13.89 41.96 36.17 41.96 43.05 21.36 25.03 8.63"/><polygon class="cls-4" points="26.22 20.63 22.89 23.13 22.05 27.3 23.72 29.8 21.22 28.96 19.55 25.63 17.05 23.96 17.89 26.46 17.89 28.96 19.55 32.3 24.55 33.96 30.39 33.13 32.05 30.63 32.05 27.3 30.39 25.63 30.39 23.96 28.72 25.63 28.72 28.13 27.05 25.63 27.05 23.13 27.89 20.63 27.05 18.13 26.22 20.63"/></g></g></svg>