<svg xmlns="http://www.w3.org/2000/svg" viewBox="0 0 124.72 189.38"><defs><style>.cls-1{fill:#51666d;}.cls-2,.cls-3{fill:#fff;}.cls-2{stroke:#000;stroke-miterlimit:10;stroke-width:1.86px;}.cls-4{fill:#ef780c;}</style></defs><title>Element 11</title><g id="Ebene_2" data-name="Ebene 2"><g id="Ebene_1-2" data-name="Ebene 1"><path d="M124.72,178.58V11.34A11.37,11.37,0,0,0,113.39,0h-102A11.37,11.37,0,0,0,0,11.34V178.58a11.38,11.38,0,0,0,7.89,10.8H116.83A11.38,11.38,0,0,0,124.72,178.58Z"/><path class="cls-1" d="M120.05,172.29V17.59A10.52,10.52,0,0,0,109.56,7.1H15.16A10.52,10.52,0,0,0,4.67,17.59V172.29a10.53,10.53,0,0,0,7.3,10H112.75A10.53,10.53,0,0,0,120.05,172.29Z"/><rect class="cls-2" x="93.97" y="110.88" width="15.81" height="15.81" transform="translate(113.83 -37.25) rotate(45)"/><rect x="100.21" y="113.19" width="3.33" height="10.56"/><rect x="100.21" y="113.19" width="3.33" height="10.56" transform="translate(-16.6 220.35) rotate(-90)"/><polygon class="cls-2" points="12.26 128.36 24.55 109.85 36.85 128.36 12.26 128.36"/><polygon points="25.8 121.84 25.8 115.01 24.55 112.11 23.31 115.01 23.31 121.84 21.45 121.84 21.45 122.67 23.93 123.29 23.93 124.94 23.31 125.67 23.93 126.39 24.55 127.01 25.17 126.39 25.8 125.67 25.17 124.94 25.17 123.29 27.66 122.67 27.66 121.84 25.8 121.84"/><rect class="cls-2" x="54.76" y="110.4" width="17.39" height="17.39" transform="translate(182.55 55.64) rotate(90)"/><polygon points="58.17 114.44 68.88 114.44 68.11 120.55 63.53 124.37 58.94 120.55 58.17 114.44"/><polygon points="25.03 8.63 7 21.36 13.89 41.96 36.17 41.96 43.05 21.36 25.03 8.63"/><polygon class="cls-3" points="26.22 20.63 22.89 23.13 22.05 27.3 23.72 29.8 21.22 28.96 19.55 25.63 17.05 23.96 17.89 26.46 17.89 28.96 19.55 32.3 24.55 33.96 30.39 33.13 32.05 30.63 32.05 27.3 30.39 25.63 30.39 23.96 28.72 25.63 28.72 28.13 27.05 25.63 27.05 23.13 27.89 20.63 27.05 18.13 26.22 20.63"/><polygon points="115.06 79.96 118.06 87.96 113.57 94.35 104.06 96.96 91.06 96.96 84.06 90.96 84.06 77.96 93.06 73.96 106.06 73.96 115.06 79.96"/><polygon class="cls-3" points="80.27 79.53 92.06 73.96 106.06 73.96 114.06 78.96 109.28 82.14 105.44 80.46 105.92 75.19 101.37 81.42 96.06 79.96 92.73 74 92.26 79.28 86.75 81.44 80.27 79.53"/><polygon class="cls-3" points="83.61 88.73 91.1 92.47 91.1 96.22 94.84 92.47 100.46 92.47 104.2 96.22 104.2 92.47 111.69 90.6 113.06 94.96 104.06 96.96 90.06 96.96 83.61 90.6 83.61 88.73"/><polygon points="85.73 72.55 91.06 67.96 96.06 66.96 99.06 67.96 103.06 66.96 108.06 66.96 112.06 70.96 118.06 80.96 115.06 79.96 106.06 73.96 92.06 73.96 80.06 79.96 85.73 72.55"/><polygon points="83.06 89.96 80.27 91.39 81.06 96.96 86.06 102.96 95.06 103.96 108.06 103.96 115.13 97.45 116.13 90.45 104.06 96.96 90.06 96.96 83.06 89.96"/><polygon class="cls-4" points="57.6 83.13 51.07 81.9 47.24 83.43 40.13 82.73 34.87 86.72 40.23 85.64 47.38 87.8 52.68 84.45 57.6 83.13"/><polygon class="cls-4" points="66.23 91.93 59.8 93.59 55.99 92.75 48.98 94.04 43.71 91.36 49.02 91.68 56.06 89.21 61.35 91.36 66.23 91.93"/><polygon class="cls-4" points="59.25 70.59 51.63 65.82 45.42 66.83 38.06 65.77 35.2 63.44 38.49 63.92 45.4 61.4 53.47 63.05 59.25 70.59"/><polygon class="cls-4" points="63.91 67.64 58.97 58.41 49.55 57.04 41.53 49.86 40.25 42.65 43.34 47.68 50.87 51.44 60.37 57.27 63.91 67.64"/><polygon class="cls-4" points="38.47 67.68 28.8 62.48 26.9 59.14 20.01 59.65 15.33 63.4 9.92 63.37 15.57 66.34 20.89 63.88 26 64.02 29.55 67.26 38.47 67.68"/><polygon class="cls-4" points="22.58 82.01 26.54 88.01 33.03 88.95 35.08 81.36 39.02 78.83 33.65 78.83 30.81 83.89 27.33 84.37 22.58 82.01"/><path class="cls-4" d="M43.47,79.18c-.29-.2-4.91-5.82-4.91-5.82L33.76,69l-6.31-.59L20.7,73.17l-5.24,2,6.42.93,7.94-1.89,8,1.31Z"/><polygon class="cls-4" points="57.54 76.9 63.46 82.38 65.91 89.77 73.26 94.19 82.07 90.67 94.06 83.13 83.8 70.1 73.98 64.89 69.14 68.51 74.02 67.93 77.52 71.32 72.46 75.38 66.67 73.42 61.8 74 65.62 76.31 67.89 81.59 62.82 76.86 55.06 74.14 50.3 75.05 44.47 73.41 41.9 71.28 43.9 75.08 49.89 77.87 57.54 76.9"/><polygon class="cls-3" points="68.94 86 72.53 89.21 80.36 87.95 88.8 83.57 83.27 74.71 79.34 71.21 80.12 74.96 75.55 77.39 71.04 78.54 74.2 80.35 79.25 79.95 76.08 84.01 72.79 86.49 68.94 86"/><polygon class="cls-3" points="19.93 74.79 23.74 72.71 31.72 72.11 35.03 73.47 29.76 73.58 22.51 75.17 19.93 74.79"/><polygon class="cls-3" points="44.65 49.42 51.88 53.98 57.65 56.57 50.78 55.57 44.65 49.42"/><polygon class="cls-3" points="41.28 84.89 46.43 85.64 51.1 83.68 47.16 86.62 41.28 84.89"/><polygon points="118.06 80.96 116.06 83.96 114.33 79.48 118.06 80.96"/></g></g></svg>