<svg xmlns="http://www.w3.org/2000/svg" viewBox="0 0 124.72 189.38"><defs><style>.cls-1{fill:#51666d;}.cls-2,.cls-3{fill:#fff;}.cls-2{stroke:#000;stroke-miterlimit:10;stroke-width:1.86px;}.cls-4{fill:#5fffef;}</style></defs><title>Element 15</title><g id="Ebene_2" data-name="Ebene 2"><g id="Ebene_1-2" data-name="Ebene 1"><path d="M124.72,178.58V11.34A11.37,11.37,0,0,0,113.39,0h-102A11.37,11.37,0,0,0,0,11.34V178.58a11.38,11.38,0,0,0,7.89,10.8H116.83A11.38,11.38,0,0,0,124.72,178.58Z"/><path class="cls-1" d="M120.05,172.29V17.59A10.52,10.52,0,0,0,109.56,7.1H15.16A10.52,10.52,0,0,0,4.67,17.59V172.29a10.53,10.53,0,0,0,7.3,10H112.75A10.53,10.53,0,0,0,120.05,172.29Z"/><rect class="cls-2" x="93.97" y="110.88" width="15.81" height="15.81" transform="translate(113.83 -37.25) rotate(45)"/><rect x="100.21" y="113.19" width="3.33" height="10.56"/><rect x="100.21" y="113.19" width="3.33" height="10.56" transform="translate(-16.6 220.35) rotate(-90)"/><polygon class="cls-2" points="12.26 128.36 24.55 109.85 36.85 128.36 12.26 128.36"/><polygon points="25.8 121.84 25.8 115.01 24.55 112.11 23.31 115.01 23.31 121.84 21.45 121.84 21.45 122.67 23.93 123.29 23.93 124.94 23.31 125.67 23.93 126.39 24.55 127.01 25.17 126.39 25.8 125.67 25.17 124.94 25.17 123.29 27.66 122.67 27.66 121.84 25.8 121.84"/><rect class="cls-2" x="54.76" y="110.4" width="17.39" height="17.39" transform="translate(182.55 55.64) rotate(90)"/><polygon points="58.17 114.44 68.88 114.44 68.11 120.55 63.53 124.37 58.94 120.55 58.17 114.44"/><polygon class="cls-3" points="18.6 76.99 17.45 77.39 17.68 78.8 18.8 78.76 19.5 77.91 18.6 76.99"/><polygon class="cls-3" points="19.47 73.16 18.57 73.15 18.24 73.68 18.96 74.3 19.63 73.8 19.47 73.16"/><polygon class="cls-3" points="13.92 74.51 13.03 75.07 13.05 75.63 13.93 75.98 14.55 75.26 13.92 74.51"/><polygon class="cls-3" points="16.39 70.74 15.75 70.89 15.67 71.03 16.17 71.7 16.55 71.38 16.39 70.74"/><polygon class="cls-3" points="21.56 71.52 22.31 71.79 22.39 72.56 21.61 72.64 21.24 72.05 21.56 71.52"/><polygon class="cls-3" points="33.97 74.58 33.37 75.64 34.49 76.54 35.29 75.76 35.25 74.66 33.97 74.58"/><polygon class="cls-3" points="32.07 71.13 31.39 71.73 31.5 72.34 32.45 72.33 32.61 71.51 32.07 71.13"/><polygon class="cls-3" points="28.82 75.84 28.53 76.84 28.92 77.25 29.81 76.92 29.8 75.98 28.82 75.84"/><polygon class="cls-3" points="28.16 71.38 27.79 71.92 27.81 72.07 28.64 72.24 28.7 71.75 28.16 71.38"/><polygon class="cls-3" points="32.54 68.52 33.27 68.22 33.84 68.75 33.32 69.32 32.65 69.13 32.54 68.52"/><polygon class="cls-3" points="28.48 56.17 28.94 55.05 27.72 54.29 27.02 55.16 27.2 56.25 28.48 56.17"/><polygon class="cls-3" points="30.78 59.37 31.38 58.69 31.2 58.09 30.26 58.23 30.19 59.06 30.78 59.37"/><polygon class="cls-3" points="33.43 54.3 33.6 53.27 33.16 52.92 32.32 53.34 32.45 54.28 33.43 54.3"/><polygon class="cls-3" points="34.63 58.65 34.94 58.07 34.89 57.92 34.05 57.85 34.04 58.34 34.63 58.65"/><polygon class="cls-3" points="30.63 62.02 29.93 62.4 29.3 61.95 29.76 61.32 30.44 61.43 30.63 62.02"/><polygon class="cls-3" points="67.47 52.12 67.06 53.27 68.32 53.96 68.98 53.05 68.74 51.98 67.47 52.12"/><polygon class="cls-3" points="65 49.06 64.43 49.77 64.65 50.35 65.58 50.17 65.6 49.33 65 49.06"/><polygon class="cls-3" points="62.62 54.26 62.51 55.3 62.97 55.63 63.78 55.16 63.6 54.23 62.62 54.26"/><polygon class="cls-3" points="61.19 49.98 60.91 50.58 60.97 50.73 61.81 50.75 61.79 50.26 61.19 49.98"/><polygon class="cls-3" points="65 46.4 65.67 45.98 66.33 46.4 65.91 47.06 65.22 46.98 65 46.4"/><polygon class="cls-3" points="75.08 38.55 75.54 39.67 76.94 39.35 76.83 38.24 75.93 37.59 75.08 38.55"/><polygon class="cls-3" points="71.2 37.91 71.25 38.81 71.8 39.1 72.37 38.35 71.83 37.71 71.2 37.91"/><polygon class="cls-3" points="72.89 43.37 73.5 44.22 74.05 44.16 74.35 43.26 73.6 42.69 72.89 43.37"/><polygon class="cls-3" points="68.97 41.13 69.17 41.76 69.3 41.83 69.94 41.29 69.6 40.94 68.97 41.13"/><polygon class="cls-3" points="69.43 35.92 69.65 35.16 70.42 35.04 70.55 35.81 69.98 36.21 69.43 35.92"/><polygon class="cls-3" points="57.22 31.48 56.63 30.42 55.28 30.91 55.52 32 56.49 32.53 57.22 31.48"/><polygon class="cls-3" points="61.15 31.64 60.99 30.75 60.41 30.53 59.94 31.35 60.55 31.91 61.15 31.64"/><polygon class="cls-3" points="58.81 26.43 58.11 25.66 57.56 25.78 57.37 26.71 58.19 27.19 58.81 26.43"/><polygon class="cls-3" points="62.97 28.18 62.7 27.57 62.56 27.52 61.99 28.14 62.37 28.45 62.97 28.18"/><polygon class="cls-3" points="63.15 33.4 63.02 34.19 62.27 34.4 62.05 33.65 62.56 33.18 63.15 33.4"/><polygon class="cls-3" points="36.85 90.23 34.99 89.98 34.34 92.1 35.92 92.81 37.47 92.12 36.85 90.23"/><polygon class="cls-3" points="40.72 85.53 39.47 84.89 38.65 85.41 39.22 86.76 40.49 86.52 40.72 85.53"/><polygon class="cls-3" points="32.09 83.56 30.48 83.72 30.13 84.51 31.1 85.61 32.45 85.04 32.09 83.56"/><polygon class="cls-3" points="38.13 80.05 37.13 79.82 36.93 79.95 37.16 81.23 37.9 81.05 38.13 80.05"/><polygon class="cls-3" points="44.75 84.7 45.59 85.59 45.16 86.72 44.04 86.28 43.93 85.21 44.75 84.7"/><polygon class="cls-3" points="59.8 97.51 58.25 98.56 59.17 100.58 60.82 100.05 61.52 98.5 59.8 97.51"/><polygon class="cls-3" points="59.56 91.42 58.2 91.78 57.93 92.71 59.25 93.34 60.05 92.32 59.56 91.42"/><polygon class="cls-3" points="51.81 95.7 50.72 96.89 50.98 97.72 52.43 97.88 53.06 96.56 51.81 95.7"/><polygon class="cls-3" points="53.98 89.06 53.08 89.56 53.02 89.79 54.04 90.58 54.47 89.95 53.98 89.06"/><polygon class="cls-3" points="62.01 88.12 63.23 88.23 63.66 89.35 62.53 89.78 61.74 89.05 62.01 88.12"/><polygon class="cls-3" points="64.91 68.24 66.33 67 65.17 65.11 63.59 65.83 63.09 67.45 64.91 68.24"/><polygon class="cls-3" points="65.89 74.25 67.2 73.72 67.35 72.77 65.96 72.31 65.3 73.42 65.89 74.25"/><polygon class="cls-3" points="73.07 69.06 74.01 67.75 73.65 66.96 72.19 66.97 71.72 68.36 73.07 69.06"/><polygon class="cls-3" points="71.72 75.92 72.55 75.32 72.58 75.08 71.47 74.41 71.12 75.09 71.72 75.92"/><polygon class="cls-3" points="63.86 77.82 62.63 77.86 62.07 76.8 63.13 76.24 64.01 76.87 63.86 77.82"/><polygon class="cls-3" points="79.97 68.04 78.16 67.53 77.22 69.54 78.69 70.46 80.32 69.99 79.97 68.04"/><polygon class="cls-3" points="84.46 63.92 83.31 63.12 82.43 63.51 82.8 64.93 84.09 64.87 84.46 63.92"/><polygon class="cls-3" points="76.19 60.77 74.57 60.7 74.11 61.44 74.92 62.66 76.34 62.29 76.19 60.77"/><polygon class="cls-3" points="82.65 58.13 81.7 57.77 81.48 57.87 81.53 59.16 82.29 59.09 82.65 58.13"/><polygon class="cls-3" points="88.56 63.66 89.27 64.66 88.69 65.71 87.64 65.13 87.68 64.06 88.56 63.66"/><polygon class="cls-3" points="101.69 78.44 100 79.27 100.63 81.39 102.34 81.11 103.25 79.67 101.69 78.44"/><polygon class="cls-3" points="102.29 72.38 100.89 72.55 100.5 73.43 101.72 74.24 102.65 73.34 102.29 72.38"/><polygon class="cls-3" points="94.02 75.54 92.77 76.56 92.92 77.42 94.33 77.79 95.14 76.57 94.02 75.54"/><polygon class="cls-3" points="97.09 69.27 96.14 69.63 96.04 69.85 96.94 70.78 97.45 70.22 97.09 69.27"/><polygon class="cls-3" points="105.18 69.46 106.37 69.73 106.64 70.9 105.47 71.17 104.78 70.34 105.18 69.46"/><polygon class="cls-3" points="110.82 50.17 112.4 49.14 111.52 47.11 109.85 47.6 109.13 49.14 110.82 50.17"/><polygon class="cls-3" points="110.96 56.26 112.32 55.92 112.6 55 111.3 54.34 110.48 55.35 110.96 56.26"/><polygon class="cls-3" points="118.78 52.12 119.9 50.96 119.65 50.13 118.2 49.93 117.55 51.24 118.78 52.12"/><polygon class="cls-3" points="116.49 58.72 117.39 58.24 117.47 58.01 116.46 57.2 116.02 57.82 116.49 58.72"/><polygon class="cls-3" points="108.44 59.51 107.22 59.38 106.81 58.25 107.95 57.84 108.72 58.59 108.44 59.51"/><polygon points="25.03 8.63 7 21.36 13.89 41.96 36.17 41.96 43.05 21.36 25.03 8.63"/><polygon class="cls-3" points="25.77 32.22 25.77 30.05 27.07 30.48 27.07 30.05 25.77 29.18 26.42 28.32 26.93 28.66 26.93 28.98 27.91 29.64 28.56 29.64 28.56 28.98 27.91 28 27.58 28 27.05 27.48 27.07 27.45 28.37 27.02 29.24 28.75 29.67 28.75 29.24 27.02 30.97 26.59 31.83 27.45 34 27.02 34.43 26.15 34 25.29 31.83 24.86 30.97 25.72 29.24 25.29 29.67 23.56 29.24 23.56 28.37 25.29 27.2 24.9 27.02 24.79 26.95 24.69 27.42 23.92 28.07 23.92 28.72 22.94 28.56 22.45 28.07 22.28 27.09 22.94 27.09 23.59 26.42 23.99 25.77 23.12 27.07 22.26 27.07 21.82 25.77 22.26 25.77 20.09 26.21 19.66 25.77 17.5 24.91 16.63 24.04 17.5 23.61 19.66 24.04 20.09 23.61 22.26 22.74 21.82 22.74 22.26 23.61 23.12 23.31 23.73 23.01 23.43 23.01 23.1 22.03 22.45 21.37 22.45 21.37 23.1 22.03 24.08 22.35 24.08 22.8 24.75 22.74 24.86 21.01 25.29 20.14 24.42 19.71 24.42 20.14 25.29 18.41 25.72 17.55 24.86 15.38 25.29 14.95 26.15 15.38 27.02 17.55 27.45 18.41 26.59 20.14 27.02 19.71 27.89 20.14 27.89 21.01 27.02 22.45 27.38 22.76 27.48 22.8 27.58 22.35 28.33 21.7 28.33 21.05 29.31 21.21 29.8 21.7 29.96 22.68 29.31 22.68 28.66 23.19 28.35 23.61 29.18 22.74 30.05 22.74 30.48 23.61 30.05 24.04 32.22 23.61 32.65 24.04 34.81 24.91 35.68 25.77 34.81 26.21 32.65 25.77 32.22"/><polygon points="46.41 36.96 40.05 41.91 43.59 48.97 49.23 51.09 57 46.85 59.05 40.23 53.05 35.96 46.41 36.96"/><polygon points="60.05 37.96 53.05 43.91 56.59 50.97 62.23 53.09 70 48.85 72.06 42.23 67.18 38.96 60.05 37.96"/><polygon points="71.41 38.96 65.06 43.91 68.59 50.97 74.23 53.09 82 48.85 84.06 42.23 78.06 36.96 71.41 38.96"/><polygon points="85.42 36.96 77.06 43.47 81.7 52.76 89.13 55.55 99.35 49.97 102.06 41.26 95.64 36.96 85.42 36.96"/><polygon points="51.41 83.96 46.05 88.13 49.03 94.07 53.78 95.86 60.33 92.29 62.05 86.71 57.95 83.96 51.41 83.96"/><polygon points="61.41 82.96 56.05 87.13 59.03 93.07 63.78 94.86 70.33 91.29 72.06 85.71 67.95 82.96 61.41 82.96"/><polygon points="69.41 83.96 64.06 88.13 67.03 94.07 71.78 95.86 78.33 92.29 80.06 86.71 75.95 83.96 69.41 83.96"/><polygon points="80.41 82.96 75.06 87.13 78.03 93.07 82.78 94.86 89.33 91.29 91.06 85.71 86.95 82.96 80.41 82.96"/><polygon class="cls-3" points="44.34 39.96 37.05 52.11 40.7 71.53 45.55 54.53 55.27 44.82 52.84 39.96 44.34 39.96"/><polygon class="cls-3" points="86.84 39.96 81.98 52.11 88.06 71.53 92.91 55.75 98.98 44.82 94.13 39.96 86.84 39.96"/><polygon class="cls-3" points="51.63 90.96 49.2 80.03 50.41 72.75 54.05 80.03 58.91 87.32 55.27 90.96 51.63 90.96"/><polygon class="cls-3" points="77.13 88.53 80.77 80.03 81.98 72.75 85.63 80.03 84.41 89.75 79.56 90.96 77.13 88.53"/><polygon class="cls-4" points="90.48 43.61 88.06 50.89 88.06 65.46 83.2 52.11 86.84 43.61 90.48 43.61"/><polygon class="cls-4" points="47.98 42.39 40.7 53.32 40.7 61.82 37.87 53.53 44.34 42.39 47.98 42.39"/><polygon class="cls-4" points="51.63 80.03 55.27 88.53 51.63 88.53 51.63 80.03"/><polygon class="cls-4" points="81.98 81.25 78.34 87.32 80.77 88.53 81.98 81.25"/><polygon class="cls-3" points="60.05 43.96 56.05 51.96 58.05 59.96 62.05 51.96 67.06 44.96 63.05 43.96 60.05 43.96"/><polygon class="cls-3" points="71.06 44.96 68.06 51.96 71.06 61.96 74.06 52.96 77.06 45.96 74.06 43.96 71.06 44.96"/><polygon class="cls-3" points="74.06 88.96 72.06 78.96 69.06 87.96 71.06 90.96 74.06 88.96"/><polygon class="cls-3" points="61.05 86.96 62.05 77.96 66.06 86.96 64.06 89.96 61.05 86.96"/><polygon class="cls-4" points="71.06 45.96 70.06 51.96 71.06 58.96 69.06 51.96 71.06 45.96"/><polygon class="cls-4" points="61.05 44.96 59.05 51.96 58.05 56.96 57.05 51.96 61.05 44.96"/><polygon class="cls-4" points="62.05 81.96 64.06 88.96 62.05 86.96 62.05 81.96"/><polygon class="cls-4" points="72.06 82.96 71.06 89.96 70.06 87.96 72.06 82.96"/></g></g></svg>