<svg xmlns="http://www.w3.org/2000/svg" viewBox="0 0 124.72 189.38"><defs><style>.cls-1{fill:#51666d;}.cls-2,.cls-4{fill:#fff;}.cls-2{stroke:#000;stroke-miterlimit:10;stroke-width:1.86px;}.cls-3{fill:#aa2c1b;}</style></defs><title>Element 8</title><g id="Ebene_2" data-name="Ebene 2"><g id="Ebene_1-2" data-name="Ebene 1"><path d="M124.72,178.58V11.34A11.37,11.37,0,0,0,113.39,0h-102A11.37,11.37,0,0,0,0,11.34V178.58a11.38,11.38,0,0,0,7.89,10.8H116.83A11.38,11.38,0,0,0,124.72,178.58Z"/><path class="cls-1" d="M120.05,172.29V17.59A10.52,10.52,0,0,0,109.56,7.1H15.16A10.52,10.52,0,0,0,4.67,17.59V172.29a10.53,10.53,0,0,0,7.3,10H112.75A10.53,10.53,0,0,0,120.05,172.29Z"/><rect class="cls-2" x="93.97" y="110.88" width="15.81" height="15.81" transform="translate(113.83 -37.25) rotate(45)"/><rect x="100.21" y="113.19" width="3.33" height="10.56"/><rect x="100.21" y="113.19" width="3.33" height="10.56" transform="translate(-16.6 220.35) rotate(-90)"/><polygon class="cls-2" points="12.26 128.36 24.55 109.85 36.85 128.36 12.26 128.36"/><polygon points="25.8 121.84 25.8 115.01 24.55 112.11 23.31 115.01 23.31 121.84 21.45 121.84 21.45 122.67 23.93 123.29 23.93 124.94 23.31 125.67 23.93 126.39 24.55 127.01 25.17 126.39 25.8 125.67 25.17 124.94 25.17 123.29 27.66 122.67 27.66 121.84 25.8 121.84"/><rect class="cls-2" x="54.76" y="110.4" width="17.39" height="17.39" transform="translate(182.55 55.64) rotate(90)"/><polygon points="58.17 114.44 68.88 114.44 68.11 120.55 63.53 124.37 58.94 120.55 58.17 114.44"/><polygon points="31.68 44.96 60.92 44.96 87.45 42.92 83.64 88.32 63.82 101.91 41.33 90.87 31.68 44.96"/><polygon class="cls-3" points="43.07 51.45 50.01 86.44 63.82 94.84 78.63 84.7 43.07 51.45"/><polygon points="29.48 62.4 38.05 91.51 25.68 65.2 29.48 62.4"/><polygon points="88.96 63.23 85.19 93.28 93.06 65.42 88.96 63.23"/><polygon points="39.05 41.96 87.06 39.96 44.05 32.96 39.05 41.96"/><polygon points="25.03 9.63 7 22.36 13.89 42.96 36.17 42.96 43.05 22.36 25.03 9.63"/><polygon class="cls-4" points="17.05 27.96 18.05 22.96 25.05 21.96 28.05 25.96 27.05 26.96 24.05 24.96 21.05 25.96 21.05 28.96 18.05 29.96 17.05 27.96"/><polygon class="cls-4" points="32.05 22.96 29.05 23.96 29.05 26.96 33.05 25.96 32.05 22.96"/><polygon class="cls-4" points="28.05 27.96 32.05 27.96 32.05 29.96 29.05 30.96 28.05 27.96"/><polygon class="cls-4" points="27.05 21.96 28.05 23.96 31.05 21.96 29.05 19.96 27.05 21.96"/><polygon class="cls-4" points="28.05 31.96 31.05 31.96 30.05 33.96 28.05 33.96 28.05 31.96"/><polygon points="94.56 22.96 93.06 34.96 102.06 24.46 94.56 22.96"/><polygon points="98.06 57.96 107.06 57.96 104.06 62.96 98.06 57.96"/><polygon points="101.06 38.96 96.06 42.96 101.06 41.96 101.06 38.96"/></g></g></svg>