<svg xmlns="http://www.w3.org/2000/svg" viewBox="0 0 124.72 189.38"><defs><style>.cls-1{fill:#51666d;}.cls-2{fill:#fe9;}.cls-3,.cls-4,.cls-5{fill:#fff;}.cls-4,.cls-5{stroke:#000;stroke-miterlimit:10;}.cls-4{stroke-width:1.86px;}.cls-5{stroke-width:2px;}</style></defs><title>Element 36</title><g id="Ebene_2" data-name="Ebene 2"><g id="Ebene_1-2" data-name="Ebene 1"><path d="M124.72,178.58V11.34A11.37,11.37,0,0,0,113.39,0h-102A11.37,11.37,0,0,0,0,11.34V178.58a11.38,11.38,0,0,0,7.89,10.8H116.83A11.38,11.38,0,0,0,124.72,178.58Z"/><path class="cls-1" d="M120.05,172.29V17.59A10.52,10.52,0,0,0,109.56,7.1H15.16A10.52,10.52,0,0,0,4.67,17.59V172.29a10.53,10.53,0,0,0,7.3,10H112.75A10.53,10.53,0,0,0,120.05,172.29Z"/><polygon points="59.75 44.17 57.77 50.11 40.63 55.38 32.71 67.91 32.05 83.07 43.92 98.24 67.66 101.53 86.78 92.96 89.42 73.84 80.19 56.04 82.82 49.45 86.78 48.79 91.4 42.85 92.06 37.58 84.8 29.01 71.61 24.39 59.09 26.37 55.13 35.6 57.11 42.19 59.75 44.17"/><polygon class="cls-2" points="57.77 35.6 61.73 29.01 70.96 27.69 80.85 29.67 81.51 29.01 70.96 25.71 60.41 27.03 57.11 34.28 57.77 35.6"/><polygon class="cls-2" points="63.7 34.94 59.09 49.45 62.38 48.13 68.32 32.96 66.34 32.96 63.7 34.94"/><polygon class="cls-3" points="34.69 70.55 34.03 81.09 45.24 95.6 67 98.9 84.8 90.98 86.12 85.71 76.23 76.48 55.79 69.23 41.29 66.59 34.69 70.55"/><rect class="cls-4" x="93.97" y="110.88" width="15.81" height="15.81" transform="translate(113.83 -37.25) rotate(45)"/><rect x="100.21" y="113.19" width="3.33" height="10.56"/><rect x="100.21" y="113.19" width="3.33" height="10.56" transform="translate(-16.6 220.35) rotate(-90)"/><polygon class="cls-4" points="12.26 128.36 24.55 109.85 36.85 128.36 12.26 128.36"/><polygon points="25.8 121.84 25.8 115.01 24.55 112.11 23.31 115.01 23.31 121.84 21.45 121.84 21.45 122.67 23.93 123.29 23.93 124.94 23.31 125.67 23.93 126.39 24.55 127.01 25.17 126.39 25.8 125.67 25.17 124.94 25.17 123.29 27.66 122.67 27.66 121.84 25.8 121.84"/><rect class="cls-4" x="54.76" y="110.4" width="17.39" height="17.39" transform="translate(182.55 55.64) rotate(90)"/><polygon points="58.17 114.44 68.88 114.44 68.11 120.55 63.53 124.37 58.94 120.55 58.17 114.44"/><polygon points="25.03 9.58 7 22.31 13.89 42.91 36.17 42.91 43.05 22.31 25.03 9.58"/><path class="cls-3" d="M22.06,12"/><polygon class="cls-3" points="16.55 18.46 24.55 24.46 22.55 25.46 16.55 18.46"/><polygon class="cls-3" points="23.41 13.77 26.29 23.35 24.09 22.97 23.41 13.77"/><polygon class="cls-3" points="28.81 15.8 27.18 25.67 25.37 24.35 28.81 15.8"/><polygon class="cls-3" points="12.37 29.13 21.93 26.21 21.56 28.41 12.37 29.13"/><polygon class="cls-3" points="10.35 21.91 20.27 23.15 19.03 25.01 10.35 21.91"/><polygon class="cls-3" points="16.94 37.59 21.19 28.54 22.57 30.29 16.94 37.59"/><polygon class="cls-3" points="37.73 23.75 28.19 26.76 28.55 24.55 37.73 23.75"/><polygon class="cls-3" points="32.45 18.51 27.64 27.28 26.37 25.44 32.45 18.51"/><polygon class="cls-3" points="34.86 34.08 26.34 28.85 28.24 27.67 34.86 34.08"/><polygon class="cls-3" points="30.97 39.04 23.99 31.88 26.12 31.2 30.97 39.04"/><polygon class="cls-3" points="23.04 41.25 23.26 31.26 25.24 32.3 23.04 41.25"/><polygon class="cls-5" points="25.05 19.96 18.05 24.7 23.05 34.96 25.05 34.96 27.05 34.96 32.05 24.7 25.05 19.96"/><polygon class="cls-2" points="62.05 53.96 52.05 55.96 43.05 60.96 38.05 64.96 42.05 58.96 51.05 53.96 62.05 53.96"/><polygon class="cls-3" points="71.48 56.78 71.48 61.03 66.86 58.9 66.36 62.96 70.98 64.96 70.36 69.28 74.36 71.03 75.73 66.59 78.48 68.4 79.36 63.9 75.98 62.15 75.73 59.46 71.48 56.78"/></g></g></svg>