<svg xmlns="http://www.w3.org/2000/svg" viewBox="0 0 124.72 189.38"><defs><style>.cls-1{fill:#51666d;}.cls-2,.cls-3{fill:#fff;}.cls-2{stroke:#000;stroke-miterlimit:10;stroke-width:1.86px;}.cls-4{fill:#216d5e;}</style></defs><title>Element 43</title><g id="Ebene_2" data-name="Ebene 2"><g id="Ebene_1-2" data-name="Ebene 1"><path d="M124.72,178.58V11.34A11.37,11.37,0,0,0,113.39,0h-102A11.37,11.37,0,0,0,0,11.34V178.58a11.38,11.38,0,0,0,7.89,10.8H116.83A11.38,11.38,0,0,0,124.72,178.58Z"/><path class="cls-1" d="M120.05,172.62V17.91A10.52,10.52,0,0,0,109.56,7.42H15.16A10.52,10.52,0,0,0,4.67,17.91V172.62a10.53,10.53,0,0,0,7.3,10H112.75A10.53,10.53,0,0,0,120.05,172.62Z"/><rect class="cls-2" x="93.97" y="110.88" width="15.81" height="15.81" transform="translate(113.83 -37.25) rotate(45)"/><rect x="100.21" y="113.19" width="3.33" height="10.56"/><rect x="100.21" y="113.19" width="3.33" height="10.56" transform="translate(-16.6 220.35) rotate(-90)"/><polygon class="cls-2" points="12.26 128.36 24.55 109.85 36.85 128.36 12.26 128.36"/><polygon points="25.8 121.84 25.8 115.01 24.55 112.11 23.31 115.01 23.31 121.84 21.45 121.84 21.45 122.67 23.93 123.29 23.93 124.94 23.31 125.67 23.93 126.39 24.55 127.01 25.17 126.39 25.8 125.67 25.17 124.94 25.17 123.29 27.66 122.67 27.66 121.84 25.8 121.84"/><polygon points="25.05 9.58 7.03 22.31 13.91 42.91 36.2 42.91 43.08 22.31 25.05 9.58"/><polygon class="cls-3" points="35.08 28.91 34.08 22.91 32.08 20.91 31.08 18.91 31.08 21.91 30.08 24.91 28.08 24.91 29.08 23.91 28.08 22.91 26.08 20.91 27.08 19.91 28.08 19.91 29.08 21.91 29.08 19.91 27.08 18.91 25.08 19.91 23.08 18.91 21.08 19.91 21.08 21.91 22.08 19.91 23.08 19.91 24.08 20.91 22.08 22.91 21.08 23.91 22.08 24.91 20.08 24.91 19.08 21.91 19.08 18.91 18.08 20.91 16.08 22.91 15.08 28.91 17.08 33.91 17.08 30.91 20.08 29.91 20.08 30.91 23.08 28.91 23.08 30.91 22.08 33.91 24.08 31.91 25.08 30.91 26.08 31.91 28.08 33.91 27.08 30.91 27.08 28.91 30.08 30.91 30.08 29.91 33.08 30.91 33.08 33.91 35.08 28.91"/><rect class="cls-2" x="54.76" y="110.4" width="17.39" height="17.39" transform="translate(182.55 55.64) rotate(90)"/><polygon points="58.17 114.44 68.88 114.44 68.11 120.55 63.53 124.37 58.94 120.55 58.17 114.44"/><polygon points="73.34 53.7 48.17 54.37 24.55 58.54 15.68 66.87 5.34 68.87 8.68 80.37 26.84 89.37 30.51 97.87 75.34 99.54 95.51 92.87 117.01 94.69 120.05 85.54 120.05 73.54 108.17 66.87 103.54 58.37 73.34 53.7"/><polygon class="cls-4" points="22.7 68.06 44.46 69.79 48.12 73.96 73.36 77.3 93.29 76.34 115.05 80.87 100.83 73.96 93.11 70.86 84.33 71.69 75.92 69.19 61.65 69.19 49.22 66.09 22.7 68.06"/><path class="cls-3" d="M56.09,73.87l-3-3.83,1.5-5.67S58.76,62,59,62s3.35-5.17,3.35-5.17l-.52-6.17.85-6,.81,5.67,2.92,4L68.09,61l-2.5,6.83L70,65.45l.75-5.33-1.25-5.75,2.25-3.5-.5,3.5.83,4.42,2.58,4.33v7l-4,5.75-.24,1-14-1.85Z"/><polygon class="cls-3" points="48.26 71.2 45.17 66.11 46.37 60.12 48.26 54.54 45.92 49.12 45.42 43.95 42.76 49.12 42.09 54.2 44.42 57.58 43.84 63.29 44.09 66.62 48.26 71.2"/><polygon class="cls-3" points="89.97 76.5 88.72 72.83 89.97 67.83 93.72 64.2 96.09 58.33 97.09 52.33 98.09 58.33 96.34 65.33 99.59 64.42 102.47 60.76 106.34 58.45 111.72 59.95 107.09 59.7 104.47 61.62 103.84 66.09 101.34 71.2 95.84 73.48 93.29 76.34 89.97 76.5"/><polygon class="cls-3" points="66.97 48.95 64.97 42.91 65.97 37.95 70.72 34.95 73.47 31.2 72.22 37.2 69.22 40.08 66.97 42.91 66.97 48.95"/><polygon class="cls-4" points="71.84 76.5 72.22 80.87 66.72 83.33 60.22 83.33 56.84 86.95 63.88 89.95 60.22 92.83 65.76 89.95 59.09 87.08 61.09 84.67 68.88 84.67 74.67 81.95 74.67 75.95 71.84 76.5"/><polygon class="cls-4" points="40.8 66.72 35.08 65.2 38.72 64.42 37.94 62.33 37.94 63.7 32.22 64.52 37.81 66.94 40.8 66.72"/><polygon class="cls-4" points="58.88 84.77 55.47 84.77 53.09 82.83 48.26 82.83 43.97 84.77 48.4 83.27 52.69 83.33 55.03 85.39 58.3 85.39 58.88 84.77"/><polygon class="cls-3" points="76.72 53.7 75.97 42.91 80.34 36.83 83.72 27.7 80.47 14.95 85.47 23.58 86.34 35.98 84.34 42.91 89.84 40.08 89.84 33.2 93.34 28.2 91.72 33.08 91.84 40.08 89.84 47.58 81.84 53.7 77.97 62.86 76.72 53.7"/></g></g></svg>