<svg xmlns="http://www.w3.org/2000/svg" viewBox="0 0 124.72 189.38"><defs><style>.cls-1{fill:#51666d;}.cls-2,.cls-3{fill:#fff;}.cls-2{stroke:#000;stroke-miterlimit:10;stroke-width:1.86px;}.cls-4{fill:#5fffef;}</style></defs><title>Element 14</title><g id="Ebene_2" data-name="Ebene 2"><g id="Ebene_1-2" data-name="Ebene 1"><path d="M124.72,178.58V11.34A11.37,11.37,0,0,0,113.39,0h-102A11.37,11.37,0,0,0,0,11.34V178.58a11.38,11.38,0,0,0,7.89,10.8H116.83A11.38,11.38,0,0,0,124.72,178.58Z"/><path class="cls-1" d="M120.05,172.29V17.59A10.52,10.52,0,0,0,109.56,7.1H15.16A10.52,10.52,0,0,0,4.67,17.59V172.29a10.53,10.53,0,0,0,7.3,10H112.75A10.53,10.53,0,0,0,120.05,172.29Z"/><rect class="cls-2" x="93.97" y="110.88" width="15.81" height="15.81" transform="translate(113.83 -37.25) rotate(45)"/><rect x="100.21" y="113.19" width="3.33" height="10.56"/><rect x="100.21" y="113.19" width="3.33" height="10.56" transform="translate(-16.6 220.35) rotate(-90)"/><polygon class="cls-2" points="12.26 128.36 24.55 109.85 36.85 128.36 12.26 128.36"/><polygon points="25.8 121.84 25.8 115.01 24.55 112.11 23.31 115.01 23.31 121.84 21.45 121.84 21.45 122.67 23.93 123.29 23.93 124.94 23.31 125.67 23.93 126.39 24.55 127.01 25.17 126.39 25.8 125.67 25.17 124.94 25.17 123.29 27.66 122.67 27.66 121.84 25.8 121.84"/><rect class="cls-2" x="54.76" y="110.4" width="17.39" height="17.39" transform="translate(182.55 55.64) rotate(90)"/><polygon points="58.17 114.44 68.88 114.44 68.11 120.55 63.53 124.37 58.94 120.55 58.17 114.44"/><polygon points="25.03 8.63 7 21.36 13.89 41.96 36.17 41.96 43.05 21.36 25.03 8.63"/><polygon class="cls-3" points="25.77 32.22 25.77 30.05 27.07 30.48 27.07 30.05 25.77 29.18 26.42 28.32 26.93 28.66 26.93 28.98 27.91 29.64 28.56 29.64 28.56 28.98 27.91 28 27.58 28 27.05 27.48 27.07 27.45 28.37 27.02 29.24 28.75 29.67 28.75 29.24 27.02 30.97 26.59 31.83 27.45 34 27.02 34.43 26.15 34 25.29 31.83 24.86 30.97 25.72 29.24 25.29 29.67 23.56 29.24 23.56 28.37 25.29 27.2 24.9 27.02 24.79 26.95 24.69 27.42 23.92 28.07 23.92 28.72 22.94 28.56 22.45 28.07 22.28 27.09 22.94 27.09 23.59 26.42 23.99 25.77 23.12 27.07 22.26 27.07 21.82 25.77 22.26 25.77 20.09 26.21 19.66 25.77 17.5 24.91 16.63 24.04 17.5 23.61 19.66 24.04 20.09 23.61 22.26 22.74 21.82 22.74 22.26 23.61 23.12 23.31 23.73 23.01 23.43 23.01 23.1 22.03 22.45 21.37 22.45 21.37 23.1 22.03 24.08 22.35 24.08 22.8 24.75 22.74 24.86 21.01 25.29 20.14 24.42 19.71 24.42 20.14 25.29 18.41 25.72 17.55 24.86 15.38 25.29 14.95 26.15 15.38 27.02 17.55 27.45 18.41 26.59 20.14 27.02 19.71 27.89 20.14 27.89 21.01 27.02 22.45 27.38 22.76 27.48 22.8 27.58 22.35 28.33 21.7 28.33 21.05 29.31 21.21 29.8 21.7 29.96 22.68 29.31 22.68 28.66 23.19 28.35 23.61 29.18 22.74 30.05 22.74 30.48 23.61 30.05 24.04 32.22 23.61 32.65 24.04 34.81 24.91 35.68 25.77 34.81 26.21 32.65 25.77 32.22"/><polygon points="68.18 48.4 77.15 42.79 113.06 25.96 91.74 51.77 79.4 57.38 68.18 48.4"/><polygon class="cls-3" points="102.96 42.79 96.23 49.52 93.98 58.5 100.71 52.89 102.96 42.79"/><polygon class="cls-3" points="81.64 31.57 68.18 37.18 60.32 45.04 71.54 41.67 81.64 31.57"/><polygon class="cls-3" points="86.13 41.67 53.59 52.89 21.05 91.04 64.81 80.94 88.37 48.4 104.08 32.7 86.13 41.67"/><polygon class="cls-4" points="56.96 55.13 31.15 82.06 67.06 59.62 56.96 55.13"/><polygon class="cls-4" points="70.42 60.74 68.18 70.84 85.01 49.52 70.42 60.74"/><polygon class="cls-3" points="60.32 80.94 31.15 94.4 41.25 82.06 60.32 80.94"/></g></g></svg>