<svg xmlns="http://www.w3.org/2000/svg" viewBox="0 0 124.72 189.38"><defs><style>.cls-1{fill:#51666d;}.cls-2,.cls-3{fill:#fff;}.cls-2{stroke:#000;stroke-miterlimit:10;stroke-width:1.86px;}.cls-4{fill:#ef780c;}</style></defs><title>Element 12</title><g id="Ebene_2" data-name="Ebene 2"><g id="Ebene_1-2" data-name="Ebene 1"><path d="M124.72,178.58V11.34A11.37,11.37,0,0,0,113.39,0h-102A11.37,11.37,0,0,0,0,11.34V178.58a11.38,11.38,0,0,0,7.89,10.8H116.83A11.38,11.38,0,0,0,124.72,178.58Z"/><path class="cls-1" d="M120.05,172.29V17.59A10.52,10.52,0,0,0,109.56,7.1H15.16A10.52,10.52,0,0,0,4.67,17.59V172.29a10.53,10.53,0,0,0,7.3,10H112.75A10.53,10.53,0,0,0,120.05,172.29Z"/><rect class="cls-2" x="93.97" y="110.88" width="15.81" height="15.81" transform="translate(113.83 -37.25) rotate(45)"/><rect x="100.21" y="113.19" width="3.33" height="10.56"/><rect x="100.21" y="113.19" width="3.33" height="10.56" transform="translate(-16.6 220.35) rotate(-90)"/><polygon class="cls-2" points="12.26 128.36 24.55 109.85 36.85 128.36 12.26 128.36"/><polygon points="25.8 121.84 25.8 115.01 24.55 112.11 23.31 115.01 23.31 121.84 21.45 121.84 21.45 122.67 23.93 123.29 23.93 124.94 23.31 125.67 23.93 126.39 24.55 127.01 25.17 126.39 25.8 125.67 25.17 124.94 25.17 123.29 27.66 122.67 27.66 121.84 25.8 121.84"/><rect class="cls-2" x="54.76" y="110.4" width="17.39" height="17.39" transform="translate(182.55 55.64) rotate(90)"/><polygon points="58.17 114.44 68.88 114.44 68.11 120.55 63.53 124.37 58.94 120.55 58.17 114.44"/><polygon points="25.03 8.63 7 21.36 13.89 41.96 36.17 41.96 43.05 21.36 25.03 8.63"/><polygon class="cls-3" points="26.22 20.63 22.89 23.13 22.05 27.3 23.72 29.8 21.22 28.96 19.55 25.63 17.05 23.96 17.89 26.46 17.89 28.96 19.55 32.3 24.55 33.96 30.39 33.13 32.05 30.63 32.05 27.3 30.39 25.63 30.39 23.96 28.72 25.63 28.72 28.13 27.05 25.63 27.05 23.13 27.89 20.63 27.05 18.13 26.22 20.63"/><polygon class="cls-4" points="95.06 57.96 103.06 60.96 105.06 64.96 107.06 61.96 114.06 58.96 110.06 62.96 110.06 67.96 113.06 73.96 110.06 77.96 107.06 83.96 100.06 86.96 106.06 88.96 109.06 92.96 108.06 95.96 111.06 99.96 106.06 96.96 104.06 93.96 102.06 91.96 91.06 92.96 85.06 95.96 78.06 95.96 83.06 99.96 74.06 96.96 70.06 95.96 63.05 96.96 57.05 99.96 49.05 99.96 45.05 96.96 50.05 97.96 54.05 96.96 53.05 93.96 47.05 92.96 38.05 91.96 31.05 88.96 25.05 87.96 21.05 88.96 19.05 89.96 19.05 86.96 22.05 83.96 29.05 83.96 28.05 79.96 23.05 77.96 21.05 70.96 25.05 67.96 25.05 63.96 22.05 61.96 26.05 60.96 31.05 62.96 33.05 58.96 42.05 55.96 52.05 55.96 61.05 52.96 61.05 49.96 65.06 50.96 67.06 53.96 69.06 55.96 76.06 56.96 80.06 54.96 89.06 53.96 97.06 54.96 94.06 55.96 95.06 57.96"/><polygon points="37.05 73.96 45.05 76.96 56.05 76.96 59.05 74.96 59.05 79.96 47.05 81.96 37.05 81.96 57.05 88.96 76.06 85.96 74.06 88.96 92.06 81.96 90.06 73.96 93.06 73.96 97.06 68.96 93.06 65.96 82.06 64.96 78.06 62.96 83.06 62.96 86.06 61.96 71.06 60.96 58.05 62.96 51.05 62.96 57.05 60.96 44.05 60.96 36.05 65.96 33.05 69.96 37.05 73.96"/><polygon class="cls-3" points="109.06 71.96 109.06 76.96 106.06 79.96 102.06 81.96 98.06 83.96 100.06 80.96 103.06 77.96 105.06 73.96 105.06 70.96 108.06 66.96 109.06 71.96"/><polygon class="cls-3" points="33.05 64.96 30.05 69.96 33.05 73.96 42.05 76.96 51.05 77.96 43.05 77.96 34.05 76.96 34.05 79.96 32.05 76.96 28.05 72.96 28.05 69.96 33.05 64.96"/><polygon class="cls-3" points="55.05 91.96 58.05 92.96 58.05 96.96 55.05 98.96 60.05 96.96 61.05 93.96 66.06 91.96 70.06 91.96 64.06 89.96 59.05 90.96 51.05 89.96 45.05 86.96 52.05 91.96 55.05 91.96"/><polygon class="cls-3" points="96.06 60.96 92.06 57.96 92.06 55.96 93.06 54.96 91.06 55.96 89.06 55.96 84.06 55.96 81.06 56.96 85.06 56.96 90.06 57.96 92.06 59.96 96.06 61.96 100.06 61.96 96.06 60.96"/><polygon class="cls-3" points="63.05 53.96 64.06 54.96 69.06 56.96 72.06 56.96 68.06 57.96 65.06 56.96 63.05 54.96 63.05 53.96"/><polygon class="cls-4" points="57.05 67.96 68.06 65.96 77.06 66.96 72.06 66.96 77.06 69.96 76.06 72.96 71.06 73.96 71.06 75.96 69.06 74.96 65.06 72.96 60.05 73.96 56.05 72.96 53.05 70.96 55.05 70.96 53.05 68.96 57.05 66.96 57.05 67.96"/><polygon class="cls-4" points="83.06 48.96 84.06 40.96 90.06 35.96 95.06 28.96 95.06 22.96 99.06 28.96 97.06 36.96 89.06 41.96 85.06 44.96 83.06 48.96"/><polygon class="cls-4" points="101.06 50.96 107.06 47.96 108.06 43.96 110.06 36.96 114.06 35.96 112.06 38.96 112.06 42.96 113.06 47.96 111.06 51.96 114.06 51.96 116.06 47.96 116.06 44.96 118.06 47.96 118.06 52.96 114.06 55.96 106.06 53.96 100.06 53.96 98.06 56.96 98.06 52.96 101.06 50.96"/><polygon class="cls-4" points="57.05 45.96 56.05 37.96 53.05 35.96 47.05 34.96 46.05 28.96 48.05 24.96 43.05 28.96 43.05 35.96 47.05 39.96 53.05 39.96 57.05 45.96"/><polygon class="cls-4" points="60.05 35.96 62.05 27.96 61.05 21.96 62.05 15.96 66.06 12.96 65.06 15.96 66.06 20.96 68.06 26.96 66.06 31.96 60.05 35.96"/><polygon class="cls-3" points="65.06 19.96 67.56 26.3 65.06 29.96 63.05 31.96 65.06 26.96 65.06 19.96"/><polygon class="cls-3" points="96.06 27.96 96.06 31.96 91.06 36.96 87.06 39.96 93.06 37.96 97.06 33.96 96.06 27.96"/><polygon class="cls-3" points="111.06 44.96 111.06 48.96 109.06 51.96 112.06 53.96 115.06 53.96 112.06 54.96 106.06 52.96 102.06 52.96 108.06 49.96 111.06 44.96"/><polygon class="cls-3" points="44.05 31.96 46.05 36.96 48.05 37.96 53.05 38.96 47.05 38.96 45.05 36.96 44.05 31.96"/><polygon class="cls-4" points="32.05 53.96 28.05 47.96 21.05 46.96 16.05 48.96 11.05 45.96 10.05 43.96 9.05 47.96 14.05 51.96 21.05 51.96 28.05 50.96 32.05 53.96"/><polygon class="cls-3" points="16.05 49.96 20.05 47.96 27.05 48.96 20.05 48.96 16.05 49.96"/></g></g></svg>