<svg xmlns="http://www.w3.org/2000/svg" viewBox="0 0 124.72 189.38"><defs><style>.cls-1{fill:#51666d;}.cls-2,.cls-3{fill:#fff;}.cls-2{stroke:#000;stroke-miterlimit:10;stroke-width:1.86px;}.cls-4{fill:#7d4ba3;}</style></defs><title>Element 33</title><g id="Ebene_2" data-name="Ebene 2"><g id="Ebene_1-2" data-name="Ebene 1"><path d="M124.72,178.58V11.34A11.37,11.37,0,0,0,113.39,0h-102A11.37,11.37,0,0,0,0,11.34V178.58a11.38,11.38,0,0,0,7.9,10.8H116.83A11.38,11.38,0,0,0,124.72,178.58Z"/><path class="cls-1" d="M120.66,173.36V18.65A10.52,10.52,0,0,0,110.17,8.16H15.78A10.52,10.52,0,0,0,5.29,18.65V173.36a10.53,10.53,0,0,0,7.3,10H113.36A10.53,10.53,0,0,0,120.66,173.36Z"/><rect class="cls-2" x="93.97" y="110.88" width="15.81" height="15.81" transform="translate(113.83 -37.25) rotate(45)"/><rect x="100.21" y="113.19" width="3.33" height="10.56"/><rect x="100.21" y="113.19" width="3.33" height="10.56" transform="translate(-16.6 220.35) rotate(-90)"/><rect class="cls-2" x="54.76" y="110.4" width="17.39" height="17.39" transform="translate(182.55 55.64) rotate(90)"/><polygon points="58.17 114.44 68.88 114.44 68.11 120.55 63.53 124.37 58.94 120.55 58.17 114.44"/><polygon class="cls-2" points="12.26 128.36 24.55 109.85 36.85 128.36 12.26 128.36"/><polygon points="25.8 121.84 25.8 115.01 24.55 112.11 23.31 115.01 23.31 121.84 21.45 121.84 21.45 122.67 23.93 123.29 23.93 124.94 23.31 125.67 23.93 126.39 24.55 127.01 25.17 126.39 25.8 125.67 25.17 124.94 25.17 123.29 27.66 122.67 27.66 121.84 25.8 121.84"/><polygon points="25.67 10.04 7.64 22.78 14.53 43.38 36.81 43.38 43.7 22.78 25.67 10.04"/><polygon class="cls-3" points="28.68 20.48 27.05 24.06 27.22 28.45 29.07 31.02 28.94 27.51 30.57 23.93 33.14 22.08 31.32 20.39 28.68 20.48"/><polygon class="cls-3" points="30.19 37.24 26.84 35.14 24.61 31.35 24.84 28.16 26.62 31.18 29.98 33.29 33.22 33.41 32.55 35.85 30.19 37.24"/><polygon class="cls-3" points="21.63 36.81 18.28 34.7 16.05 30.92 16.28 27.72 18.06 30.75 21.42 32.85 24.66 32.98 23.99 35.42 21.63 36.81"/><polygon class="cls-3" points="21.27 19.86 19.2 23.21 18.81 27.59 20.33 30.37 20.64 26.87 22.71 23.52 25.49 22.01 23.9 20.1 21.27 19.86"/><polygon points="66.07 48.14 70.8 49.12 71.9 50.45 67.61 52.43 66.07 48.14"/><path d="M88.77,90.74,70.93,55l6.51-2.81,3.76-.26-4-2.47-8,.8,2.57-.95.55-4.08-2.65-1,.14-3.58L67,39.19l-.1-3-8.1-2.66-1.67.61-.93-.93-2.5-.78-2.94.75L49,35.62,48.91,38s.7.48,1.21.79L47.19,42l-5.53,3.69.86,12.37,3.84,3.8L52.23,61l4.23-2.27,2.16-1.45-3.25,4,.33,5.58,2.16-3.53L62.11,60l21,35.85,7,7.12Z"/><polygon class="cls-4" points="69.97 54.97 88.33 91.02 89.64 101.9 65.55 56.57 69.97 54.97"/><polygon class="cls-4" points="59.35 34.67 65.7 36.82 66.1 38.65 59.35 34.67"/><polygon class="cls-4" points="61.91 38.11 68.95 41.21 68.99 44.24 61.91 38.11"/><polygon class="cls-4" points="63.56 43.08 71 45.94 70.45 48.5 63.56 43.08"/><polygon class="cls-4" points="64.82 46.73 69.86 49.7 67.69 50.28 64.82 46.73"/><polygon class="cls-4" points="69.78 54.5 70.72 54.66 77.11 52.02 80.4 51.85 78.33 50.62 65.89 54.98 69.78 54.5"/><polygon class="cls-4" points="61.77 59.63 57.63 63.2 55.93 66.21 57.13 62.77 61.07 58.65 61.77 59.63"/><polygon points="75.78 65.07 74.05 66.82 76.01 65.81 75.78 65.07"/><polygon points="83.59 80.72 81.7 83.02 83.5 81.57 83.59 80.72"/><polygon points="76.4 66.63 75.02 67.73 76.33 66.99 76.4 66.63"/><polygon points="47.93 60.16 46.21 65.82 41.6 75.67 35.55 67.11 34.89 55.12 36.86 45.95 38.34 42.75 43.18 45.03 47.93 60.16"/><polygon class="cls-4" points="89.49 101.8 87.73 107.51 86.58 109.86 88.54 112.73 90.92 112.83 92.39 109.86 91.14 107.39 89.49 101.8"/><polygon class="cls-3" points="89.33 105.73 87.33 109.73 89.33 111.73 88.33 109.73 89.33 105.73"/></g></g></svg>