<svg xmlns="http://www.w3.org/2000/svg" viewBox="0 0 124.72 189.38"><defs><style>.cls-1{fill:#51666d;}.cls-2,.cls-3{fill:#fff;}.cls-2{stroke:#000;stroke-miterlimit:10;stroke-width:1.86px;}.cls-4{fill:#ffdb45;}</style></defs><title>Element 20</title><g id="Ebene_2" data-name="Ebene 2"><g id="Ebene_1-2" data-name="Ebene 1"><path d="M124.72,178.58V11.34A11.37,11.37,0,0,0,113.39,0h-102A11.37,11.37,0,0,0,0,11.34V178.58a11.38,11.38,0,0,0,7.89,10.8H116.83A11.38,11.38,0,0,0,124.72,178.58Z"/><path class="cls-1" d="M120.05,172.29V17.59A10.52,10.52,0,0,0,109.56,7.1H15.16A10.52,10.52,0,0,0,4.67,17.59V172.29a10.53,10.53,0,0,0,7.3,10H112.75A10.53,10.53,0,0,0,120.05,172.29Z"/><rect class="cls-2" x="93.97" y="110.88" width="15.81" height="15.81" transform="translate(113.83 -37.25) rotate(45)"/><rect x="100.21" y="113.19" width="3.33" height="10.56"/><rect x="100.21" y="113.19" width="3.33" height="10.56" transform="translate(-16.6 220.35) rotate(-90)"/><polygon class="cls-2" points="12.26 128.36 24.55 109.85 36.85 128.36 12.26 128.36"/><polygon points="25.8 121.84 25.8 115.01 24.55 112.11 23.31 115.01 23.31 121.84 21.45 121.84 21.45 122.67 23.93 123.29 23.93 124.94 23.31 125.67 23.93 126.39 24.55 127.01 25.17 126.39 25.8 125.67 25.17 124.94 25.17 123.29 27.66 122.67 27.66 121.84 25.8 121.84"/><rect class="cls-2" x="54.76" y="110.4" width="17.39" height="17.39" transform="translate(182.55 55.64) rotate(90)"/><polygon points="58.17 114.44 68.88 114.44 68.11 120.55 63.53 124.37 58.94 120.55 58.17 114.44"/><polygon points="25.03 8.63 7 21.36 13.89 41.96 36.17 41.96 43.05 21.36 25.03 8.63"/><polygon class="cls-3" points="26.45 20.48 21.14 25.8 25.7 30.36 23.41 37.96 27.21 31.12 24.18 26.56 29.5 21.24 30.25 24.28 32.53 26.56 31.02 31.12 34.05 25.8 31.77 22.76 31.02 18.96 24.93 15.16 20.38 18.96 19.61 22.76 15.05 24.28 15.81 28.08 16.57 25.04 21.14 24.28 22.66 19.72 24.93 18.96 26.45 20.48"/><polygon class="cls-4" points="27.12 60.1 13.05 73 27.12 80.03 28.3 85.89 49.4 87.07 56.43 91.76 70.5 90.58 57.61 90.58 50.57 85.89 32.99 83.55 30.64 77.69 20.09 73 28.3 62.45 37.68 58.93 27.12 60.1"/><polygon class="cls-4" points="18.92 78.86 17.75 83.55 29.47 89.41 34.16 92.93 32.99 96.45 40.02 99.96 30.64 97.62 31.81 92.93 28.3 90.58 14.23 85.89 18.92 78.86"/><polygon class="cls-3" points="65.81 60.1 50.57 61.27 54.09 62.45 37.68 68.31 41.19 68.31 42.37 78.86 45.88 76.52 62.3 82.38 62.3 80.03 75.19 80.03 86.92 75.34 84.57 75.34 90.43 69.48 86.92 69.48 83.4 64.79 82.23 67.14 76.36 61.27 65.81 60.1"/><polygon class="cls-4" points="99.81 85.89 102.93 76.55 103.33 76.52 105.68 73 115.06 68.31 104.5 61.27 110.36 55.41 104.5 53.07 105.68 49.55 102.16 54.24 106.85 56.58 103.33 58.93 93.95 55.41 81.06 54.24 59.95 55.41 70.5 56.58 81.06 56.58 78.71 60.1 83.4 62.45 84.57 64.79 85.75 61.27 81.06 58.93 84.57 56.58 95.12 57.76 100.99 62.45 110.36 68.31 103.33 71.83 100.99 74.17 90.43 75.34 84.57 80.03 90.43 77.69 99.75 76.84 98.64 82.38 90.43 83.55 86.92 90.58 81.06 91.76 88.09 91.76 91.61 85.89 97.47 87.07 100.99 91.76 106.85 91.76 102.16 90.58 99.81 85.89"/><polygon class="cls-4" points="68.16 50.72 71.74 54.76 77.66 54.43 71.68 51.9 72.85 49.55 75.19 48.38 71.68 47.2 65.81 47.2 70.5 48.38 68.16 50.72"/><polygon class="cls-4" points="51.96 52.92 39.16 53.51 30.94 57.15 20.05 57.35 14.32 63.47 18.71 55.63 30.37 54.28 38.77 51.6 51.96 52.92"/><polygon points="65.81 65.96 56.43 68.31 59.95 68.31 58.78 73 61.12 70.65 70.5 73 69.33 70.65 71.68 67.14 69.33 67.14 65.81 65.96"/></g></g></svg>