<svg xmlns="http://www.w3.org/2000/svg" viewBox="0 0 124.72 189.38"><defs><style>.cls-1{fill:#51666d;}.cls-2,.cls-3{fill:#fff;}.cls-2{stroke:#000;stroke-miterlimit:10;stroke-width:1.86px;}.cls-4{fill:#7d4ba3;}</style></defs><title>Element 35</title><g id="Ebene_2" data-name="Ebene 2"><g id="Ebene_1-2" data-name="Ebene 1"><path d="M124.72,178.58V11.34A11.37,11.37,0,0,0,113.39,0h-102A11.37,11.37,0,0,0,0,11.34V178.58a11.38,11.38,0,0,0,7.9,10.8H116.83A11.38,11.38,0,0,0,124.72,178.58Z"/><path class="cls-1" d="M120.66,173.36V18.65A10.52,10.52,0,0,0,110.17,8.16H15.78A10.52,10.52,0,0,0,5.29,18.65V173.36a10.53,10.53,0,0,0,7.3,10H113.36A10.53,10.53,0,0,0,120.66,173.36Z"/><rect class="cls-2" x="93.97" y="110.88" width="15.81" height="15.81" transform="translate(113.83 -37.25) rotate(45)"/><rect x="100.21" y="113.19" width="3.33" height="10.56"/><rect x="100.21" y="113.19" width="3.33" height="10.56" transform="translate(-16.6 220.35) rotate(-90)"/><rect class="cls-2" x="54.76" y="110.4" width="17.39" height="17.39" transform="translate(182.55 55.64) rotate(90)"/><polygon points="58.17 114.44 68.88 114.44 68.11 120.55 63.53 124.37 58.94 120.55 58.17 114.44"/><polygon class="cls-2" points="12.26 128.36 24.55 109.85 36.85 128.36 12.26 128.36"/><polygon points="25.8 121.84 25.8 115.01 24.55 112.11 23.31 115.01 23.31 121.84 21.45 121.84 21.45 122.67 23.93 123.29 23.93 124.94 23.31 125.67 23.93 126.39 24.55 127.01 25.17 126.39 25.8 125.67 25.17 124.94 25.17 123.29 27.66 122.67 27.66 121.84 25.8 121.84"/><polygon points="25.67 10.04 7.64 22.78 14.53 43.38 36.81 43.38 43.7 22.78 25.67 10.04"/><polygon class="cls-3" points="28.68 20.48 27.05 24.06 27.22 28.45 29.07 31.02 28.94 27.51 30.57 23.93 33.14 22.08 31.32 20.39 28.68 20.48"/><polygon class="cls-3" points="30.19 37.24 26.84 35.14 24.61 31.35 24.84 28.16 26.62 31.18 29.98 33.29 33.22 33.41 32.55 35.85 30.19 37.24"/><polygon class="cls-3" points="21.63 36.81 18.28 34.7 16.05 30.92 16.28 27.72 18.06 30.75 21.42 32.85 24.66 32.98 23.99 35.42 21.63 36.81"/><polygon class="cls-3" points="21.27 19.86 19.2 23.21 18.81 27.59 20.33 30.37 20.64 26.87 22.71 23.52 25.49 22.01 23.9 20.1 21.27 19.86"/><polygon class="cls-4" points="55.27 98.33 48.27 99.33 43.27 100.33 38.27 100.33 34.27 101.33 37.27 102.33 43.27 102.33 47.27 104.33 53.27 104.33 56.27 103.33 62.27 104.33 67.27 104.33 71.27 103.33 76.27 104.33 79.27 105.33 82.27 107.33 85.27 107.33 85.27 106.33 83.27 105.33 80.27 104.33 75.27 103.33 74.27 102.33 78.27 102.33 82.27 100.33 86.27 100.33 94.27 100.33 98.27 98.33 96.27 97.33 92.27 96.33 89.27 96.33 88.27 95.33 91.27 95.33 94.27 93.33 96.27 93.33 98.27 92.33 96.27 91.33 92.27 91.33 88.27 91.33 61.77 96.09 55.27 98.33"/><polygon points="72.99 32.29 65.26 33.12 56.94 35.5 55.16 38.47 55.16 41.44 58.13 41.44 60.51 43.82 68.09 70.25 69.88 80.35 67.5 85.11 58.88 90.32 50.86 89.27 47.3 82.73 48.49 80.35 46.7 80.35 44.92 82.14 44.33 89.27 47.3 96.4 55.02 99.37 71.66 99.37 81.65 95.71 88.89 94.61 91.27 87.48 85.92 77.98 81.13 54.91 80.02 38.33 80.39 33.91 72.99 32.29"/><polygon class="cls-3" points="71.27 80.33 77.27 79.33 78.27 80.33 75.27 87.33 69.27 85.33 74.27 85.33 75.27 81.33 71.27 80.33"/><polygon class="cls-3" points="52.83 98.95 48.61 99.55 44.14 100.61 38.74 100.61 36.85 101.11 38.58 101.11 40.05 100.92 43.64 101.11 44.99 101.33 46.17 100.74 47.92 100.14 50.17 99.64 52.14 99.55 52.83 98.95"/></g></g></svg>