<svg xmlns="http://www.w3.org/2000/svg" viewBox="0 0 124.72 189.38"><defs><style>.cls-1{fill:#51666d;}.cls-2,.cls-3{fill:#fff;}.cls-2{stroke:#000;stroke-width:1.86px;}.cls-2,.cls-5{stroke-miterlimit:10;}.cls-4,.cls-5{fill:#7d4ba3;}.cls-5{stroke:#fff;stroke-width:0.87px;}</style></defs><title>Element 32</title><g id="Ebene_2" data-name="Ebene 2"><g id="Ebene_1-2" data-name="Ebene 1"><path d="M124.72,178.58V11.34A11.37,11.37,0,0,0,113.39,0h-102A11.37,11.37,0,0,0,0,11.34V178.58a11.38,11.38,0,0,0,7.9,10.8H116.83A11.38,11.38,0,0,0,124.72,178.58Z"/><path class="cls-1" d="M120.66,173.36V18.65A10.52,10.52,0,0,0,110.17,8.16H15.78A10.52,10.52,0,0,0,5.29,18.65V173.36a10.53,10.53,0,0,0,7.3,10H113.36A10.53,10.53,0,0,0,120.66,173.36Z"/><rect class="cls-2" x="93.97" y="110.88" width="15.81" height="15.81" transform="translate(113.83 -37.25) rotate(45)"/><rect x="100.21" y="113.19" width="3.33" height="10.56"/><rect x="100.21" y="113.19" width="3.33" height="10.56" transform="translate(-16.6 220.35) rotate(-90)"/><rect class="cls-2" x="54.76" y="110.4" width="17.39" height="17.39" transform="translate(182.55 55.64) rotate(90)"/><polygon points="58.17 114.44 68.88 114.44 68.11 120.55 63.53 124.37 58.94 120.55 58.17 114.44"/><polygon class="cls-2" points="12.26 128.36 24.55 109.85 36.85 128.36 12.26 128.36"/><polygon points="25.8 121.84 25.8 115.01 24.55 112.11 23.31 115.01 23.31 121.84 21.45 121.84 21.45 122.67 23.93 123.29 23.93 124.94 23.31 125.67 23.93 126.39 24.55 127.01 25.17 126.39 25.8 125.67 25.17 124.94 25.17 123.29 27.66 122.67 27.66 121.84 25.8 121.84"/><polygon points="25.67 10.04 7.64 22.78 14.53 43.38 36.81 43.38 43.7 22.78 25.67 10.04"/><polygon class="cls-3" points="28.68 20.48 27.05 24.06 27.22 28.45 29.07 31.02 28.94 27.51 30.57 23.93 33.14 22.08 31.32 20.39 28.68 20.48"/><polygon class="cls-3" points="30.19 37.24 26.84 35.14 24.61 31.35 24.84 28.16 26.62 31.18 29.98 33.29 33.22 33.41 32.55 35.85 30.19 37.24"/><polygon class="cls-3" points="21.63 36.81 18.28 34.7 16.05 30.92 16.28 27.72 18.06 30.75 21.42 32.85 24.66 32.98 23.99 35.42 21.63 36.81"/><polygon class="cls-3" points="21.27 19.86 19.2 23.21 18.81 27.59 20.33 30.37 20.64 26.87 22.71 23.52 25.49 22.01 23.9 20.1 21.27 19.86"/><polygon class="cls-4" points="82.64 53.95 77.52 43.7 87.72 35.19 74.46 28.97 59.87 27.72 46.6 32.7 48.68 40.51 41.27 56.44 36.82 97.68 44.84 103.83 65.97 106.31 85.05 96.36 87.72 87.64 82.64 53.95"/><polygon points="81.05 54.46 75.54 43.81 84.49 35.86 72.86 30.05 60.07 28.88 48.44 33.53 50.27 40.83 42.76 56.79 38.85 97.48 45.88 102.14 65.42 104.46 84.18 95.16 86.52 87.02 81.05 54.46"/><polygon class="cls-5" points="62.4 38.19 56.58 39.35 54.08 43.17 57.74 46.33 65.88 45.16 69.37 41.67 67.38 38.19 62.4 38.19"/><polygon class="cls-3" points="42.63 56.79 54.26 60.28 57.74 47.49 55.42 61.44 42.63 56.79"/><polygon class="cls-3" points="61.23 47.49 64.72 59.12 78.67 56.79 63.56 61.44 61.23 47.49"/><polygon class="cls-3" points="49.61 70.74 47.28 99.81 50.77 77.72 49.61 66.09 49.61 70.74"/><polygon class="cls-3" points="65.88 69.58 67.05 96.32 67.05 73.07 68.21 68.42 70.53 73.07 71.7 78.88 71.7 71.91 69.37 63.77 65.88 69.58"/></g></g></svg>