<svg xmlns="http://www.w3.org/2000/svg" viewBox="0 0 124.72 189.38"><defs><style>.cls-1{fill:#51666d;}.cls-2,.cls-4{fill:#fff;}.cls-2{stroke:#000;stroke-miterlimit:10;stroke-width:1.86px;}.cls-3{fill:#b5875d;}.cls-5{fill:#7d4ba3;}</style></defs><title>Element 27</title><g id="Ebene_2" data-name="Ebene 2"><g id="Ebene_1-2" data-name="Ebene 1"><path d="M124.72,178.58V11.34A11.37,11.37,0,0,0,113.39,0h-102A11.37,11.37,0,0,0,0,11.34V178.58a11.38,11.38,0,0,0,7.9,10.8H116.83A11.38,11.38,0,0,0,124.72,178.58Z"/><path class="cls-1" d="M120.66,173.36V18.65A10.52,10.52,0,0,0,110.17,8.16H15.78A10.52,10.52,0,0,0,5.29,18.65V173.36a10.53,10.53,0,0,0,7.3,10H113.36A10.53,10.53,0,0,0,120.66,173.36Z"/><rect class="cls-2" x="93.97" y="110.88" width="15.81" height="15.81" transform="translate(113.83 -37.25) rotate(45)"/><rect x="100.21" y="113.19" width="3.33" height="10.56"/><rect x="100.21" y="113.19" width="3.33" height="10.56" transform="translate(-16.6 220.35) rotate(-90)"/><rect class="cls-2" x="54.76" y="110.4" width="17.39" height="17.39" transform="translate(182.55 55.64) rotate(90)"/><polygon points="58.17 114.44 68.88 114.44 68.11 120.55 63.53 124.37 58.94 120.55 58.17 114.44"/><polygon class="cls-2" points="12.26 128.36 24.55 109.85 36.85 128.36 12.26 128.36"/><polygon points="25.8 121.84 25.8 115.01 24.55 112.11 23.31 115.01 23.31 121.84 21.45 121.84 21.45 122.67 23.93 123.29 23.93 124.94 23.31 125.67 23.93 126.39 24.55 127.01 25.17 126.39 25.8 125.67 25.17 124.94 25.17 123.29 27.66 122.67 27.66 121.84 25.8 121.84"/><polygon points="25.67 10.04 7.64 22.78 14.53 43.38 36.81 43.38 43.7 22.78 25.67 10.04"/><path class="cls-3" d="M8.36,37.44"/><polygon class="cls-4" points="28.68 20.48 27.05 24.06 27.22 28.45 29.07 31.02 28.94 27.51 30.57 23.93 33.14 22.08 31.32 20.39 28.68 20.48"/><polygon class="cls-4" points="30.19 37.24 26.84 35.14 24.61 31.35 24.84 28.16 26.62 31.18 29.98 33.29 33.22 33.41 32.55 35.85 30.19 37.24"/><polygon class="cls-4" points="21.63 36.81 18.28 34.7 16.05 30.92 16.28 27.72 18.06 30.75 21.42 32.85 24.66 32.98 23.99 35.42 21.63 36.81"/><polygon class="cls-4" points="21.27 19.86 19.2 23.21 18.81 27.59 20.33 30.37 20.64 26.87 22.71 23.52 25.49 22.01 23.9 20.1 21.27 19.86"/><polygon class="cls-4" points="98.03 50.12 93.94 39.22 83.05 35.14 70.8 36.5 63.99 32.42 53.09 33.78 44.93 39.22 44.93 44.67 36.76 47.39 31.31 52.84 21.78 56.92 19.06 65.09 20.42 71.9 25.86 75.99 32.67 77.35 31.31 84.16 34.03 90.96 43.56 93.69 57.18 93.69 66.71 99.13 77.6 96.41 84.3 90.96 84.3 81.43 93.94 81.43 99.39 75.99 100.75 67.82 93.94 61.01 98.03 56.92 98.03 50.12"/><polygon points="95.65 51.41 91.9 41.41 81.91 37.66 70.66 38.91 64.42 35.16 54.42 36.41 46.93 41.41 46.93 46.41 39.43 48.91 34.43 53.91 25.69 57.65 23.19 65.15 24.44 71.4 29.43 75.14 35.68 76.39 34.43 82.64 36.93 88.89 45.68 91.39 58.17 91.39 66.92 96.38 76.91 93.89 81.91 88.89 81.91 80.14 91.9 80.14 96.9 75.14 98.15 67.65 91.9 61.4 95.65 57.65 95.65 51.41"/><polygon class="cls-5" points="88.64 46.33 89.89 53.83 86.14 57.58 79.89 57.58 84.89 55.08 86.14 50.08 88.64 46.33"/><polygon class="cls-5" points="31.17 63.82 34.91 67.57 41.16 67.57 38.66 62.57 41.16 58.83 42.41 62.57 47.41 66.32 54.91 66.32 47.41 68.82 44.91 68.82 42.41 71.32 34.91 73.82 29.92 71.32 28.67 66.32 31.17 63.82"/><polygon class="cls-5" points="61.15 81.31 64.9 85.06 72.4 85.06 78.64 81.31 77.39 88.81 71.15 91.31 61.15 88.81 61.15 81.31"/><polygon class="cls-5" points="43.66 85.06 48.66 86.31 58.65 85.06 52.41 88.81 47.41 88.81 43.66 85.06"/><polygon class="cls-5" points="54.91 40.08 61.15 37.59 67.4 40.08 72.4 46.33 71.15 50.08 69.9 46.33 64.9 41.33 58.65 42.58 53.66 45.08 54.91 40.08"/><polygon class="cls-5" points="73.65 75.07 81.14 77.56 89.89 75.07 92.39 68.82 89.89 66.32 89.89 70.07 82.39 73.82 73.65 75.07"/></g></g></svg>