<svg xmlns="http://www.w3.org/2000/svg" viewBox="0 0 124.72 189.38"><defs><style>.cls-1{fill:#51666d;}.cls-2,.cls-3{fill:#fff;}.cls-2{stroke:#000;stroke-miterlimit:10;stroke-width:1.86px;}.cls-4{fill:#b5875d;}</style></defs><title>Element 28</title><g id="Ebene_2" data-name="Ebene 2"><g id="Ebene_1-2" data-name="Ebene 1"><path d="M124.72,178.58V11.34A11.37,11.37,0,0,0,113.39,0h-102A11.37,11.37,0,0,0,0,11.34V178.58a11.38,11.38,0,0,0,7.9,10.8H116.83A11.38,11.38,0,0,0,124.72,178.58Z"/><path class="cls-1" d="M120.66,173.36V18.65A10.52,10.52,0,0,0,110.17,8.16H15.78A10.52,10.52,0,0,0,5.29,18.65V173.36a10.53,10.53,0,0,0,7.3,10H113.36A10.53,10.53,0,0,0,120.66,173.36Z"/><rect class="cls-2" x="93.97" y="110.88" width="15.81" height="15.81" transform="translate(113.83 -37.25) rotate(45)"/><rect x="100.21" y="113.19" width="3.33" height="10.56"/><rect x="100.21" y="113.19" width="3.33" height="10.56" transform="translate(-16.6 220.35) rotate(-90)"/><rect class="cls-2" x="54.76" y="110.4" width="17.39" height="17.39" transform="translate(182.55 55.64) rotate(90)"/><polygon points="58.17 114.44 68.88 114.44 68.11 120.55 63.53 124.37 58.94 120.55 58.17 114.44"/><polygon class="cls-2" points="12.26 128.36 24.55 109.85 36.85 128.36 12.26 128.36"/><polygon points="25.8 121.84 25.8 115.01 24.55 112.11 23.31 115.01 23.31 121.84 21.45 121.84 21.45 122.67 23.93 123.29 23.93 124.94 23.31 125.67 23.93 126.39 24.55 127.01 25.17 126.39 25.8 125.67 25.17 124.94 25.17 123.29 27.66 122.67 27.66 121.84 25.8 121.84"/><polygon points="25.66 9.1 7.63 21.84 14.52 42.44 36.8 42.44 43.69 21.84 25.66 9.1"/><polygon class="cls-3" points="28.28 19.9 31.24 23.98 33.66 26.77 35.8 29.29 37.16 32.32 30.53 33.15 24.53 33.15 18.53 33.15 14.53 32.15 16.41 29.15 20.37 22.73 21.87 23.69 23.83 20.86 24.83 17.98 25.66 16.4 28.28 19.9"/><polygon class="cls-3" points="79.22 37.9 70.22 35.9 61.22 37.9 55.22 35.9 47.22 39.9 39.22 45.9 35.22 44.9 28.22 45.9 26.22 49.9 21.22 52.9 21.22 56.9 23.22 63.9 21.22 66.9 24.22 73.9 23.22 78.9 23.22 83.9 29.22 85.9 33.22 88.9 32.22 91.9 30.22 96.9 33.22 100.9 41.22 102.9 44.22 105.9 52.22 105.9 60.22 100.9 69.22 101.9 76.22 99.9 82.22 99.9 86.22 102.9 92.22 101.9 100.22 97.9 103.22 89.9 99.22 83.9 101.22 75.9 98.22 70.9 94.22 67.9 97.22 64.9 103.22 61.9 105.22 55.9 105.22 48.9 99.22 45.9 92.22 45.9 94.22 41.9 89.22 36.9 82.22 35.9 79.22 37.9"/><polygon class="cls-4" points="33.24 71.4 31.43 70.9 30.48 72.9 31.95 73.83 33.59 73.36 33.24 71.4"/><polygon class="cls-4" points="37.72 67.28 36.57 66.48 35.69 66.88 36.06 68.29 37.35 68.24 37.72 67.28"/><polygon class="cls-4" points="29.45 64.14 27.84 64.07 27.37 64.8 28.18 66.02 29.6 65.65 29.45 64.14"/><polygon class="cls-4" points="35.91 61.5 34.96 61.14 34.74 61.23 34.8 62.53 35.55 62.45 35.91 61.5"/><polygon class="cls-4" points="41.82 67.03 42.53 68.03 41.95 69.08 40.9 68.5 40.94 67.42 41.82 67.03"/><polygon class="cls-4" points="54.95 81.8 53.26 82.63 53.89 84.76 55.6 84.47 56.51 83.03 54.95 81.8"/><polygon class="cls-4" points="55.55 75.75 54.16 75.91 53.76 76.79 54.98 77.6 55.91 76.7 55.55 75.75"/><polygon class="cls-4" points="47.28 78.9 46.03 79.92 46.18 80.78 47.59 81.15 48.41 79.93 47.28 78.9"/><polygon class="cls-4" points="50.35 72.63 49.4 72.99 49.3 73.21 50.2 74.14 50.72 73.58 50.35 72.63"/><polygon class="cls-4" points="58.44 72.82 59.64 73.09 59.9 74.27 58.73 74.53 58.05 73.7 58.44 72.82"/><polygon class="cls-4" points="64.08 53.53 65.66 52.51 64.78 50.47 63.12 50.97 62.39 52.5 64.08 53.53"/><polygon class="cls-4" points="64.22 59.62 65.58 59.28 65.87 58.37 64.56 57.71 63.74 58.72 64.22 59.62"/><polygon class="cls-4" points="72.05 55.49 73.16 54.32 72.91 53.49 71.46 53.29 70.81 54.6 72.05 55.49"/><polygon class="cls-4" points="69.75 62.08 70.66 61.61 70.73 61.38 69.72 60.56 69.28 61.18 69.75 62.08"/><polygon class="cls-4" points="61.7 62.87 60.48 62.75 60.08 61.61 61.21 61.21 61.99 61.95 61.7 62.87"/><polygon class="cls-4" points="51.65 36.16 51.1 34.36 48.9 34.65 48.92 36.39 50.2 37.51 51.65 36.16"/><polygon class="cls-4" points="57.55 37.69 57.6 36.29 56.79 35.76 55.8 36.84 56.55 37.9 57.55 37.69"/><polygon class="cls-4" points="55.71 29.03 54.89 27.64 54.02 27.65 53.44 28.99 54.52 29.98 55.71 29.03"/><polygon class="cls-4" points="61.43 33.04 61.22 32.04 61.02 31.91 59.96 32.66 60.43 33.25 61.43 33.04"/><polygon class="cls-4" points="59.99 41 59.53 42.14 58.33 42.22 58.25 41.02 59.18 40.47 59.99 41"/><polygon class="cls-4" points="54.68 60.04 53.07 59.07 51.63 60.75 52.8 62.03 54.5 62.02 54.68 60.04"/><polygon class="cls-4" points="60.1 57.26 59.2 56.18 58.25 56.33 58.23 57.79 59.49 58.08 60.1 57.26"/><polygon class="cls-4" points="52.97 52.02 51.43 51.53 50.79 52.11 51.24 53.51 52.71 53.52 52.97 52.02"/><polygon class="cls-4" points="59.9 51.2 59.08 50.6 58.84 50.64 58.55 51.9 59.3 52.03 59.9 51.2"/><polygon class="cls-4" points="64.12 58.1 64.54 59.26 63.7 60.12 62.84 59.27 63.17 58.25 64.12 58.1"/><polygon class="cls-4" points="83.39 52.39 85.11 53.16 86.34 51.32 85.02 50.19 83.34 50.41 83.39 52.39"/><polygon class="cls-4" points="78.35 55.81 79.37 56.77 80.3 56.51 80.14 55.05 78.85 54.92 78.35 55.81"/><polygon class="cls-4" points="86.06 60.14 87.65 60.45 88.21 59.79 87.59 58.47 86.14 58.62 86.06 60.14"/><polygon class="cls-4" points="79.28 61.79 80.17 62.3 80.4 62.23 80.54 60.94 79.78 60.9 79.28 61.79"/><polygon class="cls-4" points="74.25 55.45 73.7 54.36 74.43 53.41 75.38 54.14 75.18 55.2 74.25 55.45"/><polygon class="cls-4" points="61.51 38.15 60.95 36.35 58.75 36.64 58.77 38.38 60.05 39.5 61.51 38.15"/><polygon class="cls-4" points="67.4 39.68 67.45 38.28 66.64 37.75 65.65 38.83 66.4 39.89 67.4 39.68"/><polygon class="cls-4" points="65.56 31.02 64.75 29.63 63.88 29.64 63.29 30.98 64.37 31.97 65.56 31.02"/><polygon class="cls-4" points="71.28 35.03 71.07 34.03 70.87 33.9 69.81 34.65 70.28 35.24 71.28 35.03"/><polygon class="cls-4" points="69.84 42.99 69.39 44.13 68.19 44.21 68.11 43.01 69.03 42.46 69.84 42.99"/><polygon class="cls-4" points="64.53 62.03 62.92 61.06 61.48 62.74 62.65 64.02 64.35 64 64.53 62.03"/><polygon class="cls-4" points="69.95 59.25 69.06 58.17 68.1 58.32 68.08 59.78 69.35 60.07 69.95 59.25"/><polygon class="cls-4" points="62.82 54.01 61.28 53.52 60.64 54.1 61.1 55.49 62.56 55.51 62.82 54.01"/><polygon class="cls-4" points="69.75 53.2 68.93 52.59 68.69 52.63 68.4 53.89 69.15 54.02 69.75 53.2"/><polygon class="cls-4" points="73.98 60.09 74.4 61.25 73.56 62.11 72.69 61.27 73.03 60.24 73.98 60.09"/><polygon class="cls-4" points="93.25 54.38 94.96 55.15 96.19 53.31 94.88 52.18 93.19 52.4 93.25 54.38"/><polygon class="cls-4" points="88.2 57.8 89.22 58.76 90.15 58.5 89.99 57.05 88.7 56.91 88.2 57.8"/><polygon class="cls-4" points="95.92 62.13 97.5 62.44 98.07 61.78 97.45 60.45 95.99 60.61 95.92 62.13"/><polygon class="cls-4" points="89.13 63.78 90.02 64.28 90.25 64.22 90.39 62.93 89.63 62.89 89.13 63.78"/><polygon class="cls-4" points="84.11 57.45 83.55 56.35 84.28 55.4 85.24 56.13 85.03 57.19 84.11 57.45"/><polygon class="cls-4" points="29.13 70.09 28.58 68.29 26.38 68.59 26.4 70.32 27.68 71.44 29.13 70.09"/><polygon class="cls-4" points="35.02 71.62 35.07 70.22 34.27 69.7 33.28 70.78 34.02 71.83 35.02 71.62"/><polygon class="cls-4" points="33.19 62.97 32.37 61.58 31.5 61.59 30.92 62.93 32 63.92 33.19 62.97"/><polygon class="cls-4" points="38.91 66.97 38.7 65.97 38.49 65.84 37.43 66.59 37.91 67.19 38.91 66.97"/><polygon class="cls-4" points="37.47 74.93 37.01 76.07 35.81 76.15 35.73 74.95 36.66 74.41 37.47 74.93"/><polygon class="cls-4" points="32.16 93.97 30.55 93 29.1 94.69 30.27 95.97 31.98 95.95 32.16 93.97"/><polygon class="cls-4" points="37.58 91.19 36.68 90.11 35.73 90.26 35.71 91.72 36.97 92.02 37.58 91.19"/><polygon class="cls-4" points="30.44 85.96 28.91 85.46 28.27 86.05 28.72 87.44 30.19 87.46 30.44 85.96"/><polygon class="cls-4" points="37.38 85.14 36.55 84.53 36.32 84.57 36.02 85.83 36.77 85.96 37.38 85.14"/><polygon class="cls-4" points="41.6 92.04 42.02 93.19 41.18 94.05 40.32 93.21 40.65 92.19 41.6 92.04"/><polygon class="cls-4" points="60.87 86.33 62.59 87.1 63.82 85.25 62.5 84.12 60.81 84.34 60.87 86.33"/><polygon class="cls-4" points="55.83 89.74 56.85 90.7 57.77 90.44 57.62 88.99 56.33 88.85 55.83 89.74"/><polygon class="cls-4" points="63.54 94.08 65.13 94.38 65.69 93.72 65.07 92.4 63.62 92.56 63.54 94.08"/><polygon class="cls-4" points="56.76 95.73 57.65 96.23 57.88 96.16 58.02 94.88 57.26 94.84 56.76 95.73"/><polygon class="cls-4" points="51.73 89.39 51.17 88.3 51.91 87.34 52.86 88.07 52.66 89.13 51.73 89.39"/><polygon class="cls-4" points="66.63 60.37 66.08 58.58 63.88 58.87 63.9 60.6 65.18 61.72 66.63 60.37"/><polygon class="cls-4" points="72.52 61.91 72.57 60.5 71.77 59.98 70.78 61.06 71.52 62.12 72.52 61.91"/><polygon class="cls-4" points="70.69 53.25 69.87 51.86 69 51.87 68.42 53.21 69.5 54.2 70.69 53.25"/><polygon class="cls-4" points="76.41 57.26 76.19 56.26 75.99 56.13 74.93 56.87 75.41 57.47 76.41 57.26"/><polygon class="cls-4" points="74.96 65.22 74.51 66.36 73.31 66.44 73.23 65.23 74.16 64.69 74.96 65.22"/><polygon class="cls-4" points="69.66 84.25 68.05 83.28 66.6 84.97 67.77 86.25 69.47 86.23 69.66 84.25"/><polygon class="cls-4" points="75.07 81.48 74.18 80.4 73.23 80.54 73.21 82.01 74.47 82.3 75.07 81.48"/><polygon class="cls-4" points="67.94 76.24 66.41 75.75 65.76 76.33 66.22 77.72 67.68 77.74 67.94 76.24"/><polygon class="cls-4" points="74.88 75.42 74.05 74.82 73.81 74.85 73.52 76.12 74.27 76.24 74.88 75.42"/><polygon class="cls-4" points="79.1 82.32 79.52 83.47 78.68 84.33 77.82 83.49 78.15 82.47 79.1 82.32"/><polygon class="cls-4" points="98.37 76.61 100.08 77.38 101.32 75.53 100 74.4 98.31 74.63 98.37 76.61"/><polygon class="cls-4" points="93.33 80.02 94.35 80.99 95.27 80.73 95.11 79.27 93.83 79.13 93.33 80.02"/><polygon class="cls-4" points="101.04 84.36 102.63 84.67 103.19 84.01 102.57 82.68 101.11 82.84 101.04 84.36"/><polygon class="cls-4" points="94.25 86.01 95.14 86.51 95.38 86.45 95.52 85.16 94.75 85.12 94.25 86.01"/><polygon class="cls-4" points="89.23 79.67 88.67 78.58 89.41 77.62 90.36 78.36 90.16 79.41 89.23 79.67"/><polygon class="cls-4" points="50.25 72.71 49.69 70.91 47.49 71.21 47.51 72.94 48.79 74.06 50.25 72.71"/><polygon class="cls-4" points="56.14 74.24 56.19 72.84 55.38 72.32 54.39 73.4 55.14 74.45 56.14 74.24"/><polygon class="cls-4" points="54.3 65.59 53.48 64.19 52.62 64.2 52.03 65.55 53.11 66.54 54.3 65.59"/><polygon class="cls-4" points="60.02 69.59 59.81 68.59 59.61 68.46 58.55 69.21 59.02 69.81 60.02 69.59"/><polygon class="cls-4" points="58.58 77.55 58.13 78.69 56.92 78.77 56.84 77.57 57.77 77.03 58.58 77.55"/><polygon class="cls-4" points="53.27 96.59 51.66 95.62 50.22 97.31 51.39 98.59 53.09 98.57 53.27 96.59"/><polygon class="cls-4" points="58.69 93.81 57.8 92.73 56.84 92.88 56.83 94.34 58.09 94.64 58.69 93.81"/><polygon class="cls-4" points="51.56 88.58 50.02 88.08 49.38 88.67 49.84 90.06 51.3 90.08 51.56 88.58"/><polygon class="cls-4" points="58.49 87.76 57.67 87.16 57.43 87.19 57.14 88.45 57.89 88.58 58.49 87.76"/><polygon class="cls-4" points="62.72 94.66 63.14 95.81 62.29 96.67 61.44 95.83 61.77 94.81 62.72 94.66"/><polygon class="cls-4" points="81.99 88.95 83.7 89.72 84.93 87.87 83.62 86.74 81.93 86.97 81.99 88.95"/><polygon class="cls-4" points="76.94 92.36 77.96 93.33 78.89 93.06 78.73 91.61 77.44 91.47 76.94 92.36"/><polygon class="cls-4" points="84.66 96.7 86.24 97 86.81 96.34 86.19 95.02 84.73 95.18 84.66 96.7"/><polygon class="cls-4" points="77.87 98.35 78.76 98.85 78.99 98.78 79.13 97.5 78.37 97.46 77.87 98.35"/><polygon class="cls-4" points="72.85 92.01 72.29 90.92 73.02 89.96 73.98 90.69 73.77 91.75 72.85 92.01"/><polygon class="cls-4" points="37.8 55.9 36.76 54.34 34.73 55.24 35.24 56.9 36.79 57.61 37.8 55.9"/><polygon class="cls-4" points="43.88 55.7 43.53 54.34 42.61 54.06 41.97 55.38 42.98 56.18 43.88 55.7"/><polygon class="cls-4" points="39.66 47.92 38.48 46.82 37.65 47.07 37.47 48.53 38.79 49.17 39.66 47.92"/><polygon class="cls-4" points="46.28 50.13 45.8 49.23 45.56 49.16 44.76 50.18 45.38 50.62 46.28 50.13"/><polygon class="cls-4" points="47.16 58.17 47.05 59.39 45.92 59.81 45.51 58.69 46.24 57.9 47.16 58.17"/><polygon class="cls-4" points="47.5 77.94 45.68 77.46 44.77 79.49 46.26 80.38 47.88 79.88 47.5 77.94"/><polygon class="cls-4" points="51.9 73.73 50.73 72.95 49.86 73.36 50.26 74.77 51.55 74.69 51.9 73.73"/><polygon class="cls-4" points="43.57 70.74 41.96 70.7 41.51 71.45 42.34 72.65 43.75 72.25 43.57 70.74"/><polygon class="cls-4" points="49.98 67.98 49.02 67.64 48.81 67.74 48.88 69.03 49.64 68.94 49.98 67.98"/><polygon class="cls-4" points="56 73.39 56.73 74.38 56.16 75.44 55.1 74.88 55.13 73.81 56 73.39"/><polygon class="cls-4" points="72.84 62.44 74.71 62.69 75.36 60.57 73.78 59.86 72.23 60.55 72.84 62.44"/><polygon class="cls-4" points="68.98 67.14 70.23 67.78 71.05 67.26 70.48 65.91 69.21 66.15 68.98 67.14"/><polygon class="cls-4" points="77.61 69.11 79.22 68.95 79.57 68.16 78.6 67.06 77.25 67.63 77.61 69.11"/><polygon class="cls-4" points="71.58 72.62 72.57 72.85 72.78 72.72 72.54 71.44 71.8 71.62 71.58 72.62"/><polygon class="cls-4" points="64.95 67.97 64.11 67.08 64.54 65.96 65.66 66.39 65.77 67.46 64.95 67.97"/><polygon class="cls-4" points="65.16 49.39 63.86 48.04 62.03 49.28 62.82 50.83 64.47 51.25 65.16 49.39"/><polygon class="cls-4" points="71.12 48.12 70.53 46.84 69.58 46.74 69.18 48.14 70.32 48.76 71.12 48.12"/><polygon class="cls-4" points="65.59 41.21 64.24 40.33 63.47 40.73 63.55 42.19 64.95 42.59 65.59 41.21"/><polygon class="cls-4" points="72.5 42.22 71.86 41.42 71.62 41.4 71.01 42.54 71.7 42.86 72.5 42.22"/><polygon class="cls-4" points="74.78 49.98 74.89 51.2 73.85 51.81 73.24 50.78 73.83 49.87 74.78 49.98"/><polygon class="cls-4" points="78.59 69.38 76.71 69.23 76.17 71.38 77.8 72 79.31 71.22 78.59 69.38"/><polygon class="cls-4" points="82.18 64.46 80.89 63.9 80.11 64.46 80.75 65.77 82.01 65.47 82.18 64.46"/><polygon class="cls-4" points="73.46 62.98 71.86 63.23 71.55 64.04 72.58 65.08 73.9 64.44 73.46 62.98"/><polygon class="cls-4" points="79.29 59.14 78.28 58.97 78.08 59.11 78.39 60.37 79.11 60.15 79.29 59.14"/><polygon class="cls-4" points="86.16 63.41 87.05 64.25 86.68 65.4 85.54 65.03 85.37 63.97 86.16 63.41"/><polygon class="cls-4" points="100.81 49.66 102.69 49.58 102.97 47.38 101.28 46.96 99.87 47.91 100.81 49.66"/><polygon class="cls-4" points="97.84 54.97 99.18 55.38 99.89 54.73 99.1 53.5 97.89 53.95 97.84 54.97"/><polygon class="cls-4" points="106.68 55.39 108.23 54.95 108.44 54.11 107.29 53.2 106.06 54 106.68 55.39"/><polygon class="cls-4" points="101.36 59.91 102.38 59.96 102.55 59.79 102.1 58.58 101.4 58.89 101.36 59.91"/><polygon class="cls-4" points="94.02 56.5 93.03 55.77 93.26 54.59 94.44 54.81 94.73 55.85 94.02 56.5"/><polygon class="cls-4" points="43.4 54.74 42.09 53.38 40.26 54.63 41.06 56.17 42.7 56.6 43.4 54.74"/><polygon class="cls-4" points="49.35 53.47 48.76 52.19 47.81 52.09 47.41 53.49 48.55 54.1 49.35 53.47"/><polygon class="cls-4" points="43.82 46.56 42.47 45.68 41.7 46.08 41.78 47.54 43.19 47.94 43.82 46.56"/><polygon class="cls-4" points="50.73 47.57 50.09 46.77 49.86 46.74 49.24 47.89 49.94 48.21 50.73 47.57"/><polygon class="cls-4" points="53.02 55.33 53.12 56.55 52.08 57.16 51.47 56.13 52.06 55.22 53.02 55.33"/><polygon class="cls-4" points="56.82 74.73 54.94 74.58 54.41 76.73 56.03 77.35 57.54 76.57 56.82 74.73"/><polygon class="cls-4" points="60.41 69.81 59.13 69.25 58.34 69.81 58.98 71.12 60.24 70.82 60.41 69.81"/><polygon class="cls-4" points="51.69 68.33 50.09 68.58 49.78 69.39 50.81 70.43 52.13 69.79 51.69 68.33"/><polygon class="cls-4" points="57.52 64.49 56.51 64.32 56.31 64.46 56.62 65.72 57.35 65.5 57.52 64.49"/><polygon class="cls-4" points="64.39 68.76 65.28 69.6 64.91 70.75 63.77 70.38 63.6 69.32 64.39 68.76"/><polygon class="cls-4" points="79.05 55.01 80.92 54.93 81.2 52.73 79.51 52.31 78.11 53.26 79.05 55.01"/><polygon class="cls-4" points="76.07 60.32 77.42 60.73 78.13 60.08 77.33 58.85 76.12 59.3 76.07 60.32"/><polygon class="cls-4" points="84.91 60.74 86.46 60.3 86.67 59.46 85.52 58.55 84.29 59.34 84.91 60.74"/><polygon class="cls-4" points="79.59 65.26 80.61 65.31 80.78 65.14 80.33 63.93 79.64 64.24 79.59 65.26"/><polygon class="cls-4" points="72.25 61.85 71.26 61.12 71.49 59.94 72.67 60.16 72.96 61.2 72.25 61.85"/><polygon class="cls-4" points="84.91 32.64 86.5 31.65 85.67 29.6 83.99 30.05 83.23 31.57 84.91 32.64"/><polygon class="cls-4" points="84.9 38.73 86.27 38.43 86.58 37.51 85.28 36.83 84.44 37.82 84.9 38.73"/><polygon class="cls-4" points="92.82 34.78 93.96 33.64 93.73 32.8 92.29 32.57 91.6 33.87 92.82 34.78"/><polygon class="cls-4" points="90.38 41.32 91.29 40.87 91.37 40.64 90.38 39.8 89.92 40.41 90.38 41.32"/><polygon class="cls-4" points="82.31 41.92 81.09 41.77 80.71 40.63 81.85 40.25 82.61 41.01 82.31 41.92"/><polygon class="cls-4" points="62.55 41.57 63.08 39.77 61.09 38.79 60.14 40.24 60.59 41.89 62.55 41.57"/><polygon class="cls-4" points="66.59 46.12 67.42 44.98 67.04 44.09 65.61 44.44 65.65 45.74 66.59 46.12"/><polygon class="cls-4" points="69.87 37.9 69.97 36.28 69.24 35.81 68.01 36.6 68.36 38.02 69.87 37.9"/><polygon class="cls-4" points="72.41 44.4 72.79 43.45 72.69 43.23 71.4 43.27 71.46 44.02 72.41 44.4"/><polygon class="cls-4" points="66.79 50.22 65.78 50.92 64.73 50.32 65.33 49.28 66.41 49.34 66.79 50.22"/><polygon class="cls-4" points="77.15 67.44 76.84 69.3 78.94 70.02 79.7 68.47 79.06 66.89 77.15 67.44"/><polygon class="cls-4" points="72.58 63.42 71.91 64.65 72.39 65.48 73.76 64.96 73.57 63.68 72.58 63.42"/><polygon class="cls-4" points="70.32 71.97 70.43 73.58 71.2 73.97 72.33 73.03 71.81 71.66 70.32 71.97"/><polygon class="cls-4" points="67.02 65.82 66.76 66.81 66.88 67.01 68.16 66.83 68.01 66.08 67.02 65.82"/><polygon class="cls-4" points="71.9 59.36 72.82 58.55 73.92 59.02 73.45 60.13 72.38 60.2 71.9 59.36"/><polygon class="cls-4" points="67.72 67.01 69.31 66.02 68.48 63.97 66.8 64.42 66.04 65.94 67.72 67.01"/><polygon class="cls-4" points="67.71 73.1 69.08 72.79 69.39 71.88 68.09 71.19 67.25 72.18 67.71 73.1"/><polygon class="cls-4" points="75.63 69.15 76.77 68.01 76.54 67.17 75.1 66.94 74.41 68.23 75.63 69.15"/><polygon class="cls-4" points="73.19 75.69 74.1 75.23 74.18 75.01 73.19 74.17 72.73 74.78 73.19 75.69"/><polygon class="cls-4" points="65.12 76.29 63.9 76.14 63.52 75 64.66 74.62 65.42 75.38 65.12 76.29"/><polygon class="cls-4" points="45.36 75.94 45.89 74.13 43.9 73.16 42.95 74.61 43.4 76.25 45.36 75.94"/><polygon class="cls-4" points="49.41 80.48 50.23 79.34 49.85 78.46 48.42 78.81 48.46 80.1 49.41 80.48"/><polygon class="cls-4" points="52.68 72.26 52.78 70.65 52.05 70.18 50.82 70.97 51.17 72.39 52.68 72.26"/><polygon class="cls-4" points="55.22 78.77 55.6 77.82 55.5 77.6 54.21 77.63 54.27 78.39 55.22 78.77"/><polygon class="cls-4" points="49.6 84.59 48.59 85.29 47.55 84.69 48.15 83.64 49.22 83.7 49.6 84.59"/><polygon class="cls-4" points="59.96 101.81 59.65 103.66 61.75 104.39 62.51 102.83 61.87 101.26 59.96 101.81"/><polygon class="cls-4" points="55.4 97.78 54.72 99.01 55.2 99.85 56.57 99.33 56.38 98.05 55.4 97.78"/><polygon class="cls-4" points="53.13 106.34 53.24 107.95 54.02 108.33 55.14 107.4 54.62 106.03 53.13 106.34"/><polygon class="cls-4" points="49.83 100.19 49.57 101.17 49.69 101.38 50.98 101.19 50.82 100.45 49.83 100.19"/><polygon class="cls-4" points="54.71 93.73 55.63 92.92 56.73 93.39 56.27 94.49 55.19 94.56 54.71 93.73"/><polygon class="cls-4" points="46.97 48.62 46.42 46.82 44.22 47.12 44.24 48.85 45.52 49.97 46.97 48.62"/><polygon class="cls-4" points="52.86 50.15 52.91 48.75 52.11 48.23 51.12 49.3 51.87 50.36 52.86 50.15"/><polygon class="cls-4" points="51.03 41.49 50.21 40.1 49.34 40.11 48.76 41.45 49.84 42.44 51.03 41.49"/><polygon class="cls-4" points="56.75 45.5 56.54 44.5 56.34 44.37 55.27 45.12 55.75 45.71 56.75 45.5"/><polygon class="cls-4" points="55.31 53.46 54.85 54.6 53.65 54.68 53.57 53.48 54.5 52.94 55.31 53.46"/><polygon class="cls-4" points="50 72.5 48.39 71.53 46.94 73.21 48.11 74.5 49.82 74.48 50 72.5"/><polygon class="cls-4" points="55.42 69.72 54.52 68.64 53.57 68.79 53.55 70.25 54.81 70.55 55.42 69.72"/><polygon class="cls-4" points="48.28 64.49 46.75 63.99 46.11 64.58 46.56 65.97 48.03 65.99 48.28 64.49"/><polygon class="cls-4" points="55.22 63.67 54.4 63.06 54.16 63.1 53.87 64.36 54.62 64.49 55.22 63.67"/><polygon class="cls-4" points="59.44 70.57 59.86 71.72 59.02 72.58 58.16 71.74 58.49 70.71 59.44 70.57"/><polygon class="cls-4" points="78.71 64.86 80.43 65.63 81.66 63.78 80.34 62.65 78.66 62.87 78.71 64.86"/><polygon class="cls-4" points="73.67 68.27 74.69 69.23 75.62 68.97 75.46 67.52 74.17 67.38 73.67 68.27"/><polygon class="cls-4" points="81.38 72.61 82.97 72.91 83.53 72.25 82.91 70.93 81.46 71.08 81.38 72.61"/><polygon class="cls-4" points="74.6 74.26 75.49 74.76 75.72 74.69 75.86 73.4 75.1 73.37 74.6 74.26"/><polygon class="cls-4" points="69.57 67.92 69.02 66.82 69.75 65.87 70.7 66.6 70.5 67.66 69.57 67.92"/><polygon class="cls-4" points="36.01 77.7 35.46 75.9 33.26 76.2 33.28 77.93 34.56 79.05 36.01 77.7"/><polygon class="cls-4" points="41.9 79.23 41.95 77.83 41.15 77.31 40.16 78.39 40.91 79.44 41.9 79.23"/><polygon class="cls-4" points="40.07 70.58 39.25 69.18 38.38 69.19 37.8 70.54 38.88 71.53 40.07 70.58"/><polygon class="cls-4" points="45.79 74.58 45.58 73.58 45.37 73.45 44.31 74.2 44.79 74.79 45.79 74.58"/><polygon class="cls-4" points="44.34 82.54 43.89 83.68 42.69 83.76 42.61 82.56 43.54 82.02 44.34 82.54"/><polygon class="cls-4" points="39.04 101.58 37.43 100.61 35.98 102.29 37.15 103.58 38.85 103.56 39.04 101.58"/><polygon class="cls-4" points="44.46 98.8 43.56 97.72 42.61 97.87 42.59 99.33 43.85 99.63 44.46 98.8"/><polygon class="cls-4" points="37.32 93.57 35.79 93.07 35.15 93.66 35.6 95.05 37.07 95.07 37.32 93.57"/><polygon class="cls-4" points="44.26 92.75 43.44 92.14 43.2 92.18 42.9 93.44 43.65 93.57 44.26 92.75"/><polygon class="cls-4" points="48.48 99.65 48.9 100.8 48.06 101.66 47.2 100.82 47.53 99.79 48.48 99.65"/><polygon class="cls-4" points="67.75 93.94 69.47 94.71 70.7 92.86 69.38 91.73 67.69 91.95 67.75 93.94"/><polygon class="cls-4" points="62.71 97.35 63.73 98.31 64.66 98.05 64.5 96.6 63.21 96.46 62.71 97.35"/><polygon class="cls-4" points="70.42 101.69 72.01 101.99 72.57 101.33 71.95 100.01 70.5 100.17 70.42 101.69"/><polygon class="cls-4" points="63.64 103.34 64.53 103.84 64.76 103.77 64.9 102.48 64.14 102.45 63.64 103.34"/><polygon class="cls-4" points="58.61 97 58.05 95.91 58.79 94.95 59.74 95.68 59.54 96.74 58.61 97"/><polygon class="cls-4" points="75.1 64.2 74.55 62.41 72.35 62.7 72.37 64.43 73.65 65.55 75.1 64.2"/><polygon class="cls-4" points="80.99 65.73 81.04 64.33 80.23 63.81 79.25 64.89 79.99 65.95 80.99 65.73"/><polygon class="cls-4" points="79.16 57.08 78.34 55.69 77.47 55.7 76.89 57.04 77.97 58.03 79.16 57.08"/><polygon class="cls-4" points="84.88 61.08 84.66 60.08 84.46 59.95 83.4 60.7 83.88 61.3 84.88 61.08"/><polygon class="cls-4" points="83.43 69.04 82.98 70.18 81.78 70.26 81.7 69.06 82.63 68.52 83.43 69.04"/><polygon class="cls-4" points="78.13 88.08 76.52 87.11 75.07 88.8 76.24 90.08 77.94 90.06 78.13 88.08"/><polygon class="cls-4" points="83.55 85.31 82.65 84.23 81.7 84.37 81.68 85.83 82.94 86.13 83.55 85.31"/><polygon class="cls-4" points="76.41 80.07 74.88 79.57 74.23 80.16 74.69 81.55 76.16 81.57 76.41 80.07"/><polygon class="cls-4" points="83.35 79.25 82.52 78.64 82.29 78.68 81.99 79.94 82.74 80.07 83.35 79.25"/><polygon class="cls-4" points="87.57 86.15 87.99 87.3 87.15 88.16 86.29 87.32 86.62 86.3 87.57 86.15"/><polygon class="cls-4" points="106.84 80.44 108.55 81.21 109.79 79.36 108.47 78.23 106.78 78.45 106.84 80.44"/><polygon class="cls-4" points="101.8 83.85 102.82 84.81 103.74 84.56 103.59 83.1 102.3 82.96 101.8 83.85"/><polygon class="cls-4" points="109.51 88.19 111.09 88.49 111.66 87.83 111.04 86.51 109.58 86.67 109.51 88.19"/><polygon class="cls-4" points="102.72 89.84 103.61 90.34 103.85 90.28 103.98 88.99 103.22 88.95 102.72 89.84"/><polygon class="cls-4" points="97.7 83.5 97.14 82.41 97.88 81.45 98.83 82.18 98.63 83.24 97.7 83.5"/><polygon class="cls-4" points="38.65 45.16 40.34 44.32 39.69 42.2 37.98 42.5 37.08 43.94 38.65 45.16"/><polygon class="cls-4" points="38.1 51.22 39.49 51.04 39.88 50.16 38.65 49.36 37.73 50.27 38.1 51.22"/><polygon class="cls-4" points="46.34 48.01 47.58 46.97 47.43 46.12 46.01 45.76 45.21 46.98 46.34 48.01"/><polygon class="cls-4" points="43.32 54.3 44.27 53.93 44.36 53.71 43.45 52.78 42.95 53.35 43.32 54.3"/><polygon class="cls-4" points="35.23 54.17 34.03 53.9 33.75 52.73 34.93 52.46 35.61 53.28 35.23 54.17"/><polygon class="cls-4" points="15.58 52.02 16.27 50.27 14.38 49.12 13.3 50.48 13.6 52.16 15.58 52.02"/><polygon class="cls-4" points="19.2 56.91 20.12 55.86 19.82 54.94 18.37 55.16 18.29 56.45 19.2 56.91"/><polygon class="cls-4" points="23.21 49.03 23.45 47.43 22.77 46.89 21.47 47.57 21.69 49.02 23.21 49.03"/><polygon class="cls-4" points="25.14 55.74 25.61 54.83 25.53 54.6 24.24 54.51 24.23 55.27 25.14 55.74"/><polygon class="cls-4" points="19.02 61.02 17.95 61.63 16.96 60.93 17.66 59.95 18.72 60.11 19.02 61.02"/><polygon class="cls-4" points="27.78 79.11 27.3 80.93 29.32 81.84 30.22 80.36 29.73 78.73 27.78 79.11"/><polygon class="cls-4" points="23.59 74.69 22.81 75.85 23.22 76.72 24.63 76.33 24.55 75.04 23.59 74.69"/><polygon class="cls-4" points="20.57 83 20.52 84.62 21.26 85.07 22.47 84.24 22.08 82.83 20.57 83"/><polygon class="cls-4" points="17.84 76.58 17.49 77.54 17.59 77.75 18.88 77.68 18.8 76.93 17.84 76.58"/><polygon class="cls-4" points="23.28 70.59 24.27 69.86 25.33 70.43 24.76 71.49 23.68 71.46 23.28 70.59"/><polygon class="cls-4" points="60.99 76.44 60.43 74.64 58.23 74.93 58.25 76.67 59.53 77.79 60.99 76.44"/><polygon class="cls-4" points="66.88 77.97 66.93 76.57 66.12 76.04 65.13 77.12 65.88 78.18 66.88 77.97"/><polygon class="cls-4" points="65.04 69.31 64.23 67.92 63.36 67.93 62.77 69.27 63.85 70.26 65.04 69.31"/><polygon class="cls-4" points="70.76 73.32 70.55 72.32 70.35 72.19 69.29 72.94 69.76 73.53 70.76 73.32"/><polygon class="cls-4" points="69.32 81.28 68.87 82.42 67.67 82.5 67.58 81.3 68.51 80.75 69.32 81.28"/><polygon class="cls-4" points="64.02 100.32 62.41 99.35 60.96 101.03 62.13 102.31 63.83 102.3 64.02 100.32"/><polygon class="cls-4" points="69.43 97.54 68.54 96.46 67.58 96.61 67.56 98.07 68.83 98.36 69.43 97.54"/><polygon class="cls-4" points="62.3 92.31 60.76 91.81 60.12 92.39 60.58 93.79 62.04 93.81 62.3 92.31"/><polygon class="cls-4" points="69.23 91.48 68.41 90.88 68.17 90.92 67.88 92.18 68.63 92.31 69.23 91.48"/><polygon class="cls-4" points="73.46 98.39 73.88 99.54 73.03 100.4 72.17 99.56 72.5 98.53 73.46 98.39"/><polygon class="cls-4" points="92.73 92.67 94.44 93.44 95.67 91.6 94.36 90.47 92.67 90.69 92.73 92.67"/><polygon class="cls-4" points="87.68 96.09 88.7 97.05 89.63 96.79 89.47 95.34 88.18 95.2 87.68 96.09"/><polygon class="cls-4" points="95.4 100.42 96.98 100.73 97.55 100.07 96.93 98.75 95.47 98.9 95.4 100.42"/><polygon class="cls-4" points="88.61 102.08 89.5 102.58 89.73 102.51 89.87 101.22 89.11 101.19 88.61 102.08"/><polygon class="cls-4" points="83.59 95.74 83.03 94.64 83.76 93.69 84.72 94.42 84.51 95.48 83.59 95.74"/><polygon class="cls-4" points="31.68 63.19 31.01 61.59 28.36 61.85 28.38 63.4 29.93 64.39 31.68 63.19"/><polygon class="cls-4" points="38.8 64.55 38.86 63.31 37.88 62.84 36.69 63.8 37.59 64.74 38.8 64.55"/><polygon class="cls-4" points="36.58 56.86 35.59 55.62 34.55 55.63 33.84 56.82 35.14 57.7 36.58 56.86"/><polygon class="cls-4" points="43.49 60.42 43.23 59.53 42.99 59.41 41.71 60.08 42.28 60.61 43.49 60.42"/><polygon class="cls-4" points="41.74 67.5 41.2 68.51 39.75 68.58 39.65 67.52 40.77 67.03 41.74 67.5"/><polygon class="cls-4" points="35.34 84.43 33.4 83.57 31.65 85.07 33.06 86.21 35.12 86.19 35.34 84.43"/><polygon class="cls-4" points="41.88 81.96 40.8 81 39.65 81.13 39.63 82.43 41.15 82.69 41.88 81.96"/><polygon class="cls-4" points="33.27 77.31 31.41 76.86 30.64 77.39 31.19 78.62 32.96 78.64 33.27 77.31"/><polygon class="cls-4" points="41.64 76.58 40.65 76.04 40.36 76.07 40.01 77.19 40.91 77.31 41.64 76.58"/><polygon class="cls-4" points="46.74 82.71 47.25 83.74 46.23 84.5 45.19 83.75 45.59 82.84 46.74 82.71"/><polygon class="cls-4" points="70 77.63 72.07 78.32 73.56 76.68 71.97 75.67 69.93 75.87 70 77.63"/><polygon class="cls-4" points="63.91 80.67 65.15 81.53 66.27 81.3 66.08 80 64.52 79.88 63.91 80.67"/><polygon class="cls-4" points="73.23 84.53 75.14 84.8 75.82 84.21 75.07 83.03 73.32 83.17 73.23 84.53"/><polygon class="cls-4" points="65.03 85.99 66.11 86.44 66.39 86.38 66.56 85.24 65.64 85.2 65.03 85.99"/><polygon class="cls-4" points="58.97 80.36 58.3 79.38 59.18 78.53 60.33 79.19 60.09 80.13 58.97 80.36"/><polygon class="cls-4" points="35.47 88.95 33.67 88.41 32.68 90.39 34.13 91.35 35.77 90.92 35.47 88.95"/><polygon class="cls-4" points="40.05 84.94 38.92 84.11 38.03 84.48 38.37 85.91 39.66 85.89 40.05 84.94"/><polygon class="cls-4" points="31.86 81.6 30.24 81.49 29.77 82.22 30.55 83.45 31.97 83.12 31.86 81.6"/><polygon class="cls-4" points="38.38 79.11 37.44 78.73 37.22 78.82 37.24 80.12 38 80.06 38.38 79.11"/><polygon class="cls-4" points="44.16 84.78 44.85 85.8 44.24 86.83 43.2 86.23 43.27 85.15 44.16 84.78"/><polygon class="cls-4" points="56.93 99.86 55.22 100.65 55.8 102.79 57.52 102.54 58.46 101.13 56.93 99.86"/><polygon class="cls-4" points="57.67 93.82 56.28 93.96 55.87 94.83 57.06 95.66 58.02 94.78 57.67 93.82"/><polygon class="cls-4" points="49.34 96.78 48.06 97.78 48.19 98.63 49.59 99.04 50.43 97.84 49.34 96.78"/><polygon class="cls-4" points="52.55 90.58 51.59 90.92 51.49 91.14 52.37 92.09 52.9 91.55 52.55 90.58"/><polygon class="cls-4" points="60.63 90.97 61.82 91.27 62.06 92.44 60.88 92.68 60.22 91.83 60.63 90.97"/><polygon class="cls-4" points="66.73 71.81 68.33 70.83 67.5 68.77 65.82 69.23 65.06 70.75 66.73 71.81"/><polygon class="cls-4" points="66.72 77.9 68.09 77.6 68.4 76.69 67.11 76 66.27 76.99 66.72 77.9"/><polygon class="cls-4" points="74.64 73.96 75.79 72.82 75.56 71.98 74.11 71.75 73.43 73.04 74.64 73.96"/><polygon class="cls-4" points="72.2 80.5 73.11 80.04 73.19 79.81 72.2 78.98 71.74 79.58 72.2 80.5"/><polygon class="cls-4" points="64.13 81.1 62.91 80.94 62.53 79.8 63.68 79.42 64.44 80.18 64.13 81.1"/><polygon class="cls-4" points="66.97 67.7 66.42 65.91 64.22 66.2 64.24 67.93 65.52 69.05 66.97 67.7"/><polygon class="cls-4" points="72.86 69.23 72.91 67.83 72.11 67.31 71.12 68.39 71.86 69.45 72.86 69.23"/><polygon class="cls-4" points="71.03 60.58 70.21 59.19 69.34 59.2 68.76 60.54 69.84 61.53 71.03 60.58"/><polygon class="cls-4" points="76.75 64.58 76.53 63.59 76.33 63.45 75.27 64.2 75.75 64.8 76.75 64.58"/><polygon class="cls-4" points="75.3 72.55 74.85 73.69 73.65 73.77 73.57 72.56 74.5 72.02 75.3 72.55"/><polygon class="cls-4" points="70 91.58 68.39 90.61 66.94 92.3 68.11 93.58 69.81 93.56 70 91.58"/><polygon class="cls-4" points="75.42 88.81 74.52 87.73 73.57 87.87 73.55 89.34 74.81 89.63 75.42 88.81"/><polygon class="cls-4" points="68.28 83.57 66.75 83.08 66.11 83.66 66.56 85.05 68.03 85.07 68.28 83.57"/><polygon class="cls-4" points="75.22 82.75 74.39 82.15 74.16 82.18 73.86 83.44 74.61 83.57 75.22 82.75"/><polygon class="cls-4" points="79.44 89.65 79.86 90.8 79.02 91.66 78.16 90.82 78.49 89.8 79.44 89.65"/><polygon class="cls-4" points="98.71 83.94 100.42 84.71 101.66 82.86 100.34 81.73 98.65 81.96 98.71 83.94"/><polygon class="cls-4" points="93.67 87.35 94.69 88.32 95.61 88.06 95.46 86.6 94.17 86.46 93.67 87.35"/><polygon class="cls-4" points="101.38 91.69 102.97 92 103.53 91.34 102.91 90.01 101.45 90.17 101.38 91.69"/><polygon class="cls-4" points="94.6 93.34 95.49 93.84 95.72 93.78 95.86 92.49 95.1 92.45 94.6 93.34"/><polygon class="cls-4" points="89.57 87 89.01 85.91 89.75 84.95 90.7 85.69 90.5 86.74 89.57 87"/><polygon class="cls-4" points="46.08 52.22 45.52 50.42 43.32 50.71 43.34 52.45 44.63 53.57 46.08 52.22"/><polygon class="cls-4" points="51.97 53.75 52.02 52.35 51.21 51.82 50.23 52.9 50.97 53.96 51.97 53.75"/><polygon class="cls-4" points="50.13 45.09 49.32 43.7 48.45 43.71 47.86 45.05 48.94 46.04 50.13 45.09"/><polygon class="cls-4" points="55.85 49.1 55.64 48.1 55.44 47.97 54.38 48.71 54.86 49.31 55.85 49.1"/><polygon class="cls-4" points="54.41 57.06 53.96 58.2 52.76 58.28 52.68 57.08 53.6 56.53 54.41 57.06"/><polygon class="cls-4" points="49.11 76.1 47.5 75.13 46.05 76.81 47.22 78.09 48.92 78.07 49.11 76.1"/><polygon class="cls-4" points="54.52 73.32 53.63 72.24 52.68 72.39 52.66 73.85 53.92 74.14 54.52 73.32"/><polygon class="cls-4" points="47.39 68.08 45.85 67.59 45.21 68.17 45.67 69.56 47.13 69.58 47.39 68.08"/><polygon class="cls-4" points="54.33 67.26 53.5 66.66 53.26 66.7 52.97 67.96 53.72 68.09 54.33 67.26"/><polygon class="cls-4" points="58.55 74.16 58.97 75.32 58.13 76.18 57.27 75.33 57.6 74.31 58.55 74.16"/><polygon class="cls-4" points="77.82 68.45 79.53 69.22 80.77 67.38 79.45 66.25 77.76 66.47 77.82 68.45"/><polygon class="cls-4" points="72.78 71.86 73.8 72.83 74.72 72.57 74.56 71.11 73.28 70.97 72.78 71.86"/><polygon class="cls-4" points="80.49 76.2 82.07 76.51 82.64 75.85 82.02 74.52 80.56 74.68 80.49 76.2"/><polygon class="cls-4" points="73.7 77.85 74.59 78.35 74.83 78.29 74.96 77 74.2 76.96 73.7 77.85"/><polygon class="cls-4" points="68.68 71.51 68.12 70.42 68.85 69.47 69.81 70.2 69.61 71.25 68.68 71.51"/><polygon class="cls-3" points="61.64 66.99 60.68 66.72 60.18 67.78 60.96 68.27 61.82 68.02 61.64 66.99"/><polygon class="cls-3" points="64 64.81 63.4 64.39 62.93 64.6 63.13 65.35 63.81 65.32 64 64.81"/><polygon class="cls-3" points="59.64 63.15 58.79 63.12 58.55 63.51 58.97 64.15 59.72 63.95 59.64 63.15"/><polygon class="cls-3" points="63.05 61.76 62.55 61.57 62.43 61.62 62.46 62.3 62.86 62.27 63.05 61.76"/><polygon class="cls-3" points="66.17 64.68 66.55 65.21 66.24 65.76 65.68 65.45 65.71 64.89 66.17 64.68"/><polygon class="cls-3" points="73.1 72.48 72.21 72.92 72.54 74.04 73.44 73.89 73.92 73.13 73.1 72.48"/><polygon class="cls-3" points="73.42 69.28 72.68 69.37 72.47 69.83 73.12 70.26 73.61 69.78 73.42 69.28"/><polygon class="cls-3" points="69.05 70.95 68.39 71.49 68.47 71.94 69.22 72.14 69.64 71.49 69.05 70.95"/><polygon class="cls-3" points="70.67 67.64 70.17 67.83 70.12 67.94 70.59 68.44 70.87 68.14 70.67 67.64"/><polygon class="cls-3" points="74.94 67.74 75.57 67.88 75.72 68.5 75.09 68.64 74.73 68.2 74.94 67.74"/><polygon class="cls-3" points="77.92 57.56 78.75 57.02 78.29 55.94 77.41 56.2 77.03 57.01 77.92 57.56"/><polygon class="cls-3" points="77.99 60.77 78.71 60.59 78.86 60.11 78.17 59.76 77.74 60.29 77.99 60.77"/><polygon class="cls-3" points="82.12 58.59 82.71 57.97 82.58 57.53 81.82 57.43 81.47 58.12 82.12 58.59"/><polygon class="cls-3" points="80.92 62.07 81.39 61.82 81.43 61.7 80.9 61.27 80.66 61.59 80.92 62.07"/><polygon class="cls-3" points="76.67 62.49 76.02 62.42 75.81 61.82 76.41 61.61 76.81 62 76.67 62.49"/><polygon class="cls-3" points="50.62 79.87 49.66 79.6 49.17 80.66 49.94 81.15 50.8 80.9 50.62 79.87"/><polygon class="cls-3" points="52.99 77.7 52.38 77.27 51.91 77.48 52.11 78.23 52.79 78.2 52.99 77.7"/><polygon class="cls-3" points="48.62 76.03 47.77 76 47.53 76.39 47.95 77.03 48.7 76.83 48.62 76.03"/><polygon class="cls-3" points="52.03 74.64 51.53 74.45 51.41 74.5 51.44 75.19 51.84 75.15 52.03 74.64"/><polygon class="cls-3" points="55.15 77.56 55.53 78.09 55.22 78.64 54.66 78.33 54.69 77.77 55.15 77.56"/><polygon class="cls-3" points="62.08 85.36 61.19 85.8 61.52 86.92 62.43 86.77 62.91 86.01 62.08 85.36"/><polygon class="cls-3" points="62.4 82.16 61.66 82.25 61.45 82.72 62.1 83.14 62.59 82.67 62.4 82.16"/><polygon class="cls-3" points="58.03 83.83 57.38 84.37 57.45 84.82 58.2 85.02 58.63 84.37 58.03 83.83"/><polygon class="cls-3" points="59.66 80.52 59.15 80.71 59.1 80.83 59.58 81.32 59.85 81.02 59.66 80.52"/><polygon class="cls-3" points="63.92 80.62 64.56 80.76 64.7 81.38 64.08 81.52 63.72 81.08 63.92 80.62"/><polygon class="cls-3" points="66.9 70.44 67.73 69.9 67.27 68.82 66.39 69.08 66.01 69.89 66.9 70.44"/><polygon class="cls-3" points="66.97 73.65 67.69 73.47 67.84 72.99 67.15 72.64 66.72 73.17 66.97 73.65"/><polygon class="cls-3" points="71.11 71.47 71.69 70.85 71.56 70.42 70.8 70.31 70.45 71 71.11 71.47"/><polygon class="cls-3" points="69.9 74.95 70.37 74.7 70.41 74.58 69.88 74.15 69.64 74.47 69.9 74.95"/><polygon class="cls-3" points="65.65 75.37 65 75.3 64.79 74.7 65.39 74.49 65.8 74.88 65.65 75.37"/><polygon points="90.69 41.59 91.32 40.82 90.55 39.94 89.79 40.45 89.68 41.34 90.69 41.59"/><polygon points="91.75 44.62 92.38 44.23 92.37 43.73 91.61 43.61 91.36 44.25 91.75 44.62"/><polygon points="95.01 41.28 95.38 40.52 95.12 40.14 94.36 40.27 94.25 41.04 95.01 41.28"/><polygon points="94.93 44.97 95.3 44.58 95.3 44.45 94.66 44.21 94.54 44.59 94.93 44.97"/><polygon points="91.01 46.66 90.38 46.8 89.99 46.3 90.49 45.91 91 46.16 91.01 46.66"/><polygon points="81.09 49.91 81.05 48.92 79.89 48.78 79.67 49.66 80.17 50.41 81.09 49.91"/><polygon points="83.9 51.48 84.11 50.77 83.77 50.39 83.12 50.81 83.36 51.45 83.9 51.48"/><polygon points="84.11 46.81 83.88 45.99 83.43 45.88 82.96 46.49 83.38 47.14 84.11 46.81"/><polygon points="86.5 49.62 86.53 49.08 86.44 48.98 85.8 49.22 85.96 49.59 86.5 49.62"/><polygon points="84.71 53.49 84.32 54.01 83.7 53.89 83.82 53.27 84.36 53.12 84.71 53.49"/><polygon points="92.86 60.28 93.02 61.26 94.19 61.26 94.3 60.35 93.71 59.67 92.86 60.28"/><polygon points="89.88 59.06 89.76 59.8 90.14 60.13 90.73 59.63 90.42 59.02 89.88 59.06"/><polygon points="90.23 63.72 90.56 64.51 91.02 64.56 91.42 63.9 90.92 63.31 90.23 63.72"/><polygon points="87.52 61.23 87.56 61.76 87.66 61.85 88.27 61.53 88.06 61.19 87.52 61.23"/><polygon points="88.84 57.16 89.15 56.6 89.79 56.64 89.75 57.27 89.22 57.49 88.84 57.16"/><polygon points="35.86 45.95 36.03 44.97 34.93 44.58 34.52 45.4 34.85 46.23 35.86 45.95"/><polygon points="38.25 48.09 38.62 47.44 38.36 47 37.64 47.27 37.73 47.95 38.25 48.09"/><polygon points="39.48 43.58 39.43 42.73 39.02 42.53 38.42 43.02 38.69 43.74 39.48 43.58"/><polygon points="41.2 46.84 41.34 46.32 41.28 46.21 40.6 46.31 40.68 46.7 41.2 46.84"/><polygon points="38.6 50.23 38.11 50.66 37.53 50.41 37.78 49.82 38.35 49.79 38.6 50.23"/><polygon points="31.52 57.89 31 57.05 29.91 57.49 30.15 58.37 30.95 58.77 31.52 57.89"/><polygon points="34.73 57.89 34.57 57.17 34.09 57.01 33.73 57.69 34.25 58.13 34.73 57.89"/><polygon points="32.65 53.71 32.04 53.11 31.6 53.23 31.48 53.99 32.16 54.36 32.65 53.71"/><polygon points="36.1 55 35.86 54.52 35.74 54.48 35.3 55 35.62 55.24 36.1 55"/><polygon points="36.42 59.26 36.34 59.9 35.73 60.1 35.53 59.5 35.94 59.1 36.42 59.26"/><polygon points="46.84 61.23 47.46 62 48.49 61.43 48.14 60.58 47.29 60.28 46.84 61.23"/><polygon points="43.65 61.61 43.9 62.31 44.4 62.41 44.67 61.69 44.1 61.31 43.65 61.61"/><polygon points="46.23 65.51 46.9 66.03 47.32 65.86 47.35 65.09 46.63 64.81 46.23 65.51"/><polygon points="42.64 64.65 42.94 65.1 43.06 65.12 43.44 64.55 43.09 64.35 42.64 64.65"/><polygon points="41.81 60.46 41.82 59.81 42.39 59.54 42.66 60.11 42.31 60.56 41.81 60.46"/><polygon class="cls-4" points="45.52 52.24 44.76 50.93 43.09 51.56 43.42 52.92 44.63 53.57 45.52 52.24"/><polygon class="cls-4" points="50.42 52.39 50.21 51.28 49.48 51.01 48.9 52.04 49.68 52.73 50.42 52.39"/><polygon class="cls-4" points="47.42 45.92 46.53 44.98 45.85 45.14 45.64 46.3 46.66 46.88 47.42 45.92"/><polygon class="cls-4" points="52.63 48.04 52.29 47.29 52.11 47.23 51.41 48 51.89 48.38 52.63 48.04"/><polygon class="cls-4" points="52.93 54.55 52.78 55.52 51.85 55.8 51.58 54.87 52.21 54.28 52.93 54.55"/><polygon class="cls-4" points="52.19 70.44 50.76 69.97 49.92 71.55 51.07 72.35 52.41 72.03 52.19 70.44"/><polygon class="cls-4" points="55.95 67.29 55.05 66.6 54.33 66.89 54.58 68.04 55.62 68.05 55.95 67.29"/><polygon class="cls-4" points="49.41 64.46 48.11 64.35 47.71 64.93 48.32 65.94 49.47 65.69 49.41 64.46"/><polygon class="cls-4" points="54.7 62.57 53.95 62.25 53.77 62.32 53.76 63.36 54.38 63.33 54.7 62.57"/><polygon class="cls-4" points="59.26 67.23 59.79 68.06 59.29 68.88 58.46 68.38 58.54 67.51 59.26 67.23"/><polygon class="cls-4" points="73.35 59.28 74.84 59.58 75.47 57.91 74.24 57.26 72.95 57.73 73.35 59.28"/><polygon class="cls-4" points="70.01 62.87 70.98 63.44 71.67 63.07 71.28 61.95 70.24 62.08 70.01 62.87"/><polygon class="cls-4" points="76.84 64.88 78.14 64.84 78.47 64.22 77.74 63.29 76.63 63.68 76.84 64.88"/><polygon class="cls-4" points="71.81 67.4 72.6 67.63 72.77 67.54 72.65 66.5 72.05 66.61 71.81 67.4"/><polygon class="cls-4" points="66.73 63.33 66.1 62.57 66.5 61.69 67.38 62.09 67.41 62.96 66.73 63.33"/><polygon class="cls-4" points="84.81 65.4 85.73 64.2 84.5 62.9 83.38 63.73 83.25 65.09 84.81 65.4"/><polygon class="cls-4" points="86.58 69.98 87.52 69.35 87.49 68.58 86.32 68.44 85.97 69.42 86.58 69.98"/><polygon class="cls-4" points="91.38 64.7 91.9 63.52 91.49 62.95 90.34 63.2 90.2 64.37 91.38 64.7"/><polygon class="cls-4" points="91.45 70.33 92 69.72 91.99 69.53 91.01 69.18 90.84 69.77 91.45 70.33"/><polygon class="cls-4" points="85.57 73.13 84.61 73.37 83.99 72.62 84.74 72 85.53 72.35 85.57 73.13"/><polygon class="cls-4" points="70.63 78.61 70.51 77.11 68.73 76.95 68.44 78.32 69.25 79.42 70.63 78.61"/><polygon class="cls-4" points="74.99 80.85 75.28 79.75 74.73 79.2 73.77 79.88 74.17 80.84 74.99 80.85"/><polygon class="cls-4" points="75.06 73.72 74.66 72.49 73.98 72.34 73.28 73.3 73.96 74.26 75.06 73.72"/><polygon class="cls-4" points="78.86 77.87 78.86 77.05 78.73 76.91 77.77 77.31 78.03 77.86 78.86 77.87"/><polygon class="cls-4" points="76.33 83.88 75.78 84.69 74.82 84.55 74.97 83.59 75.79 83.32 76.33 83.88"/><polygon class="cls-4" points="89.13 93.78 89.43 95.27 91.22 95.21 91.34 93.81 90.4 92.82 89.13 93.78"/><polygon class="cls-4" points="84.53 92.09 84.38 93.21 84.98 93.7 85.86 92.91 85.34 92 84.53 92.09"/><polygon class="cls-4" points="85.32 99.17 85.87 100.36 86.56 100.42 87.14 99.39 86.35 98.51 85.32 99.17"/><polygon class="cls-4" points="81.05 95.52 81.14 96.33 81.29 96.45 82.2 95.94 81.87 95.43 81.05 95.52"/><polygon class="cls-4" points="82.83 89.25 83.28 88.37 84.25 88.4 84.22 89.37 83.44 89.73 82.83 89.25"/><polygon class="cls-4" points="66.81 94.72 68.12 95.49 69.27 94.13 68.32 93.11 66.95 93.13 66.81 94.72"/><polygon class="cls-4" points="62.47 97 63.2 97.86 63.97 97.74 63.97 96.56 62.95 96.33 62.47 97"/><polygon class="cls-4" points="68.25 101.16 69.49 101.55 70 101.08 69.63 99.96 68.45 99.95 68.25 101.16"/><polygon class="cls-4" points="62.67 101.87 63.34 102.35 63.53 102.32 63.76 101.31 63.16 101.21 62.67 101.87"/><polygon class="cls-4" points="59.23 96.35 58.88 95.42 59.55 94.72 60.25 95.4 59.99 96.22 59.23 96.35"/><polygon class="cls-4" points="52.08 82.13 53.56 81.83 53.51 80.05 52.12 79.92 51.12 80.85 52.08 82.13"/><polygon class="cls-4" points="50.35 86.72 51.47 86.88 51.96 86.27 51.18 85.39 50.27 85.9 50.35 86.72"/><polygon class="cls-4" points="57.44 85.97 58.62 85.44 58.69 84.74 57.66 84.16 56.78 84.94 57.44 85.97"/><polygon class="cls-4" points="53.75 90.22 54.57 90.13 54.69 89.98 54.18 89.07 53.66 89.4 53.75 90.22"/><polygon class="cls-4" points="47.5 88.39 46.62 87.93 46.66 86.97 47.63 87 47.99 87.79 47.5 88.39"/><polygon class="cls-4" points="39.1 102.23 37.67 102.7 37.93 104.47 39.33 104.43 40.21 103.38 39.1 102.23"/><polygon class="cls-4" points="40.26 97.47 39.13 97.44 38.72 98.1 39.6 98.88 40.45 98.27 40.26 97.47"/><polygon class="cls-4" points="33.32 99.06 32.21 99.73 32.23 100.43 33.31 100.89 34.1 100 33.32 99.06"/><polygon class="cls-4" points="36.47 94.4 35.67 94.58 35.56 94.75 36.18 95.59 36.65 95.2 36.47 94.4"/><polygon class="cls-4" points="42.89 95.46 43.82 95.81 43.9 96.77 42.93 96.85 42.48 96.11 42.89 95.46"/></g></g></svg>