<svg xmlns="http://www.w3.org/2000/svg" viewBox="0 0 124.72 189.38"><defs><style>.cls-1{fill:#51666d;}.cls-2,.cls-3{fill:#fff;}.cls-2{stroke:#000;stroke-miterlimit:10;stroke-width:1.86px;}.cls-4{fill:#216d5e;}</style></defs><title>Element 41</title><g id="Ebene_2" data-name="Ebene 2"><g id="Ebene_1-2" data-name="Ebene 1"><path d="M124.72,178.58V11.34A11.37,11.37,0,0,0,113.39,0h-102A11.37,11.37,0,0,0,0,11.34V178.58a11.38,11.38,0,0,0,7.89,10.8H116.83A11.38,11.38,0,0,0,124.72,178.58Z"/><path class="cls-1" d="M120.11,172.29V17.59A10.52,10.52,0,0,0,109.62,7.1H15.22A10.52,10.52,0,0,0,4.73,17.59V172.29a10.53,10.53,0,0,0,7.3,10H112.8A10.53,10.53,0,0,0,120.11,172.29Z"/><rect class="cls-2" x="93.97" y="110.88" width="15.81" height="15.81" transform="translate(113.83 -37.25) rotate(45)"/><rect x="100.21" y="113.19" width="3.33" height="10.56"/><rect x="100.21" y="113.19" width="3.33" height="10.56" transform="translate(-16.6 220.35) rotate(-90)"/><polygon class="cls-2" points="12.26 128.36 24.55 109.85 36.85 128.36 12.26 128.36"/><polygon points="25.8 121.84 25.8 115.01 24.55 112.11 23.31 115.01 23.31 121.84 21.45 121.84 21.45 122.67 23.93 123.29 23.93 124.94 23.31 125.67 23.93 126.39 24.55 127.01 25.17 126.39 25.8 125.67 25.17 124.94 25.17 123.29 27.66 122.67 27.66 121.84 25.8 121.84"/><polygon points="25.05 9.58 7.03 22.31 13.91 42.91 36.2 42.91 43.08 22.31 25.05 9.58"/><polygon class="cls-3" points="35.08 28.91 34.08 22.91 32.08 20.91 31.08 18.91 31.08 21.91 30.08 24.91 28.08 24.91 29.08 23.91 28.08 22.91 26.08 20.91 27.08 19.91 28.08 19.91 29.08 21.91 29.08 19.91 27.08 18.91 25.08 19.91 23.08 18.91 21.08 19.91 21.08 21.91 22.08 19.91 23.08 19.91 24.08 20.91 22.08 22.91 21.08 23.91 22.08 24.91 20.08 24.91 19.08 21.91 19.08 18.91 18.08 20.91 16.08 22.91 15.08 28.91 17.08 33.91 17.08 30.91 20.08 29.91 20.08 30.91 23.08 28.91 23.08 30.91 22.08 33.91 24.08 31.91 25.08 30.91 26.08 31.91 28.08 33.91 27.08 30.91 27.08 28.91 30.08 30.91 30.08 29.91 33.08 30.91 33.08 33.91 35.08 28.91"/><rect class="cls-2" x="54.76" y="110.4" width="17.39" height="17.39" transform="translate(182.55 55.64) rotate(90)"/><polygon points="58.17 114.44 68.88 114.44 68.11 120.55 63.53 124.37 58.94 120.55 58.17 114.44"/><polygon points="43.67 69.81 46.22 102.97 76.08 102.97 77.78 69.81 83.51 69.81 60.14 45.76 37.23 69.81 43.67 69.81"/><polygon points="26.41 83.25 27.71 100.18 47.01 100.18 45.46 83.11 45.61 64.54 34.67 63.67 23.12 83.25 26.41 83.25"/><polygon points="69.39 100.31 92.63 100.84 92.78 79.65 95.66 79.18 89.27 63.05 74.96 65.09 72.07 83.69 69.39 100.31"/><polygon class="cls-4" points="45.7 75.31 63.64 81.6 63.64 101.64 47.62 101.7 45.7 75.31"/><polygon class="cls-4" points="59.58 47.69 39.96 69.01 67.62 68.09 59.58 47.69"/><polygon points="48.75 75.31 49.18 83.11 52.8 83.11 52.8 75.31 48.75 75.31"/><polygon points="57.3 75.31 57.73 83.11 61.35 83.11 61.35 75.31 57.3 75.31"/><polygon points="53.79 91.33 54.22 102.5 57.84 102.5 57.84 91.33 53.79 91.33"/><polygon points="69.39 56.19 70.79 53 70.79 40.97 67.62 40.97 75.55 30.36 81.14 40.97 78.65 40.97 78.65 58.35 75.55 63.67 69.39 56.19"/><polygon class="cls-4" points="75.2 32.22 74.38 39.33 69.39 40.18 75.2 32.22"/><polygon class="cls-4" points="71.61 41.89 75.2 42.41 75.2 51.48 71.61 49.17 71.61 41.89"/><polygon class="cls-3" points="38.9 63.05 38.04 60.33 39.07 57.15 42.26 55.48 42.8 52.41 42.08 50.43 44.28 52.3 44.59 54.98 45.7 53.35 47.41 51.83 47.68 50.29 46.93 48.62 47.15 46.85 48.02 48.34 49.69 49.51 49.93 52.17 48.87 54.2 48.54 56.11 49.76 56.66 41.76 65.3 38.9 63.05"/><polygon class="cls-3" points="82.53 49 86.93 45.76 86.93 40.31 88.92 36.84 91.72 36.2 89.67 38.9 89.67 42.5 91.72 45.76 90.7 49 87.13 51.48 83.51 51.48 81.14 51.48 82.53 49"/><polygon class="cls-3" points="72.29 63.67 73.56 59.57 76.53 57.3 81.14 57.3 84.7 56.19 87.1 54.49 86.43 57.3 82.53 59.57 78.03 61.1 77 63.11 78.44 64.6 82.53 65.78 86.43 63.67 90.18 61.62 92.92 61.62 95.66 63.05 91.72 63.05 88.92 65.11 88.92 68.77 87.44 70.92 85.47 73.57 83.23 75.31 80.08 75.71 78.2 75.78 79.05 77.81 82.53 79.24 85.22 78.39 87.53 80.37 84.96 79.21 83.51 79.99 81.84 81.5 78.54 81.92 73.4 80.37 72.29 69.88 70.79 67.49 72.29 63.67"/><polygon class="cls-3" points="55.68 50.45 52.8 47.37 52.43 43.84 54.05 40.97 54.67 37.01 53.28 34.63 56.79 36.59 57.65 40.18 56.88 42.54 58.25 42.54 60.37 40.97 62.02 38.98 63.64 37.8 62.36 40.97 62.53 43.84 61.6 47.27 60.14 45.76 55.68 50.45"/><polygon class="cls-3" points="59.76 30.36 57.79 32.62 57.79 34.99 58.78 37.27 58.78 39.41 59.99 37.41 59.99 34.3 59.88 32.22 61.05 29.91 59.76 30.36"/><polygon points="60.65 49.26 58.03 49.77 60.65 49.77 60.65 49.26"/><polygon points="64.41 55.21 52.8 56.08 64.41 56.08 64.41 55.21"/><polygon points="45.34 62.36 55.77 61.84 44.72 63.05 45.34 62.36"/><polygon points="28.31 96.5 29.45 106.89 30.59 106.89 30.59 96.5 28.31 96.5"/><polygon points="33.8 97.78 34.94 108.17 36.08 108.17 36.08 97.78 33.8 97.78"/><polygon points="39.29 97.78 40.43 108.17 41.57 108.17 41.57 97.78 39.29 97.78"/><polygon points="43.58 98.71 44.72 109.1 45.86 109.1 45.86 98.71 43.58 98.71"/><polygon points="23.12 96 24.26 106.39 25.4 106.39 25.4 96 23.12 96"/><polygon points="93.38 96.5 94.52 106.89 95.66 106.89 95.66 96.5 93.38 96.5"/><polygon points="62.49 99.44 63.63 109.83 64.77 109.83 64.77 99.44 62.49 99.44"/><polygon points="61.43 105.34 97.03 102.89 96.98 101.7 61.35 102.94 61.43 105.34"/><polygon points="47.04 100.56 22.13 100.63 22.08 101.77 46.94 102.84 47.04 100.56"/><polygon points="68.85 97.49 69.99 109.55 71.13 109.55 71.13 97.49 68.85 97.49"/><polygon points="75.2 97.78 76.34 108.17 77.48 108.17 77.48 97.78 75.2 97.78"/><polygon points="81.38 97.78 82.53 108.17 83.67 108.17 83.67 97.78 81.38 97.78"/><polygon points="88.46 97.31 89.6 107.7 90.75 107.7 90.75 97.31 88.46 97.31"/><polygon class="cls-4" points="73.4 66.89 74.38 63.05 76.34 59.77 78.46 59.02 76.34 61.02 75.93 64.52 78.46 68.21 84.46 68.21 87.08 65.3 85.21 69.89 80.24 72.89 76.34 72.89 76.34 76.27 78.58 79.21 81.14 80.02 77.25 80.02 74.38 79.21 73.96 75.31 73.96 71.14 73.4 66.89"/><polygon class="cls-4" points="84.79 49.26 88.04 46.69 88.04 42.91 88.71 38.85 88.71 42.91 90.04 45.76 89.12 48.68 87.08 49.77 84.79 49.26"/><path class="cls-4" d="M55.77,48.35a14.67,14.67,0,0,1-1.1-2v-3L56,39.41v3.5l1.75,2,2.08-1.09,1.48-2.57.27,3-1,.87H59.42Z"/><polygon class="cls-4" points="48.75 52.77 47.01 55.21 47.88 57.6 42.12 63.67 39.96 61.84 40.62 58.35 43.08 56.68 43.46 54.49 43.98 56.08 43.98 57.35 45.7 56.08 46.29 54.1 48.75 52.77"/></g></g></svg>