<svg xmlns="http://www.w3.org/2000/svg" viewBox="0 0 124.72 189.38"><defs><style>.cls-1{fill:#51666d;}.cls-2,.cls-3{fill:#fff;}.cls-2{stroke:#000;stroke-miterlimit:10;stroke-width:1.86px;}.cls-4{fill:#aa2c1b;}</style></defs><title>Element 26</title><g id="Ebene_2" data-name="Ebene 2"><g id="Ebene_1-2" data-name="Ebene 1"><path d="M124.72,178.58V11.34A11.37,11.37,0,0,0,113.39,0h-102A11.37,11.37,0,0,0,0,11.34V178.58a11.38,11.38,0,0,0,7.89,10.8H116.83A11.38,11.38,0,0,0,124.72,178.58Z"/><path class="cls-1" d="M120.05,172.29V17.59A10.52,10.52,0,0,0,109.56,7.1H15.16A10.52,10.52,0,0,0,4.67,17.59V172.29a10.53,10.53,0,0,0,7.3,10H112.75A10.53,10.53,0,0,0,120.05,172.29Z"/><rect class="cls-2" x="93.97" y="110.88" width="15.81" height="15.81" transform="translate(113.83 -37.25) rotate(45)"/><rect x="100.21" y="113.19" width="3.33" height="10.56"/><rect x="100.21" y="113.19" width="3.33" height="10.56" transform="translate(-16.6 220.35) rotate(-90)"/><polygon class="cls-2" points="12.26 128.36 24.55 109.85 36.85 128.36 12.26 128.36"/><polygon points="25.8 121.84 25.8 115.01 24.55 112.11 23.31 115.01 23.31 121.84 21.45 121.84 21.45 122.67 23.93 123.29 23.93 124.94 23.31 125.67 23.93 126.39 24.55 127.01 25.17 126.39 25.8 125.67 25.17 124.94 25.17 123.29 27.66 122.67 27.66 121.84 25.8 121.84"/><rect class="cls-2" x="54.76" y="110.4" width="17.39" height="17.39" transform="translate(182.55 55.64) rotate(90)"/><polygon points="58.17 114.44 68.88 114.44 68.11 120.55 63.53 124.37 58.94 120.55 58.17 114.44"/><polygon points="25.03 8.63 7 21.36 13.89 41.96 36.17 41.96 43.05 21.36 25.03 8.63"/><polygon class="cls-3" points="17.05 26.96 18.05 21.96 25.05 20.96 28.05 24.96 27.05 25.96 24.05 23.96 21.05 24.96 21.05 27.96 18.05 28.96 17.05 26.96"/><polygon class="cls-3" points="32.05 21.96 29.05 22.96 29.05 25.96 33.05 24.96 32.05 21.96"/><polygon class="cls-3" points="28.05 26.96 32.05 26.96 32.05 28.96 29.05 29.96 28.05 26.96"/><polygon class="cls-3" points="27.05 20.96 28.05 22.96 31.05 20.96 29.05 18.96 27.05 20.96"/><polygon class="cls-3" points="28.05 30.96 31.05 30.96 30.05 32.96 28.05 32.96 28.05 30.96"/><polygon points="68.65 50.55 73.95 51.65 75.18 53.14 70.37 55.37 68.65 50.55"/><path d="M94.11,98.36l-20-40.09,7.31-3.15,4.22-.29L81.12,52l-9,.9L75,51.88l.61-4.58-3-1.15.15-4-3.17-1.61-.11-3.34-9.09-3-1.88.69-1-1L54.7,33l-3.3.84-1.92,2.71-.09,2.72s.78.54,1.36.89l-3.28,3.6-6.2,4.14,1,13.89L46.53,66l6.57-1,4.75-2.55,2.42-1.62-3.64,4.5L57,71.62l2.42-4,4.78-3.81,23.53,40.23,7.87,8Z"/><polygon class="cls-4" points="73.02 58.22 93.62 98.67 95.09 110.88 68.06 60.01 73.02 58.22"/><polygon class="cls-4" points="61.1 35.44 68.22 37.85 68.67 39.91 61.1 35.44"/><polygon class="cls-4" points="63.97 39.3 71.88 42.78 71.91 46.18 63.97 39.3"/><polygon class="cls-4" points="65.83 44.87 74.18 48.09 73.56 50.96 65.83 44.87"/><polygon class="cls-4" points="67.24 48.97 72.89 52.31 70.46 52.96 67.24 48.97"/><polygon class="cls-4" points="72.8 57.69 73.86 57.87 81.02 54.91 84.72 54.72 82.39 53.34 68.44 58.23 72.8 57.69"/><polygon class="cls-4" points="63.82 63.45 59.17 67.45 57.27 70.83 58.61 66.98 63.03 62.35 63.82 63.45"/><polygon points="79.54 69.55 77.59 71.52 79.79 70.38 79.54 69.55"/><polygon points="88.3 87.12 86.19 89.69 88.2 88.07 88.3 87.12"/><polygon points="80.24 71.31 78.69 72.54 80.15 71.71 80.24 71.31"/><polygon points="48.29 64.05 46.36 70.4 41.19 81.45 34.4 71.85 33.66 58.38 35.86 48.1 37.52 44.51 42.95 47.07 48.29 64.05"/></g></g></svg>