<svg xmlns="http://www.w3.org/2000/svg" viewBox="0 0 124.72 189.38"><defs><style>.cls-1{fill:#51666d;}.cls-2,.cls-3{fill:#fff;}.cls-2{stroke:#000;stroke-miterlimit:10;stroke-width:1.86px;}.cls-4{fill:#b5875d;}</style></defs><title>Element 29</title><g id="Ebene_2" data-name="Ebene 2"><g id="Ebene_1-2" data-name="Ebene 1"><path d="M124.72,178.58V11.34A11.37,11.37,0,0,0,113.39,0h-102A11.37,11.37,0,0,0,0,11.34V178.58a11.38,11.38,0,0,0,7.9,10.8H116.83A11.38,11.38,0,0,0,124.72,178.58Z"/><path class="cls-1" d="M120.66,173.36V18.65A10.52,10.52,0,0,0,110.17,8.16H15.78A10.52,10.52,0,0,0,5.29,18.65V173.36a10.53,10.53,0,0,0,7.3,10H113.36A10.53,10.53,0,0,0,120.66,173.36Z"/><rect class="cls-2" x="93.97" y="110.88" width="15.81" height="15.81" transform="translate(113.83 -37.25) rotate(45)"/><rect x="100.21" y="113.19" width="3.33" height="10.56"/><rect x="100.21" y="113.19" width="3.33" height="10.56" transform="translate(-16.6 220.35) rotate(-90)"/><rect class="cls-2" x="54.76" y="110.4" width="17.39" height="17.39" transform="translate(182.55 55.64) rotate(90)"/><polygon points="58.17 114.44 68.88 114.44 68.11 120.55 63.53 124.37 58.94 120.55 58.17 114.44"/><polygon class="cls-2" points="12.26 128.36 24.55 109.85 36.85 128.36 12.26 128.36"/><polygon points="25.8 121.84 25.8 115.01 24.55 112.11 23.31 115.01 23.31 121.84 21.45 121.84 21.45 122.67 23.93 123.29 23.93 124.94 23.31 125.67 23.93 126.39 24.55 127.01 25.17 126.39 25.8 125.67 25.17 124.94 25.17 123.29 27.66 122.67 27.66 121.84 25.8 121.84"/><polygon points="25.66 9.1 7.63 21.84 14.52 42.44 36.8 42.44 43.69 21.84 25.66 9.1"/><polygon class="cls-3" points="28.28 19.9 31.24 23.98 33.66 26.77 35.8 29.29 37.16 32.32 30.53 33.15 24.53 33.15 18.53 33.15 14.53 32.15 16.41 29.15 20.37 22.73 21.87 23.69 23.83 20.86 24.83 17.98 25.66 16.4 28.28 19.9"/><polygon points="23.56 64.18 30.73 64.95 36.17 68.88 42.03 71.45 43.81 70.53 47.9 74.03 50.81 76.73 54.74 78.45 60.56 78.8 63.4 80.31 65.44 79.53 68.02 73.67 71.14 73.16 74.76 75.78 72.19 81.64 71.8 85.23 76.78 88.27 82.18 89.96 84.03 93.5 82.76 97.55 78.29 97.63 71.97 94.17 67.03 93.36 65.76 97.41 64.03 100.57 58.21 100.23 56.82 97.57 58.94 90.83 53.48 88.32 48.44 87.66 46.34 84.72 41.81 83.98 35.53 82.75 31.86 77.9 26 75.32 15.51 63.88 19.55 65.15 20.86 63.34 23.56 64.18"/><polygon class="cls-4" points="60.41 97.96 63.83 89.4 65.6 88.47 66.87 84.42 66.41 83.53 69.45 78.56 72.57 78.06 70.41 82.57 70.5 87.04 65.68 92.94 64.41 96.99 62.64 97.92 60.41 97.96"/><polygon class="cls-3" points="17.32 65.19 26.56 72.35 29.2 72.8 31.4 77.01 26.89 74.86 17.32 65.19"/><polygon class="cls-3" points="34.06 75.62 36.84 80.94 46.24 81.66 50.33 85.17 45.82 83.01 35.95 81.4 32.75 77.44 34.06 75.62"/><polyline class="cls-3" points="51.26 86.94 55.27 85.97 61.13 88.55 59.36 89.48 53.5 86.9 51.26 86.94"/><polygon class="cls-4" points="73.16 87.44 71.16 89.44 71.16 90.44 76.16 92.44 78.16 94.44 82.16 94.44 83.16 93.44 82.16 91.44 77.16 89.44 73.16 87.44"/><polygon points="58.05 25.52 64.6 30.82 67.44 38.13 71.55 44.38 73.88 44.6 75.67 50.63 76.81 55.14 79.57 59.32 85.07 63.35 86.9 66.64 89.39 67.17 95.64 63.05 99.03 64.54 100.92 69.41 94.67 73.52 92.02 76.8 94.97 82.94 99.19 88.03 98.76 92.68 94.94 95.85 90.5 93.09 86.5 85.68 82.17 81.75 78.35 84.92 74.64 86.92 69.15 82.89 69.47 79.4 75.83 74.12 72.08 68.2 67.55 64.35 67.35 60.13 63.38 56.53 58 51.34 57.48 44.25 53.37 38 50.33 20.11 53.5 23.92 55.94 22.98 58.05 25.52"/><polygon class="cls-4" points="72.75 82.05 81.55 75.83 83.87 76.04 87.69 72.88 87.8 71.71 93.94 68.76 97.32 70.25 92.34 73.31 89.58 77.75 81.11 80.48 77.3 83.65 74.97 83.43 72.75 82.05"/><polygon class="cls-3" points="51.28 22.54 55.81 35.44 58.1 37.56 57.59 43.08 54.53 38.1 51.28 22.54"/><polygon class="cls-3" points="61.08 43.41 60.43 50.39 69.2 57.07 70.99 63.11 67.93 58.13 59.27 50.28 58.65 44.36 61.08 43.41"/><polyline class="cls-3" points="70.77 65.44 75.32 67.03 79.43 73.28 77.11 73.07 72.99 66.82 70.77 65.44"/><polygon class="cls-4" points="91.53 79.7 88.29 80.36 87.64 81.33 91.22 86.51 91.88 89.75 95.77 92.33 97.39 92 97.71 89.41 94.13 84.23 91.53 79.7"/></g></g></svg>