<svg xmlns="http://www.w3.org/2000/svg" viewBox="0 0 124.72 189.38"><defs><style>.cls-1{fill:#51666d;}.cls-2,.cls-3{fill:#fff;}.cls-2{stroke:#000;stroke-miterlimit:10;stroke-width:1.86px;}.cls-4{fill:#7d4ba3;}</style></defs><title>Element 34</title><g id="Ebene_2" data-name="Ebene 2"><g id="Ebene_1-2" data-name="Ebene 1"><path d="M124.72,178.58V11.34A11.37,11.37,0,0,0,113.39,0h-102A11.37,11.37,0,0,0,0,11.34V178.58a11.38,11.38,0,0,0,7.9,10.8H116.83A11.38,11.38,0,0,0,124.72,178.58Z"/><path class="cls-1" d="M120.66,173.36V18.65A10.52,10.52,0,0,0,110.17,8.16H15.78A10.52,10.52,0,0,0,5.29,18.65V173.36a10.53,10.53,0,0,0,7.3,10H113.36A10.53,10.53,0,0,0,120.66,173.36Z"/><rect class="cls-2" x="93.97" y="110.88" width="15.81" height="15.81" transform="translate(113.83 -37.25) rotate(45)"/><rect x="100.21" y="113.19" width="3.33" height="10.56"/><rect x="100.21" y="113.19" width="3.33" height="10.56" transform="translate(-16.6 220.35) rotate(-90)"/><rect class="cls-2" x="54.76" y="110.4" width="17.39" height="17.39" transform="translate(182.55 55.64) rotate(90)"/><polygon points="58.17 114.44 68.88 114.44 68.11 120.55 63.53 124.37 58.94 120.55 58.17 114.44"/><polygon class="cls-2" points="12.26 128.36 24.55 109.85 36.85 128.36 12.26 128.36"/><polygon points="25.8 121.84 25.8 115.01 24.55 112.11 23.31 115.01 23.31 121.84 21.45 121.84 21.45 122.67 23.93 123.29 23.93 124.94 23.31 125.67 23.93 126.39 24.55 127.01 25.17 126.39 25.8 125.67 25.17 124.94 25.17 123.29 27.66 122.67 27.66 121.84 25.8 121.84"/><polygon points="25.67 10.04 7.64 22.78 14.53 43.38 36.81 43.38 43.7 22.78 25.67 10.04"/><polygon class="cls-3" points="28.68 20.48 27.05 24.06 27.22 28.45 29.07 31.02 28.94 27.51 30.57 23.93 33.14 22.08 31.32 20.39 28.68 20.48"/><polygon class="cls-3" points="30.19 37.24 26.84 35.14 24.61 31.35 24.84 28.16 26.62 31.18 29.98 33.29 33.22 33.41 32.55 35.85 30.19 37.24"/><polygon class="cls-3" points="21.63 36.81 18.28 34.7 16.05 30.92 16.28 27.72 18.06 30.75 21.42 32.85 24.66 32.98 23.99 35.42 21.63 36.81"/><polygon class="cls-3" points="21.27 19.86 19.2 23.21 18.81 27.59 20.33 30.37 20.64 26.87 22.71 23.52 25.49 22.01 23.9 20.1 21.27 19.86"/><polygon class="cls-3" points="57.56 47.36 63.89 41.02 71.49 41.02 80.36 46.09 81.63 51.16 89.23 49.89 96.83 52.43 99.37 58.76 98.1 62.56 104.43 67.63 104.43 72.7 105.7 79.03 101.9 85.37 100.63 91.7 94.41 95.52 87.96 96.77 87.96 103.1 82.9 106.9 74.03 106.9 70.23 104.37 63.89 106.9 55.02 105.64 51.22 100.57 46.16 100.57 39.82 96.77 38.55 91.7 33.49 89.17 30.95 84.1 30.95 76.5 37.29 70.16 37.29 65.09 39.82 62.56 42.83 61.29 42.35 57.49 42.81 50.57 51.22 46.09 57.56 47.36"/><polygon points="36.7 75.96 39.7 101.96 82.7 101.96 95.7 81.96 95.7 56.96 54.7 56.96 36.7 75.96"/><polygon class="cls-4" points="41.7 73.96 76.7 73.96 91.21 59.21 55.7 58.96 41.7 73.96"/><polygon points="35.7 58.96 35.7 64.96 79.7 64.96 95.7 56.96 96.7 50.96 54.7 50.96 35.7 58.96"/><polygon class="cls-4" points="49.7 82.96 52.7 84.96 54.7 80.96 59.7 80.96 61.7 83.96 56.7 88.96 56.7 92.96 60.7 92.96 59.7 88.96 64.7 84.96 62.7 78.96 53.7 77.96 49.7 82.96"/><polygon class="cls-4" points="56.7 95.96 60.7 95.96 61.7 98.96 56.7 98.96 56.7 95.96"/></g></g></svg>