<svg xmlns="http://www.w3.org/2000/svg" viewBox="0 0 124.72 189.38"><defs><style>.cls-1{fill:#51666d;}.cls-2,.cls-3{fill:#fff;}.cls-2{stroke:#000;stroke-miterlimit:10;stroke-width:1.86px;}.cls-4{fill:#ffdb45;}</style></defs><title>Element 19</title><g id="Ebene_2" data-name="Ebene 2"><g id="Ebene_1-2" data-name="Ebene 1"><path d="M124.72,178.58V11.34A11.37,11.37,0,0,0,113.39,0h-102A11.37,11.37,0,0,0,0,11.34V178.58a11.38,11.38,0,0,0,7.89,10.8H116.83A11.38,11.38,0,0,0,124.72,178.58Z"/><path class="cls-1" d="M120.05,172.29V17.59A10.52,10.52,0,0,0,109.56,7.1H15.16A10.52,10.52,0,0,0,4.67,17.59V172.29a10.53,10.53,0,0,0,7.3,10H112.75A10.53,10.53,0,0,0,120.05,172.29Z"/><rect class="cls-2" x="93.97" y="110.88" width="15.81" height="15.81" transform="translate(113.83 -37.25) rotate(45)"/><rect x="100.21" y="113.19" width="3.33" height="10.56"/><rect x="100.21" y="113.19" width="3.33" height="10.56" transform="translate(-16.6 220.35) rotate(-90)"/><polygon class="cls-2" points="12.26 128.36 24.55 109.85 36.85 128.36 12.26 128.36"/><polygon points="25.8 121.84 25.8 115.01 24.55 112.11 23.31 115.01 23.31 121.84 21.45 121.84 21.45 122.67 23.93 123.29 23.93 124.94 23.31 125.67 23.93 126.39 24.55 127.01 25.17 126.39 25.8 125.67 25.17 124.94 25.17 123.29 27.66 122.67 27.66 121.84 25.8 121.84"/><rect class="cls-2" x="54.76" y="110.4" width="17.39" height="17.39" transform="translate(182.55 55.64) rotate(90)"/><polygon points="58.17 114.44 68.88 114.44 68.11 120.55 63.53 124.37 58.94 120.55 58.17 114.44"/><polygon points="25.03 8.63 7 21.36 13.89 41.96 36.17 41.96 43.05 21.36 25.03 8.63"/><polygon class="cls-3" points="26.45 20.48 21.14 25.8 25.7 30.36 23.41 37.96 27.21 31.12 24.18 26.56 29.5 21.24 30.25 24.28 32.53 26.56 31.02 31.12 34.05 25.8 31.77 22.76 31.02 18.96 24.93 15.16 20.38 18.96 19.61 22.76 15.05 24.28 15.81 28.08 16.57 25.04 21.14 24.28 22.66 19.72 24.93 18.96 26.45 20.48"/><polygon class="cls-4" points="97.06 75.96 89.06 77.96 80.06 74.96 79.06 68.96 67.97 66.41 67.06 59.96 75.06 44.96 67.06 42.96 61.24 53.87 51.05 58.96 46.05 55.96 40.05 62.96 45.05 69.96 40.05 75.96 42.05 84.96 42.05 76.96 47.05 71.96 44.05 63.96 48.05 59.96 53.05 62.96 59.8 59.59 65.06 70.96 61.05 85.96 67.06 105.96 65.06 88.96 69.06 73.96 68.45 69.76 68.45 69.76 77.06 71.96 78.06 75.96 81.06 77.96 78.06 82.96 80.06 89.96 79.06 94.96 82.06 89.96 80.06 82.96 84.06 77.96 90.06 79.96 97.06 77.96 102.06 79.96 97.06 75.96"/><polygon class="cls-3" points="85.06 52.96 88.06 60.96 99.06 67.96 99.06 75.96 97.06 68.96 86.06 63.96 85.06 52.96"/><polygon class="cls-3" points="56.55 74.29 48.45 85.03 49.32 95 44.03 103.48 44.55 109.46 41.87 101.67 47.24 94.17 46.28 83.21 56.55 74.29"/><polygon points="100.1 38 95.41 35.79 96.9 34.54 97.1 28.55 91.59 24.2 93.36 19.31 88.65 15 81.43 13.54 74.79 19.11 70.83 16.86 66.76 17.59 63.44 20.38 57.8 20.02 52.87 22.7 52.79 25.03 51.16 25.6 49.22 26.88 47.75 27.2 42.18 31.78 44.67 36.55 38.11 41.24 38.71 47.21 42.99 49.79 46.38 53.47 58.42 53.26 60.11 50.07 68.07 49.27 73.54 53.74 82.5 52.84 82.99 47.76 84.03 46.9 85.08 48.56 89.36 51.14 94.14 48.65 100.2 49.04 103.48 41.67 100.1 38"/></g></g></svg>