<svg xmlns="http://www.w3.org/2000/svg" viewBox="0 0 124.72 189.38"><defs><style>.cls-1{fill:#51666d;}.cls-2,.cls-4{fill:#fff;}.cls-3{fill:#33c1ff;}.cls-4{stroke:#000;stroke-miterlimit:10;stroke-width:1.86px;}</style></defs><title>Element 21</title><g id="Ebene_2" data-name="Ebene 2"><g id="Ebene_1-2" data-name="Ebene 1"><path d="M124.72,178.58V11.34A11.37,11.37,0,0,0,113.39,0h-102A11.37,11.37,0,0,0,0,11.34V178.58a11.38,11.38,0,0,0,7.89,10.8H116.83A11.38,11.38,0,0,0,124.72,178.58Z"/><path class="cls-1" d="M120.05,172.29V17.59A10.52,10.52,0,0,0,109.56,7.1H15.16A10.52,10.52,0,0,0,4.67,17.59V172.29a10.53,10.53,0,0,0,7.3,10H112.75A10.53,10.53,0,0,0,120.05,172.29Z"/><polygon points="25.03 8.63 7 21.36 13.89 41.96 36.17 41.96 43.05 21.36 25.03 8.63"/><polygon class="cls-2" points="34.56 28.47 34.56 26.98 35.56 26.48 36.56 26.48 36.06 25.48 34.07 24.98 32.07 25.48 29.58 28.47 28.43 29.63 26.5 28.47 26.5 26.98 27.5 26.48 28.49 26.48 27.99 25.48 26 24.98 24.01 25.48 21.52 28.47 20.4 29.59 18.53 28.47 18.53 26.98 19.53 26.48 20.52 26.48 20.02 25.48 18.03 24.98 16.04 25.48 13.55 28.47 12.05 29.96 20.02 29.96 21.02 29.96 28.09 29.96 28.99 29.96 37.05 29.96 34.56 28.47"/><path class="cls-3" d="M37.06,87l-7,1-1,3-6,2v3s-2.67,1.17-3,2,3,5,3,5a56.59,56.59,0,0,0,3,5c.33.17,9,2,9,2l12,2,9-2,12.82.44L78.06,109h11c.33,0,7-5,7-5l6-4V95l1-4-5-3-8-2.94-9-1.06Z"/><polygon class="cls-2" points="63.05 97.96 71.06 92.96 80.06 90.96 72.06 93.96 63.05 97.96"/><path class="cls-2" d="M40.06,92h-6l-2,2,2,2-6,2,4,4,2,5h14l3,1,10-3s8,1,9,1,11-4,11-4h9l1-6,4-5-6-2-7-4-7,1-10.81.23L53.06,90Z"/><path class="cls-3" d="M79.59,101.07l5.1.3,1.8-1.6L84.89,98l5.2-1.4L86.88,93l-1.45-4.35-11.89-.7-2.5-1L62.4,89s-6.74-1.25-7.59-1.3-9.54,2.85-9.54,2.85l-7.64-.45-1.15,5-3.65,4,5,2,5.75,3.74,6-.5,9.19.34,9.69-2.65Z"/><polygon class="cls-3" points="85.06 39.96 58.05 37.96 40.05 44.96 40.05 51.96 35.05 55.96 40.05 60.96 37.05 69.96 43.05 77.96 37.05 83.96 43.05 91.96 43.05 97.96 51.05 101.96 69.06 101.96 83.06 94.96 82.06 86.96 85.06 79.96 83.06 74.96 87.06 65.96 90.06 63.96 89.06 54.96 92.06 46.96 85.06 39.96"/><polygon class="cls-2" points="85.06 47.96 75.06 51.96 81.06 51.96 84.06 49.96 88.06 49.96 89.06 45.96 85.06 47.96"/><polygon class="cls-2" points="29.05 52.96 28.05 61.96 42.05 69.96 63.05 69.96 42.05 72.96 25.05 63.96 29.05 52.96"/><polygon class="cls-2" points="92.06 69.96 91.06 76.96 77.06 81.96 93.06 77.96 93.06 69.96 90.06 66.96 92.06 69.96"/><path class="cls-2" d="M47.06,48l2,2,3-1,4,3v3l4,1s0,2-1,2-6-1-6-1V55l-4-2Z"/><polygon class="cls-2" points="77.06 71.96 71.06 75.96 71.06 77.96 75.06 74.96 80.06 73.96 81.06 70.96 77.06 71.96"/><polygon class="cls-2" points="49.05 79.96 55.05 80.96 61.05 79.96 63.05 81.96 59.05 81.96 55.05 82.96 49.05 79.96"/><polygon class="cls-2" points="40.05 84.96 48.05 89.96 60.05 90.96 67.06 88.96 61.05 91.96 49.05 91.96 40.05 84.96"/><polygon class="cls-2" points="64.06 39.96 51.05 43.96 58.05 47.96 69.06 49.96 76.06 46.96 83.06 45.96 76.06 43.96 78.06 42.96 69.06 41.96 65.06 42.96 64.06 39.96"/><polygon class="cls-2" points="97.06 51.96 103.06 47.96 111.06 46.96 106.06 49.96 110.06 50.96 102.06 51.96 97.06 51.96"/><polygon class="cls-2" points="26.05 70.96 20.05 68.96 16.05 69.96 17.05 72.96 21.05 71.96 26.05 70.96"/><polygon class="cls-2" points="29.05 78.96 21.05 79.96 17.05 82.96 21.05 81.96 19.05 84.96 16.05 84.96 15.05 88.96 19.05 88.96 23.05 83.96 31.05 81.96 34.05 78.96 29.05 78.96"/><polygon class="cls-3" points="47.96 41.56 52.08 34.93 59.67 32.41 56.82 36.52 62.2 36.84 66.31 33.37 62.83 38.74 51.44 42.52 45.74 44.41 47.96 41.56"/><polygon class="cls-2" points="95.06 81.96 85.06 87.96 72.06 89.96 87.06 89.96 97.06 83.96 95.06 78.96 95.06 81.96"/><rect class="cls-4" x="93.97" y="110.88" width="15.81" height="15.81" transform="translate(113.83 -37.25) rotate(45)"/><rect x="100.21" y="113.19" width="3.33" height="10.56"/><rect x="100.21" y="113.19" width="3.33" height="10.56" transform="translate(-16.6 220.35) rotate(-90)"/><polygon class="cls-4" points="12.26 128.36 24.55 109.85 36.85 128.36 12.26 128.36"/><polygon points="25.8 121.84 25.8 115.01 24.55 112.11 23.31 115.01 23.31 121.84 21.45 121.84 21.45 122.67 23.93 123.29 23.93 124.94 23.31 125.67 23.93 126.39 24.55 127.01 25.17 126.39 25.8 125.67 25.17 124.94 25.17 123.29 27.66 122.67 27.66 121.84 25.8 121.84"/><rect class="cls-4" x="54.76" y="110.4" width="17.39" height="17.39" transform="translate(182.55 55.64) rotate(90)"/><polygon points="58.17 114.44 68.88 114.44 68.11 120.55 63.53 124.37 58.94 120.55 58.17 114.44"/></g></g></svg>