<svg xmlns="http://www.w3.org/2000/svg" viewBox="0 0 124.72 189.38"><defs><style>.cls-1{fill:#51666d;}.cls-2,.cls-3{fill:#fff;}.cls-2{stroke:#000;stroke-miterlimit:10;stroke-width:1.86px;}.cls-4{fill:#7d4ba3;}</style></defs><title>Element 31</title><g id="Ebene_2" data-name="Ebene 2"><g id="Ebene_1-2" data-name="Ebene 1"><path d="M124.72,178.58V11.34A11.37,11.37,0,0,0,113.39,0h-102A11.37,11.37,0,0,0,0,11.34V178.58a11.38,11.38,0,0,0,7.9,10.8H116.83A11.38,11.38,0,0,0,124.72,178.58Z"/><path class="cls-1" d="M120.66,173.36V18.65A10.52,10.52,0,0,0,110.17,8.16H15.78A10.52,10.52,0,0,0,5.29,18.65V173.36a10.53,10.53,0,0,0,7.3,10H113.36A10.53,10.53,0,0,0,120.66,173.36Z"/><rect class="cls-2" x="93.97" y="110.88" width="15.81" height="15.81" transform="translate(113.83 -37.25) rotate(45)"/><rect x="100.21" y="113.19" width="3.33" height="10.56"/><rect x="100.21" y="113.19" width="3.33" height="10.56" transform="translate(-16.6 220.35) rotate(-90)"/><rect class="cls-2" x="54.76" y="110.4" width="17.39" height="17.39" transform="translate(182.55 55.64) rotate(90)"/><polygon points="58.17 114.44 68.88 114.44 68.11 120.55 63.53 124.37 58.94 120.55 58.17 114.44"/><polygon class="cls-2" points="12.26 128.36 24.55 109.85 36.85 128.36 12.26 128.36"/><polygon points="25.8 121.84 25.8 115.01 24.55 112.11 23.31 115.01 23.31 121.84 21.45 121.84 21.45 122.67 23.93 123.29 23.93 124.94 23.31 125.67 23.93 126.39 24.55 127.01 25.17 126.39 25.8 125.67 25.17 124.94 25.17 123.29 27.66 122.67 27.66 121.84 25.8 121.84"/><polygon points="25.67 10.04 7.64 22.78 14.53 43.38 36.81 43.38 43.7 22.78 25.67 10.04"/><polygon class="cls-3" points="28.68 20.48 27.05 24.06 27.22 28.45 29.07 31.02 28.94 27.51 30.57 23.93 33.14 22.08 31.32 20.39 28.68 20.48"/><polygon class="cls-3" points="30.19 37.24 26.84 35.14 24.61 31.35 24.84 28.16 26.62 31.18 29.98 33.29 33.22 33.41 32.55 35.85 30.19 37.24"/><polygon class="cls-3" points="21.63 36.81 18.28 34.7 16.05 30.92 16.28 27.72 18.06 30.75 21.42 32.85 24.66 32.98 23.99 35.42 21.63 36.81"/><polygon class="cls-3" points="21.27 19.86 19.2 23.21 18.81 27.59 20.33 30.37 20.64 26.87 22.71 23.52 25.49 22.01 23.9 20.1 21.27 19.86"/><polygon points="46.01 38.02 39.65 42.97 43.18 50.03 48.83 52.15 56.6 47.91 58.65 41.29 52.65 37.02 46.01 38.02"/><polygon points="59.65 39.02 52.65 44.97 56.18 52.03 61.83 54.15 69.6 49.91 71.65 43.29 66.77 40.02 59.65 39.02"/><polygon points="71 40.02 64.65 44.97 68.18 52.03 73.83 54.15 81.6 49.91 83.65 43.29 77.65 38.02 71 40.02"/><polygon points="85.01 38.02 76.65 44.53 81.3 53.82 88.73 56.61 98.95 51.03 101.65 42.32 95.23 38.02 85.01 38.02"/><polygon points="51 85.03 45.65 89.19 48.62 95.13 53.38 96.92 59.92 93.35 61.65 87.78 57.54 85.03 51 85.03"/><polygon points="61 84.03 55.65 88.19 58.62 94.13 63.38 95.92 69.92 92.35 71.65 86.78 67.54 84.03 61 84.03"/><polygon points="69 85.03 63.65 89.19 66.62 95.13 71.38 96.92 77.92 93.35 79.65 87.78 75.54 85.03 69 85.03"/><polygon points="80 84.03 74.65 88.19 77.62 94.13 82.38 95.92 88.92 92.35 90.65 86.78 86.54 84.03 80 84.03"/><polygon class="cls-3" points="43.94 41.02 36.65 53.17 40.29 72.6 45.15 55.6 54.86 45.88 52.44 41.02 43.94 41.02"/><polygon class="cls-3" points="86.44 41.02 81.58 53.17 87.65 72.6 92.51 56.81 98.58 45.88 93.72 41.02 86.44 41.02"/><polygon class="cls-3" points="51.22 92.03 48.79 81.1 50.01 73.81 53.65 81.1 58.51 88.38 54.86 92.03 51.22 92.03"/><polygon class="cls-3" points="76.72 89.6 80.36 81.1 81.58 73.81 85.22 81.1 84.01 90.81 79.15 92.03 76.72 89.6"/><polygon class="cls-4" points="90.08 44.67 87.65 51.95 87.65 66.53 82.79 53.17 86.44 44.67 90.08 44.67"/><polygon class="cls-4" points="47.58 43.45 40.29 54.38 40.29 62.88 37.46 54.59 43.94 43.45 47.58 43.45"/><polygon class="cls-4" points="51.22 81.1 54.86 89.6 51.22 89.6 51.22 81.1"/><polygon class="cls-4" points="81.58 82.31 77.94 88.38 80.36 89.6 81.58 82.31"/><polygon class="cls-3" points="59.65 45.02 55.65 53.02 57.65 61.02 61.65 53.02 66.65 46.02 62.65 45.02 59.65 45.02"/><polygon class="cls-3" points="70.65 46.02 67.65 53.02 70.65 63.02 73.65 54.02 76.65 47.02 73.65 45.02 70.65 46.02"/><polygon class="cls-3" points="73.65 90.03 71.65 80.03 68.65 89.03 70.65 92.03 73.65 90.03"/><polygon class="cls-3" points="60.65 88.03 61.65 79.03 65.65 88.03 63.65 91.03 60.65 88.03"/><polygon class="cls-4" points="70.65 47.02 69.65 53.02 70.65 60.02 68.65 53.02 70.65 47.02"/><polygon class="cls-4" points="60.65 46.02 58.65 53.02 57.65 58.02 56.65 53.02 60.65 46.02"/><polygon class="cls-4" points="61.65 83.03 63.65 90.03 61.65 88.03 61.65 83.03"/><polygon class="cls-4" points="71.65 84.03 70.65 91.03 69.65 89.03 71.65 84.03"/><polygon class="cls-4" points="40.29 72.6 38.53 78.31 37.38 80.65 39.35 83.53 41.72 83.62 43.19 80.65 41.94 78.18 40.29 72.6"/><polygon class="cls-3" points="40.13 76.53 38.13 80.53 40.13 82.53 39.13 80.53 40.13 76.53"/><polygon class="cls-4" points="70.66 62.88 68.9 68.59 67.74 70.94 69.71 73.81 72.09 73.91 73.56 70.94 72.31 68.47 70.66 62.88"/><polygon class="cls-3" points="70.49 66.81 68.49 70.81 70.49 72.81 69.49 70.81 70.49 66.81"/></g></g></svg>