<svg xmlns="http://www.w3.org/2000/svg" viewBox="0 0 124.72 189.38"><defs><style>.cls-1{fill:#51666d;}.cls-2,.cls-3{fill:#fff;}.cls-3{stroke:#000;stroke-miterlimit:10;stroke-width:1.86px;}.cls-4{fill:#33c1ff;}</style></defs><title>Element 25</title><g id="Ebene_2" data-name="Ebene 2"><g id="Ebene_1-2" data-name="Ebene 1"><path d="M124.72,178.58V11.34A11.37,11.37,0,0,0,113.39,0h-102A11.37,11.37,0,0,0,0,11.34V178.58a11.38,11.38,0,0,0,7.89,10.8H116.83A11.38,11.38,0,0,0,124.72,178.58Z"/><path class="cls-1" d="M121.14,172.29V17.59A10.52,10.52,0,0,0,110.65,7.1H16.25A10.52,10.52,0,0,0,5.77,17.59V172.29a10.53,10.53,0,0,0,7.3,10H113.84A10.53,10.53,0,0,0,121.14,172.29Z"/><polygon points="25.03 8.63 7 21.36 13.89 41.96 36.17 41.96 43.05 21.36 25.03 8.63"/><polygon class="cls-2" points="34.56 28.47 34.56 26.98 35.56 26.48 36.56 26.48 36.06 25.48 34.07 24.98 32.07 25.48 29.58 28.47 28.43 29.63 26.5 28.47 26.5 26.98 27.5 26.48 28.49 26.48 27.99 25.48 26 24.98 24.01 25.48 21.52 28.47 20.4 29.59 18.53 28.47 18.53 26.98 19.53 26.48 20.52 26.48 20.02 25.48 18.03 24.98 16.04 25.48 13.55 28.47 12.05 29.96 20.02 29.96 21.02 29.96 28.09 29.96 28.99 29.96 37.05 29.96 34.56 28.47"/><rect class="cls-3" x="93.97" y="110.88" width="15.81" height="15.81" transform="translate(113.83 -37.25) rotate(45)"/><rect x="100.21" y="113.19" width="3.33" height="10.56"/><rect x="100.21" y="113.19" width="3.33" height="10.56" transform="translate(-16.6 220.35) rotate(-90)"/><rect class="cls-3" x="54.76" y="110.4" width="17.39" height="17.39" transform="translate(182.55 55.64) rotate(90)"/><polygon points="58.17 114.44 68.88 114.44 68.11 120.55 63.53 124.37 58.94 120.55 58.17 114.44"/><path class="cls-4" d="M30.14,72.44l7-6h-5l11-3,3-3h-5l8-3h11l11-6h-9s9.25-2.5,11-3,13-6,13-6l8-5-3-2,8-3,18-2h4v6l-5,9h-3l-9,6-4,8-2-2-8,4-5,8-5,8-1-4v-6l-6,5-5,9-8,6-2-2-12,8-3,5-12,2-10,2,5-6,10-6-1-4-8,1-5,5h-4l6-5-.71-9.22Z"/><polygon class="cls-2" points="83.14 38.44 83.14 43.89 87.14 45.44 85.14 51.44 87.14 57.44 85.14 63.44 89.14 67.44 86.14 71.44 86.14 67.84 81.14 63.44 84.14 58.44 81.14 51.44 84.14 48.44 81.14 44.85 83.14 38.44"/><polygon class="cls-2" points="96.14 30.44 102.14 30.44 104.14 33.44 110.14 33.44 113.14 40.44 109.14 43.44 111.14 48.44 108.14 53.44 103.14 53.44 102.47 54.94 109.14 57.44 111.14 52.44 116.14 47.44 112.14 45.44 113.14 43.44 116.14 40.44 113.14 37.44 113.03 30.9 106.14 31.66 102.14 28.44 96.14 30.44"/><polygon class="cls-4" points="37.05 52.5 28.23 60.63 23.64 68.94 31 62.16 37.05 52.5"/><polygon class="cls-4" points="77.74 92.3 63.02 93.32 52.19 97.08 64.45 96.23 77.74 92.3"/><polygon class="cls-4" points="60.29 99.63 53.01 99.26 47.44 101 53.51 101.31 60.29 99.63"/><polygon class="cls-2" points="29.46 80.94 35.47 74.94 39.47 74.94 43.47 72.94 46.47 66.94 52.47 66.94 57.47 64.94 60.47 60.94 64.47 60.94 68.47 57.94 70.47 54.94 77.47 54.94 79.47 48.94 81.47 48.94 88.47 48.94 90.47 43.94 92.47 43.94 96.47 41.94 100.47 39.94 94.47 44.94 90.47 49.94 88.47 52.94 86.47 51.94 81.47 51.94 79.47 54.94 77.47 57.94 76.47 57.94 70.47 57.94 68.47 60.94 66.47 66.94 65.47 64.94 59.47 64.94 56.47 67.94 54.47 70.94 52.47 69.94 47.47 70.94 45.47 74.94 43.47 74.94 39.47 76.94 36.47 80.94 32.47 80.94 29.46 80.94"/><path class="cls-2" d="M13.14,75.94l3-12-1-9,4,8v12l7-5,6-2-6,4-1,9,4,1,7,1,9-4-6,7-2.28,1.82.78,3.65s3.17,2.87,3.5,2.53,9-1,9-1l-6.22,3.7-3.78,4.3,9,1,3,2h5l-6,3-8-2-8,1h-8l-9-2-6.5-4.5L9.1,87.22l2.54-7.62Z"/><polygon class="cls-3" points="12.26 128.36 24.55 109.85 36.85 128.36 12.26 128.36"/><polygon points="25.8 121.84 25.8 115.01 24.55 112.11 23.31 115.01 23.31 121.84 21.45 121.84 21.45 122.67 23.93 123.29 23.93 124.94 23.31 125.67 23.93 126.39 24.55 127.01 25.17 126.39 25.8 125.67 25.17 124.94 25.17 123.29 27.66 122.67 27.66 121.84 25.8 121.84"/><polygon class="cls-4" points="23.64 46.72 20.27 45.72 19.27 48.72 22.27 51.72 22.27 56.72 25.27 49.72 23.64 46.72"/><polygon class="cls-2" points="57.14 57.28 54.14 60.44 57.14 64.44 56.14 67.44 59.14 72.44 57.14 77.44 59.14 82.44 57.14 88.44 53.14 92.44 50.84 90.31 52.89 88.94 54.14 89.44 55.14 87.44 54.14 83.44 57.14 83.44 56.14 78.44 53.14 74.44 55.14 72.44 55.81 69.44 53.72 66.44 54.14 62.44 53.14 60.44 55.14 54.44 59.14 57.44 57.14 57.28"/></g></g></svg>