<svg xmlns="http://www.w3.org/2000/svg" viewBox="0 0 124.72 189.38"><defs><style>.cls-1{fill:#51666d;}.cls-2,.cls-3{fill:#fff;}.cls-3{stroke:#000;stroke-miterlimit:10;stroke-width:1.86px;}.cls-4{fill:#33c1ff;}</style></defs><title>Element 24</title><g id="Ebene_2" data-name="Ebene 2"><g id="Ebene_1-2" data-name="Ebene 1"><path d="M124.72,178.58V11.34A11.37,11.37,0,0,0,113.39,0h-102A11.37,11.37,0,0,0,0,11.34V178.58a11.38,11.38,0,0,0,7.89,10.8H116.83A11.38,11.38,0,0,0,124.72,178.58Z"/><path class="cls-1" d="M120.05,172.29V17.59A10.52,10.52,0,0,0,109.56,7.1H15.16A10.52,10.52,0,0,0,4.67,17.59V172.29a10.53,10.53,0,0,0,7.3,10H112.75A10.53,10.53,0,0,0,120.05,172.29Z"/><polygon points="25.03 8.63 7 21.36 13.89 41.96 36.17 41.96 43.05 21.36 25.03 8.63"/><polygon class="cls-2" points="34.56 28.47 34.56 26.98 35.56 26.48 36.56 26.48 36.06 25.48 34.07 24.98 32.07 25.48 29.58 28.47 28.43 29.63 26.5 28.47 26.5 26.98 27.5 26.48 28.49 26.48 27.99 25.48 26 24.98 24.01 25.48 21.52 28.47 20.4 29.59 18.53 28.47 18.53 26.98 19.53 26.48 20.52 26.48 20.02 25.48 18.03 24.98 16.04 25.48 13.55 28.47 12.05 29.96 20.02 29.96 21.02 29.96 28.09 29.96 28.99 29.96 37.05 29.96 34.56 28.47"/><rect class="cls-3" x="93.97" y="110.88" width="15.81" height="15.81" transform="translate(113.83 -37.25) rotate(45)"/><rect x="100.21" y="113.19" width="3.33" height="10.56"/><rect x="100.21" y="113.19" width="3.33" height="10.56" transform="translate(-16.6 220.35) rotate(-90)"/><polygon class="cls-3" points="12.26 128.36 24.55 109.85 36.85 128.36 12.26 128.36"/><polygon points="25.8 121.84 25.8 115.01 24.55 112.11 23.31 115.01 23.31 121.84 21.45 121.84 21.45 122.67 23.93 123.29 23.93 124.94 23.31 125.67 23.93 126.39 24.55 127.01 25.17 126.39 25.8 125.67 25.17 124.94 25.17 123.29 27.66 122.67 27.66 121.84 25.8 121.84"/><rect class="cls-3" x="54.76" y="110.4" width="17.39" height="17.39" transform="translate(182.55 55.64) rotate(90)"/><polygon points="58.17 114.44 68.88 114.44 68.11 120.55 63.53 124.37 58.94 120.55 58.17 114.44"/><polygon class="cls-2" points="93.06 56.96 83.06 43.96 67.06 39.96 49.05 44.96 41.05 55.96 39.05 69.96 45.8 83.46 61.12 90.15 80.74 89.21 89.62 81.59 95.06 66.96 93.06 56.96"/><polygon class="cls-4" points="60.05 63.96 70.06 55.96 81.06 51.96 88.8 51.43 83.06 43.96 74.39 41.96 69.06 43.96 64.06 51.96 60.05 63.96"/><polygon points="94.31 69.94 86.06 70.96 74.06 69.96 60.05 63.96 68.06 77.96 82.06 82.96 89.82 81.05 94.31 69.94"/><polygon class="cls-4" points="72.49 89.61 63.3 86.21 58.45 79.46 57.05 71.96 60.05 63.96 53.05 70.96 50.99 77.15 51.49 82.96 53.93 87.15 61.12 90.15 72.49 89.61"/><polygon points="43.3 78.46 45.49 72.15 49.05 68.96 60.05 63.96 49.05 64.96 42.24 67.9 39.53 70.92 43.3 78.46"/><polygon class="cls-4" points="40.65 58.83 44.74 60.23 50.83 61.67 60.05 63.96 52.05 56.96 47.05 51.96 46.05 48.96 41.05 55.96 40.65 58.83"/><polygon points="52.05 43.96 52.05 46.96 54.05 53.96 60.05 63.96 60.05 52.96 61.05 45.96 64.85 40.48 52.05 43.96"/><polygon class="cls-4" points="34.16 71.96 27.16 66.96 21.16 68.96 21.16 71.96 25.16 72.96 28.16 70.96 34.16 71.96"/><polygon class="cls-4" points="100.66 64.8 104.66 57.8 109.66 56.8 113.66 58.8 113.66 62.8 109.66 63.8 104.66 63.8 100.66 64.8"/><polygon class="cls-4" points="37.53 83.96 34.53 84.96 31.54 87.96 32.53 90.96 36.53 90.96 38.53 88.96 38.53 85.96 39.53 82.96 37.53 83.96"/><polygon class="cls-4" points="98.54 81.96 102.54 80.96 106.54 80.96 108.54 82.96 107.54 84.96 104.54 84.96 100.54 82.96 98.54 81.96"/><polygon class="cls-4" points="93.06 87.46 96.06 89.46 98.06 91.46 97.06 94.46 94.06 94.46 92.06 92.46 92.06 89.46 93.06 87.46"/></g></g></svg>