<svg xmlns="http://www.w3.org/2000/svg" viewBox="0 0 124.72 189.38"><defs><style>.cls-1{fill:#51666d;}.cls-2,.cls-4{fill:#fff;}.cls-3{fill:#33c1ff;}.cls-4{stroke:#000;stroke-miterlimit:10;stroke-width:1.86px;}</style></defs><title>Element 22</title><g id="Ebene_2" data-name="Ebene 2"><g id="Ebene_1-2" data-name="Ebene 1"><path d="M124.72,178.58V11.34A11.37,11.37,0,0,0,113.39,0h-102A11.37,11.37,0,0,0,0,11.34V178.58a11.38,11.38,0,0,0,7.89,10.8H116.83A11.38,11.38,0,0,0,124.72,178.58Z"/><path class="cls-1" d="M120.05,172.29V17.59A10.52,10.52,0,0,0,109.56,7.1H15.16A10.52,10.52,0,0,0,4.67,17.59V172.29a10.53,10.53,0,0,0,7.3,10H112.75A10.53,10.53,0,0,0,120.05,172.29Z"/><polygon points="25.03 8.63 7 21.36 13.89 41.96 36.17 41.96 43.05 21.36 25.03 8.63"/><polygon class="cls-2" points="34.56 28.47 34.56 26.98 35.56 26.48 36.56 26.48 36.06 25.48 34.07 24.98 32.07 25.48 29.58 28.47 28.43 29.63 26.5 28.47 26.5 26.98 27.5 26.48 28.49 26.48 27.99 25.48 26 24.98 24.01 25.48 21.52 28.47 20.4 29.59 18.53 28.47 18.53 26.98 19.53 26.48 20.52 26.48 20.02 25.48 18.03 24.98 16.04 25.48 13.55 28.47 12.05 29.96 20.02 29.96 21.02 29.96 28.09 29.96 28.99 29.96 37.05 29.96 34.56 28.47"/><polygon class="cls-2" points="21.05 79.96 12.05 80.96 7.05 83.96 9.05 83.96 5.05 88.96 10.05 92.96 10.05 95.96 21.05 100.96 28.05 99.96 41.05 104.96 54.05 104.96 66.06 106.96 74.06 105.96 82.06 106.96 92.06 107.96 102.06 105.96 109.06 106.96 113.06 103.96 116.06 98.96 118.06 96.96 115.06 93.96 107.06 91.96 21.05 79.96"/><path class="cls-3" d="M102.06,57l-7-7h-6l-9,1-3-4h-7l-5-3h-5l2,2-4,1-7-3-5,2-9-1-9,3-7,6,4,7a17,17,0,0,0-4,7c-1,4,0,12,0,12l-3,2-3,5,9,3s2,3,2,4,6,1,7,1,13,3,13,3l16-1,14,4,4,2,10-1,12-1,3-2,6-1V90l-3-6,3-4V72l2-10-3-7-3,3Z"/><polygon class="cls-2" points="30.05 63.96 33.05 65.96 42.05 65.96 42.05 67.96 46.05 69.96 55.05 69.96 61.05 72.96 55.05 70.96 46.05 70.96 41.05 69.96 39.05 68.96 37.05 69.96 37.05 67.96 35.05 66.96 32.05 66.96 30.05 63.96"/><polygon class="cls-2" points="33.05 49.96 41.05 48.96 52.05 49.96 50.05 47.96 54.05 50.96 61.05 51.96 67.06 50.96 74.06 52.96 75.06 54.96 82.06 54.96 87.06 53.96 92.06 54.96 88.06 54.96 82.06 55.96 74.06 55.96 69.06 54.96 72.06 54.96 70.06 52.96 65.06 52.96 58.05 52.96 53.05 51.96 42.05 49.96 33.05 49.96"/><rect class="cls-4" x="93.97" y="110.88" width="15.81" height="15.81" transform="translate(113.83 -37.25) rotate(45)"/><rect x="100.21" y="113.19" width="3.33" height="10.56"/><rect x="100.21" y="113.19" width="3.33" height="10.56" transform="translate(-16.6 220.35) rotate(-90)"/><polygon class="cls-4" points="12.26 128.36 24.55 109.85 36.85 128.36 12.26 128.36"/><polygon points="25.8 121.84 25.8 115.01 24.55 112.11 23.31 115.01 23.31 121.84 21.45 121.84 21.45 122.67 23.93 123.29 23.93 124.94 23.31 125.67 23.93 126.39 24.55 127.01 25.17 126.39 25.8 125.67 25.17 124.94 25.17 123.29 27.66 122.67 27.66 121.84 25.8 121.84"/><rect class="cls-4" x="54.76" y="110.4" width="17.39" height="17.39" transform="translate(182.55 55.64) rotate(90)"/><polygon points="58.17 114.44 68.88 114.44 68.11 120.55 63.53 124.37 58.94 120.55 58.17 114.44"/><polygon class="cls-2" points="109.06 74.96 103.06 77.96 95.06 77.96 90.06 77.96 95.06 78.96 103.06 79.96 107.06 76.96 110.06 75.96 109.06 74.96"/><polygon class="cls-2" points="45.05 83.96 55.05 82.96 53.05 83.96 63.05 84.96 71.06 85.96 76.06 85.96 71.18 87.09 62.05 85.96 53.05 86.96 46.05 84.96 40.05 83.96 45.05 83.96"/><polygon class="cls-2" points="24.05 80.96 28.05 84.96 34.05 84.96 39.05 86.96 33.05 85.96 28.05 85.96 24.05 80.96"/><polygon class="cls-2" points="27.09 48.79 27.05 50.96 31.05 51.96 32.05 53.96 41.05 54.96 48.05 57.96 52.05 56.96 56.05 53.96 55.05 56.96 58.05 57.96 67.06 57.96 64.06 58.96 73.06 58.96 81.06 60.96 91.06 58.96 89.06 59.96 101.06 61.96 107.06 59.96 108.06 61.96 113.06 61.96 112.42 65.11 107.06 62.96 100.06 62.96 88.06 60.96 81.06 64.96 83.06 66.96 76.06 63.96 70.06 62.96 70.06 64.96 63.05 61.96 55.05 60.96 54.05 61.96 50.05 59.96 44.05 58.96 42.05 59.96 37.05 57.96 35.05 55.96 31.05 55.96 32.05 57.96 29.05 55.96 27.05 52.96 26.05 53.96 25.03 50.56 27.09 48.79"/></g></g></svg>