<svg xmlns="http://www.w3.org/2000/svg" viewBox="0 0 120.99 158.78"><defs><style>.cls-1{fill:#fff;}</style></defs><title>Asset 7</title><g id="Layer_2" data-name="Layer 2"><g id="Ebene_1" data-name="Ebene 1"><path d="M113.85,91.93l-1.37-10.86-2.91-9-2.95,7.24-5.05,5.54L85.74,90,82.66,74.77l1.91-4.43-3.76-3.92L80.2,59.7l8.57,2L100,52.4l8.81-12.66-9.77,6.43L87.29,47.41l1.69-8,5-9.95,2.47-15.16L91.85,4.05l-1.36,6L86.4,21.5,74.9,26.91l-3.14,5-8.63-2.48L50.58,31.93l-6.14-6.21L33.08,17.39,28.86,6.19V0S23.34,7.38,23,8.1s-.18,10.71,0,12.38S33.32,36.63,33.32,36.63l.28,4.1-.52,6.17.51,1-7.24-.76-9.76-6.43L25.4,53.37l11.27,9.28,6-1.39-.57,4.59-3.34,4.88L40.9,74.4,35.82,88.05,22.48,82.47l-6-7.86.43-7.2-5.65,7.92-1.19,9.53L0,99.93l2.45,58.85h116.2l2.34-50.5Z"/><polygon class="cls-1" points="48.6 43.02 56.07 45.66 60.3 45.66 54.45 48.04 45.86 46.14 48.6 43.02"/><polygon class="cls-1" points="78.49 44.28 70.79 46.38 66.58 46.08 72.19 48.87 80.6 47.66 78.49 44.28"/><polygon class="cls-1" points="46.95 57.18 56.02 62.93 57.22 66.68 63.26 62.65 68.26 66.68 70.33 62.65 77.93 58.29 73.72 77.63 71.51 71.89 63.81 76.78 57.2 70.61 51.93 77.22 46.95 57.18"/><polygon class="cls-1" points="27.94 50.83 35.62 52.27 38.71 54.98 37.94 59.14 27.94 50.83"/><polygon class="cls-1" points="96.78 49.49 90.51 50.7 87.12 52.93 87.71 57.22 96.78 49.49"/><polygon class="cls-1" points="57.85 55.84 61.24 54.36 60.3 57.18 57.85 55.84"/><polygon class="cls-1" points="67.85 55.84 65.02 54.36 65.81 57.18 67.85 55.84"/><polygon class="cls-1" points="65 45.01 67.85 42.6 76.5 39.74 67.85 39.74 65 45.01"/><polygon class="cls-1" points="62.52 44.98 59.56 42.57 50.56 39.71 59.56 39.71 62.52 44.98"/><polygon points="73.59 48.67 73.91 45.53 75.61 48.38 75.61 49.49 73.59 49.49 73.59 48.67"/><polygon points="50.86 46.86 52.54 44.19 52.65 47.81 52.31 48.49 50.5 47.59 50.86 46.86"/><polygon class="cls-1" points="89.8 23.78 80.6 29.53 88.6 30.77 85.2 41.03 85.2 44.08 87.12 39.12 91.95 29.53 89.8 23.78"/><polygon class="cls-1" points="34.01 22.4 42.33 28.16 35.09 29.39 38.17 39.65 38.17 42.7 36.43 37.75 32.06 28.16 34.01 22.4"/></g></g></svg>