<svg xmlns="http://www.w3.org/2000/svg" viewBox="0 0 424.18 412.46"><defs><style>.cls-1{fill:#fff;}.cls-2{fill:none;stroke:#fff;stroke-miterlimit:10;stroke-width:18px;}</style></defs><title>Boss_Icon_Map</title><g id="Layer_14" data-name="Layer 14"><polygon points="298.15 178 110.51 390.96 75.89 411.91 94.94 365.15 281.19 125.58 298.15 178"/><polygon class="cls-1" points="75.89 411.91 295.85 170.9 308.61 208.84 107.09 404.2 75.89 411.91"/><polygon points="317.65 242.74 261.93 101.76 280.67 73.41 350.58 213.58 317.65 242.74"/><polygon class="cls-1" points="370.71 211.84 344.62 214.51 317.65 242.74 343.75 240.06 370.71 211.84"/><polygon points="350.58 213.58 370.71 211.84 299.66 85.97 280.67 73.41 350.58 213.58"/><polygon points="341.61 160.3 392.95 81.25 419.04 78.58 424.18 43.89 409.46 22.18 388.48 19.82 373.69 57.44 311.54 113.77 341.61 160.3"/><polygon class="cls-1" points="379.35 74.91 323.42 141.56 335.61 150.96 346.27 153.13 392.95 81.25 419.04 78.58 424.18 43.89 413.69 42.7 404.02 75.29 379.35 74.91"/><polygon class="cls-1" points="384.16 60.34 388.43 51.2 399.49 45.23 396.07 58.47 384.16 60.34"/><polygon points="346.37 148.7 336.31 148.34 325.97 136.1 331.75 128.89 339.63 141.22 346.37 148.7"/><polygon points="332.27 120.47 342.95 134.11 351.35 138.02 347.41 131.85 338.39 114.66 332.27 120.47"/><polygon points="342.85 112.4 355.18 122.49 362.44 121.54 344.5 108.84 342.85 112.4"/><polygon points="352.28 99.48 359.02 106.95 367.42 110.87 360.68 103.39 356.74 97.22 352.28 99.48"/><polygon points="362.86 91.41 369.6 98.89 376.85 97.94 371.25 95.33 364.52 87.86 362.86 91.41"/><polygon points="370.63 82.05 379.03 85.96 386.29 85.01 377.89 81.1 372.29 78.49 370.63 82.05"/><polygon class="cls-1" points="284.99 163.39 87.79 396.29 283.85 158.53 284.99 163.39"/><polygon points="126.03 178 313.67 390.96 348.29 411.91 329.24 365.15 143 125.58 126.03 178"/><polygon class="cls-1" points="348.29 411.91 128.33 170.9 115.57 208.84 317.09 404.2 348.29 411.91"/><polygon points="106.53 242.74 162.25 101.76 143.51 73.41 73.61 213.58 106.53 242.74"/><polygon class="cls-1" points="53.47 211.84 79.56 214.51 106.53 242.74 80.44 240.06 53.47 211.84"/><polygon points="73.61 213.58 53.47 211.84 124.53 85.97 143.51 73.41 73.61 213.58"/><polygon points="82.57 160.3 31.23 81.25 5.14 78.58 0 43.89 14.72 22.18 35.71 19.82 50.49 57.44 112.64 113.77 82.57 160.3"/><polygon class="cls-1" points="44.83 74.91 100.76 141.56 88.57 150.96 77.91 153.13 31.23 81.25 5.14 78.58 0 43.89 10.49 42.7 20.16 75.29 44.83 74.91"/><polygon class="cls-1" points="40.02 60.34 35.76 51.2 24.69 45.23 28.11 58.47 40.02 60.34"/><polygon points="77.81 148.7 87.87 148.34 98.21 136.1 92.43 128.89 84.55 141.22 77.81 148.7"/><polygon points="91.91 120.47 81.23 134.11 72.84 138.02 76.78 131.85 85.79 114.66 91.91 120.47"/><polygon points="81.33 112.4 69 122.49 61.74 121.54 79.68 108.84 81.33 112.4"/><polygon points="71.9 99.48 65.16 106.95 56.77 110.87 63.5 103.39 67.44 97.22 71.9 99.48"/><polygon points="61.33 91.41 54.59 98.89 47.33 97.94 52.93 95.33 59.67 87.86 61.33 91.41"/><polygon points="53.55 82.05 45.15 85.96 37.89 85.01 46.29 81.1 51.89 78.49 53.55 82.05"/><polygon class="cls-1" points="139.19 163.39 336.39 396.29 140.33 158.53 139.19 163.39"/></g><g id="Layer_13" data-name="Layer 13"><path class="cls-2" d="M1550.24,1461.73c-7.19-53.87,4.32-68.44,4.94-69.81l.72-1.56,1-1.4c55.81-77.92,95.47-175.27,78.74-210.6-1.48-3.13-5.43-11.47-24.35-12.7-1.66-.11-3.3-.16-4.9-.16-76.63,0-77.76,113-77.91,114.2l-33.82-3.46c.2-1.58-8.14-41.17,9.68-78.38,25.36-52.93,64.19-79.24,112.34-76.12,32.91,2.13,47.65,19.12,54.22,33,33.75,71.27-68.15,220.06-85.69,244.81-2,5.52-17.11,21.54-12.09,59.12Z" transform="translate(-1354 -1112.49)"/><ellipse class="cls-2" cx="208.4" cy="384.35" rx="21.42" ry="19.12"/><path d="M1550.24,1461.73c-7.19-53.87,4.32-68.44,4.94-69.81l.72-1.56,1-1.4c55.81-77.92,95.47-175.27,78.74-210.6-1.48-3.13-5.43-11.47-24.35-12.7-1.66-.11-3.3-.16-4.9-.16-76.63,0-77.76,113-77.91,114.2l-33.82-3.46c.2-1.58-8.14-41.17,9.68-78.38,25.36-52.93,64.19-79.24,112.34-76.12,32.91,2.13,47.65,19.12,54.22,33,33.75,71.27-68.15,220.06-85.69,244.81-2,5.52-17.11,21.54-12.09,59.12Z" transform="translate(-1354 -1112.49)"/><ellipse cx="208.4" cy="384.35" rx="21.42" ry="19.12"/></g></svg>