<svg xmlns="http://www.w3.org/2000/svg" viewBox="0 0 424.18 392.09"><defs><style>.cls-1{fill:#010101;}.cls-2{fill:#fff;}.cls-3{fill:none;stroke:#fff;stroke-miterlimit:10;stroke-width:10px;}</style></defs><title>Enemy_Icon_Map</title><g id="Swords"><polygon class="cls-1" points="298.15 158.18 110.51 371.14 75.89 392.09 94.94 345.33 281.19 105.76 298.15 158.18"/><polygon class="cls-2" points="75.89 392.09 295.85 151.08 308.61 189.03 107.09 384.38 75.89 392.09"/><polygon class="cls-1" points="317.65 222.92 261.93 81.94 280.67 53.59 350.58 193.76 317.65 222.92"/><polygon class="cls-2" points="370.71 192.02 344.62 194.69 317.65 222.92 343.75 220.25 370.71 192.02"/><polygon class="cls-1" points="350.58 193.76 370.71 192.02 299.66 66.15 280.67 53.59 350.58 193.76"/><polygon class="cls-1" points="341.61 140.48 392.95 61.44 419.04 58.77 424.18 24.07 409.46 2.37 388.48 0 373.69 37.62 311.54 93.95 341.61 140.48"/><polygon class="cls-2" points="379.35 55.09 323.42 121.75 335.61 131.14 346.27 133.31 392.95 61.44 419.04 58.77 424.18 24.07 413.69 22.89 404.02 55.47 379.35 55.09"/><polygon class="cls-2" points="384.16 40.52 388.43 31.38 399.49 25.41 396.07 38.65 384.16 40.52"/><polygon class="cls-1" points="346.37 128.88 336.31 128.52 325.97 116.28 331.75 109.07 339.63 121.4 346.37 128.88"/><polygon class="cls-1" points="332.27 100.65 342.95 114.29 351.35 118.2 347.41 112.04 338.39 94.84 332.27 100.65"/><polygon class="cls-1" points="342.85 92.58 355.18 102.67 362.44 101.72 344.5 89.03 342.85 92.58"/><polygon class="cls-1" points="352.28 79.66 359.02 87.13 367.42 91.05 360.68 83.57 356.74 77.41 352.28 79.66"/><polygon class="cls-1" points="362.86 71.59 369.6 79.07 376.85 78.12 371.25 75.51 364.52 68.04 362.86 71.59"/><polygon class="cls-1" points="370.63 62.23 379.03 66.14 386.29 65.19 377.89 61.28 372.29 58.67 370.63 62.23"/><polygon class="cls-2" points="284.99 143.57 87.79 376.47 283.85 138.71 284.99 143.57"/><polygon class="cls-1" points="126.03 158.18 313.67 371.14 348.29 392.09 329.24 345.33 143 105.76 126.03 158.18"/><polygon class="cls-2" points="348.29 392.09 128.33 151.08 115.57 189.03 317.09 384.38 348.29 392.09"/><polygon class="cls-1" points="106.53 222.92 162.25 81.94 143.51 53.59 73.61 193.76 106.53 222.92"/><polygon class="cls-2" points="53.47 192.02 79.56 194.69 106.53 222.92 80.44 220.25 53.47 192.02"/><polygon class="cls-1" points="73.61 193.76 53.47 192.02 124.53 66.15 143.51 53.59 73.61 193.76"/><polygon class="cls-1" points="82.57 140.48 31.23 61.44 5.14 58.77 0 24.07 14.72 2.37 35.71 0 50.49 37.62 112.64 93.95 82.57 140.48"/><polygon class="cls-2" points="44.83 55.09 100.76 121.75 88.57 131.14 77.91 133.31 31.23 61.44 5.14 58.77 0 24.07 10.49 22.89 20.16 55.47 44.83 55.09"/><polygon class="cls-2" points="40.02 40.52 35.76 31.38 24.69 25.41 28.11 38.65 40.02 40.52"/><polygon class="cls-1" points="77.81 128.88 87.87 128.52 98.21 116.28 92.43 109.07 84.55 121.4 77.81 128.88"/><polygon class="cls-1" points="91.91 100.65 81.23 114.29 72.84 118.2 76.78 112.04 85.79 94.84 91.91 100.65"/><polygon class="cls-1" points="81.33 92.58 69 102.67 61.74 101.72 79.68 89.03 81.33 92.58"/><polygon class="cls-1" points="71.9 79.66 65.16 87.13 56.77 91.05 63.5 83.57 67.44 77.41 71.9 79.66"/><polygon class="cls-1" points="61.33 71.59 54.59 79.07 47.33 78.12 52.93 75.51 59.67 68.04 61.33 71.59"/><polygon class="cls-1" points="53.55 62.23 45.15 66.14 37.89 65.19 46.29 61.28 51.89 58.67 53.55 62.23"/><polygon class="cls-2" points="139.19 143.57 336.39 376.47 140.33 138.71 139.19 143.57"/></g><g id="Hat"><path class="cls-3" d="M2028.21,1348.84l-43.91-1.91,49.16-34.37h87.84L2190,1456.72l-46.31,95L1997.18,1441l22.92-21.48Zm119.67,167.22,28.52-58.75L2111,1321.08l-68.74,116.18Z" transform="translate(-1875.08 -1170.43)"/><polygon points="235.93 150.65 167.19 266.83 272.81 345.63 301.33 286.88 235.93 150.65"/><path d="M2028.21,1348.84l-43.91-1.91,49.16-34.37h87.84L2190,1456.72l-46.31,95L1997.18,1441l22.92-21.48Zm119.67,167.22,28.52-58.75L2111,1321.08l-68.74,116.18Z" transform="translate(-1875.08 -1170.43)"/><polygon class="cls-2" points="223.33 220.07 220.82 228.67 241.95 230.81 223.33 220.07"/><polygon class="cls-2" points="253.63 232.01 267.11 225.44 263.26 220.07 253.63 232.01"/><polygon class="cls-2" points="235.93 150.65 167.19 266.83 272.81 345.63 301.33 286.88 270.23 329.63 180.25 265.19 235.93 150.65"/></g></svg>