<svg xmlns="http://www.w3.org/2000/svg" viewBox="0 0 363.27 385.08"><defs><style>.cls-1{fill:#fff;}.cls-2{fill:#010101;}</style></defs><title>HP_Icon_Map</title><g id="obelisk"><path class="cls-1" d="M2721.91,1420.68v21.43c47.43,2.47,87.58,16.5,107.83,36.06,1.06,1.68,7.82,13.92-19.67,13.92H2573.6c13.09-26.61,60.25-47,118.31-50v-21.43c-93.3,3.65-166.64,40.94-166.64,86.41,0,47.88,81.32,86.7,181.64,86.7s181.64-38.82,181.64-86.7C2888.55,1461.62,2815.21,1424.33,2721.91,1420.68Zm-15,151.77c-53.72,0-100.2-14.76-122.63-36.25,0,0-9.91-14,19.29-14.11h236.65C2826,1551,2771.73,1572.45,2706.91,1572.45Z" transform="translate(-2525.27 -1208.71)"/><polygon points="225.49 283.37 137.42 283.37 155.32 21.92 181.61 0 207.9 21.92 225.49 283.37"/><path class="cls-1" d="M2711.22,1234.77c-3.81.09-8-.31-11.79.3-2.88.46-3.82,3-2.57,5.52a11.81,11.81,0,0,1,1.53,5.15c.1,1.62-.24,3.56.36,5.11,1.12,2.91,5.4,2.86,8,2.77,3.2-.11,3.22-5.11,0-5-.72,0-3.5.32-3.94-.31.86,1.25.61-2.33.6-2.57a15.94,15.94,0,0,0-1.1-5.59,7.62,7.62,0,0,0-.79-1.56q-.75-1.78-1.58,1.44c.18.25,2.81-.07,3.08-.07l8.22-.19c3.22-.07,3.23-5.07,0-5Z" transform="translate(-2525.27 -1208.71)"/><path class="cls-1" d="M2710.23,1247c1.33-.08,3.25-.39,3.68,1.31.24,1-.87,3.44-1,4.52s-1.21,6.73.32,6.89c-3.19-.35-3.17,4.65,0,5a3.87,3.87,0,0,0,4.16-3.09,16.62,16.62,0,0,0,.12-4.17,26.84,26.84,0,0,1,.88-6.55c.57-2.23,1.41-4.37-.11-6.41-1.73-2.33-5.37-2.66-8-2.5-3.2.2-3.22,5.2,0,5Z" transform="translate(-2525.27 -1208.71)"/><path class="cls-1" d="M2720.43,1258.08l-2.75,15c-.58,3.15,4.24,4.5,4.82,1.33l2.75-14.95c.58-3.15-4.24-4.5-4.82-1.33Z" transform="translate(-2525.27 -1208.71)"/><path class="cls-1" d="M2715.2,1259.66a30.06,30.06,0,0,0-13-2.68c-3.21.07-3.23,5.07,0,5a24.15,24.15,0,0,1,10.44,2c2.92,1.28,5.47-3,2.53-4.32Z" transform="translate(-2525.27 -1208.71)"/><path class="cls-1" d="M2705.23,1260.22v12.5c0,3.22,5,3.23,5,0v-12.5c0-3.21-5-3.22-5,0Z" transform="translate(-2525.27 -1208.71)"/><path class="cls-1" d="M2698,1282c8.49.68,17,1.14,25.49,1.64,3.22.18,3.21-4.82,0-5-8.5-.5-17-1-25.49-1.64-3.2-.26-3.19,4.74,0,5Z" transform="translate(-2525.27 -1208.71)"/><path class="cls-1" d="M2700.2,1279.72l.33-6.24c.17-3.22-4.83-3.21-5,0l-.33,6.24c-.17,3.22,4.83,3.21,5,0Z" transform="translate(-2525.27 -1208.71)"/><path class="cls-1" d="M2708.69,1281.22a72,72,0,0,1-1.12,15.09c-.58,3.14,4.24,4.49,4.82,1.33a78,78,0,0,0,1.3-16.42c-.1-3.21-5.1-3.22-5,0Z" transform="translate(-2525.27 -1208.71)"/><path class="cls-1" d="M2697,1292.42c-.32,2.69-.61,5.39-.83,8.09-.21,2.55,0,5.47-.51,8l1.15-1.49c-.52.37-3.16.19-3.73.22l-4.12.22c-3.2.17-3.22,5.17,0,5s10.29,1,11.58-2.88c.72-2.2.35-5.36.53-7.69.23-3.15.55-6.3.93-9.44s-4.61-3.16-5,0Z" transform="translate(-2525.27 -1208.71)"/><path class="cls-1" d="M2689.72,1298.38a43.42,43.42,0,0,1,.75-12.51c.66-3.14-4.16-4.48-4.82-1.33a48.36,48.36,0,0,0-.93,13.84c.25,3.19,5.25,3.22,5,0Z" transform="translate(-2525.27 -1208.71)"/><path class="cls-1" d="M2695.8,1264.17c-1.38-.32-2.76-.66-4.12-1.06-.76-.23-1.5-.48-2.26-.72-1.05-.33-.65,0-.52-.55.59-2.68,1.83-5.22,2.39-7.94.65-3.14-4.17-4.49-4.82-1.33a48.44,48.44,0,0,1-2,6.89c-.58,1.54-1.25,3.28-.62,4.93s1.91,2,3.34,2.51a59.15,59.15,0,0,0,7.27,2.09c3.14.71,4.47-4.11,1.33-4.82Z" transform="translate(-2525.27 -1208.71)"/><path class="cls-1" d="M2717.41,1290.39A19.33,19.33,0,0,0,2719,1297a16.78,16.78,0,0,0,1.66,3c.46.65,2,2,2,2.81l1.24-2.16c1-.19.94-.26-.25-.22h-.95c-1.11,0-2.23.05-3.33.16a42.55,42.55,0,0,0-5.83,1c-3.12.76-1.8,5.58,1.33,4.82a32.81,32.81,0,0,1,8.31-1c1.89,0,4,0,4.44-2.28.38-2-1.14-3.73-2.26-5.21a13.65,13.65,0,0,1-2.86-7.49c-.21-3.2-5.21-3.22-5,0Z" transform="translate(-2525.27 -1208.71)"/><path class="cls-1" d="M2712.16,1306.07a64.6,64.6,0,0,1,2,9.32,2.57,2.57,0,0,0,2.5,2.5,2.51,2.51,0,0,0,2.5-2.5,74,74,0,0,0-2.14-10.64c-.87-3.1-5.7-1.78-4.82,1.32Z" transform="translate(-2525.27 -1208.71)"/><path class="cls-1" d="M2717.34,1318c2.57-1,5.54-2.62,8.32-2.74,3.2-.14,3.22-5.14,0-5s-6.54,1.74-9.65,2.92-1.69,6,1.33,4.82Z" transform="translate(-2525.27 -1208.71)"/><path class="cls-1" d="M2713.13,1307.55l-7.82,1.75c-3.14.7-1.81,5.52,1.33,4.82l7.81-1.75c3.14-.7,1.81-5.52-1.32-4.82Z" transform="translate(-2525.27 -1208.71)"/><path class="cls-1" d="M2689.62,1312.39a60.93,60.93,0,0,1-1.23,15c-.66,3.14,4.16,4.48,4.82,1.33a66.82,66.82,0,0,0,1.41-16.33c-.13-3.21-5.13-3.22-5,0Z" transform="translate(-2525.27 -1208.71)"/><path class="cls-1" d="M2690.14,1319.17c-2,.5-4.42,1.24-6.4.36a2.58,2.58,0,0,0-3.42.9,2.51,2.51,0,0,0,.89,3.42c3.41,1.51,6.75,1,10.26.14,3.11-.79,1.79-5.61-1.33-4.82Z" transform="translate(-2525.27 -1208.71)"/><path class="cls-1" d="M2701,1332.42c.41-2.79.42-6.15,1.46-8.76l-1.75,1.74a24.36,24.36,0,0,1,9.1.65l-1.75-1.75c1.21,2.92,1.43,6.53,2,9.63a2.51,2.51,0,0,0,2.41,1.83q8.6,0,17.18-.29c3.21-.11,3.22-5.11,0-5q-8.59.29-17.18.29l2.41,1.84c-.52-2.76-.44-8-2.26-10.23s-5-1.66-7.47-1.8c-2.26-.14-5.32-.94-7.08.91s-1.54,7.11-1.9,9.61c-.46,3.15,4.36,4.51,4.82,1.33Z" transform="translate(-2525.27 -1208.71)"/><path class="cls-1" d="M2718,1335.39a101.17,101.17,0,0,1,0,14.67c-.24,3.21,4.76,3.19,5,0a101.17,101.17,0,0,0,0-14.67c-.22-3.19-5.22-3.22-5,0Z" transform="translate(-2525.27 -1208.71)"/><path class="cls-1" d="M2719.31,1341.87a160.17,160.17,0,0,1-16.83.31c-3.22-.11-3.21,4.89,0,5a160.17,160.17,0,0,0,16.83-.31c3.19-.23,3.22-5.23,0-5Z" transform="translate(-2525.27 -1208.71)"/><path class="cls-1" d="M2707.5,1347.39a37.76,37.76,0,0,0,.75,9.66c.65,3.15,5.47,1.82,4.82-1.33a32.78,32.78,0,0,1-.57-8.33c.18-3.21-4.82-3.2-5,0Z" transform="translate(-2525.27 -1208.71)"/><path class="cls-1" d="M2681.65,1340.88l6.74.82c2,.24,4.5.09,6.32.84l-1.74-1.74c.34,2.32-.63,5.52-.87,7.9l-.81,8.33c-.31,3.2,4.69,3.18,5,0l1.08-11.1c.2-2,1.25-5.26.17-7.06-1-1.65-3.48-1.47-5.1-1.67l-10.79-1.32c-3.18-.39-3.16,4.61,0,5Z" transform="translate(-2525.27 -1208.71)"/><path class="cls-1" d="M2696,1356.22a26.11,26.11,0,0,1,4.33.18,2.6,2.6,0,0,0,3.08-1.75c.32-1.17-.4-2.89-1.75-3.07a32.49,32.49,0,0,0-5.66-.36c-3.21.11-3.23,5.11,0,5Z" transform="translate(-2525.27 -1208.71)"/><path class="cls-1" d="M2686.72,1347.94c-2.64,0-6.18-.92-7.61,1.88-1.58,3.11-1.57,8.18-1.78,11.62-.16,2.52-1.13,7.32,1.29,9.1s8,.17,10.85-.09c3.18-.3,3.21-5.3,0-5-2.28.21-4.68.25-6.94.64l-1.39.13c.94.45,1.3.25,1.07-.6.31-.61,0-2.87.08-3.48a62.6,62.6,0,0,1,.73-7c.08-.45.24-2.3.22-2.27.32-.36,3.06,0,3.48,0,3.22,0,3.22-5,0-5Z" transform="translate(-2525.27 -1208.71)"/><path class="cls-1" d="M2682.53,1369.72q-.18,5.76-.64,11.5c-.26,3.2,4.74,3.19,5,0q.46-5.74.64-11.5c.11-3.21-4.89-3.21-5,0Z" transform="translate(-2525.27 -1208.71)"/><path class="cls-1" d="M2685,1378.53a26.49,26.49,0,0,0,12.36.31c3.15-.64,1.82-5.47-1.33-4.82a20.8,20.8,0,0,1-9.7-.31c-3.11-.82-4.44,4-1.33,4.82Z" transform="translate(-2525.27 -1208.71)"/><path class="cls-1" d="M2699.82,1376l-.73-9.76c-.24-3.18-5.24-3.21-5,0l.73,9.76c.24,3.18,5.24,3.21,5,0Z" transform="translate(-2525.27 -1208.71)"/><path class="cls-1" d="M2709.5,1377.9c.38-2.17.32-5.52,1.3-7.48,1.35-2.7,5.55-2.34,8.18-2.46,3.1-.14,7.45,1,10-1.36,2.2-2.12,2-5.65,2.09-8.46.24-5.64.34-11.28.34-16.93,0-3.22-5-3.22-5,0,0,5.31-.08,10.63-.29,15.94-.06,1.32-.11,2.65-.18,4-.52,1.77-1.59,2.36-3.23,1.79-2,.44-4.42,0-6.45.24-2.65.25-6.47.22-8.53,2.22-2.6,2.53-2.43,7.88-3,11.19-.54,3.15,4.27,4.5,4.82,1.33Z" transform="translate(-2525.27 -1208.71)"/><path class="cls-1" d="M2717.75,1367.55c-.57,3.88-1,7.76-1.27,11.67-.22,3.21,4.78,3.2,5,0,.24-3.46.59-6.91,1.09-10.34.47-3.15-4.35-4.51-4.82-1.33Z" transform="translate(-2525.27 -1208.71)"/><path class="cls-1" d="M2720.23,1381.79A34.56,34.56,0,0,1,2733,1383c3.1.89,4.43-3.94,1.33-4.82a38.52,38.52,0,0,0-14.13-1.37c-3.18.28-3.21,5.28,0,5Z" transform="translate(-2525.27 -1208.71)"/><path class="cls-1" d="M2722.65,1381.73l.87,11.74c.24,3.19,5.24,3.21,5,0l-.87-11.74c-.23-3.19-5.23-3.22-5,0Z" transform="translate(-2525.27 -1208.71)"/><path class="cls-1" d="M2693.9,1393.77a177,177,0,0,1,19.41,0c3.21.18,3.2-4.82,0-5a177,177,0,0,0-19.41,0c-3.2.18-3.22,5.18,0,5Z" transform="translate(-2525.27 -1208.71)"/><path class="cls-1" d="M2680,1391.47l.27,16.38a2.52,2.52,0,0,0,2.5,2.5l17.38-1.12c3.2-.2,3.22-5.21,0-5l-17.38,1.12,2.5,2.5-.27-16.38c0-3.21-5.06-3.22-5,0Z" transform="translate(-2525.27 -1208.71)"/><path class="cls-1" d="M2709.36,1409.42a70.21,70.21,0,0,0,13.82-.57c3.53-.52,8.39-.64,11.61-1.89,5.35-2.09,1.43-11.51.09-15.31-1.07-3-5.9-1.72-4.82,1.32s2.94,7.62,2.27,10.71l1.74-1.74c-3.14,1-7.07,1.25-10.35,1.79a66.36,66.36,0,0,1-14.36.69c-3.22-.17-3.21,4.83,0,5Z" transform="translate(-2525.27 -1208.71)"/><path class="cls-1" d="M2702,1392.39q.27,3.75.19,7.5c-.06,3.22,4.94,3.22,5,0q.08-3.75-.19-7.5c-.23-3.19-5.23-3.21-5,0Z" transform="translate(-2525.27 -1208.71)"/><path class="cls-1" d="M2721.46,1407.57a31.29,31.29,0,0,0,.82-8c-.1-3.21-5.1-3.23-5,0a25.85,25.85,0,0,1-.64,6.68c-.73,3.13,4.09,4.47,4.82,1.33Z" transform="translate(-2525.27 -1208.71)"/><path class="cls-1" d="M2683,1402.67a48.69,48.69,0,0,0,10.86-.07c3.15-.37,3.19-5.37,0-5a48.69,48.69,0,0,1-10.86.07c-3.19-.33-3.17,4.67,0,5Z" transform="translate(-2525.27 -1208.71)"/><path class="cls-1" d="M2689,1411.06c.09,2.33-.58,4.57-.77,6.89a24.27,24.27,0,0,0,.44,6.25c.58,3.16,5.4,1.83,4.82-1.33-.75-4.07.66-7.79.51-11.81-.13-3.21-5.13-3.23-5,0Z" transform="translate(-2525.27 -1208.71)"/><path class="cls-1" d="M2726.06,1407.06a71.31,71.31,0,0,1-.33,15.66c-.43,3.15,4.38,4.51,4.82,1.33a76.63,76.63,0,0,0,.51-17c-.27-3.18-5.27-3.21-5,0Z" transform="translate(-2525.27 -1208.71)"/><path class="cls-1" d="M2725.32,1414.66a53.19,53.19,0,0,1-14,1.16c-3.22-.15-3.21,4.85,0,5a58.61,58.61,0,0,0,15.34-1.34c3.14-.69,1.81-5.51-1.33-4.82Z" transform="translate(-2525.27 -1208.71)"/><path class="cls-1" d="M2707,1419.56a29.73,29.73,0,0,1-.23,11.51c-.68,3.14,4.14,4.48,4.82,1.33a36.15,36.15,0,0,0,.23-14.17c-.57-3.16-5.39-1.82-4.82,1.33Z" transform="translate(-2525.27 -1208.71)"/><path class="cls-1" d="M2698,1416.89a47.9,47.9,0,0,1-2.73,17.27l2.41-1.84-9.59-.24c-3-.07-6.79.45-9.65-.35l1.74,1.75c-1.27-4.15-.41-9.94-.37-14.26,0-3.22-5-3.22-5,0,0,4.14,0,8.3.17,12.43.09,2,0,3.66,1.83,4.78,2,1.24,6.44.53,8.66.59l12.21.3a2.56,2.56,0,0,0,2.41-1.83,51.65,51.65,0,0,0,2.91-18.6c-.08-3.21-5.08-3.23-5,0Z" transform="translate(-2525.27 -1208.71)"/><path class="cls-1" d="M2685.36,1436.72a96.3,96.3,0,0,1,.39,15c-.16,3.22,4.84,3.21,5,0a96.3,96.3,0,0,0-.39-15c-.33-3.17-5.33-3.21-5,0Z" transform="translate(-2525.27 -1208.71)"/><path class="cls-1" d="M2687.64,1442.74q-7.24-.08-14.5-.26c-3.22-.09-3.21,4.91,0,5q7.26.19,14.5.26c3.22,0,3.22-5,0-5Z" transform="translate(-2525.27 -1208.71)"/><path class="cls-1" d="M2717,1428.74c.26,3,.41,6,.42,9,0,2.7.38,6.47-.53,9l1.74-1.75c.6-.15-2.18-.64-2.72-.71a21.41,21.41,0,0,0-3.67-.07c-3.1.17-6.13.78-9.22.12s-4.48,4.14-1.33,4.82c3.6.77,6.93.24,10.55.06a23.23,23.23,0,0,1,5.63.65,3.65,3.65,0,0,0,2.69-.3c2.21-1.43,1.69-5.45,1.78-7.69a107.88,107.88,0,0,0-.34-13.21c-.26-3.19-5.27-3.21-5,0Z" transform="translate(-2525.27 -1208.71)"/><path class="cls-1" d="M2721.65,1440.51l14.66.44c3.22.09,3.21-4.91,0-5l-14.66-.44c-3.22-.09-3.22,4.91,0,5Z" transform="translate(-2525.27 -1208.71)"/><path class="cls-1" d="M2727.73,1439.39c-.82,4.25-1.45,8.53-1.92,12.83-.35,3.2,4.65,3.17,5,0,.42-3.86,1-7.69,1.74-11.5.61-3.14-4.21-4.49-4.82-1.33Z" transform="translate(-2525.27 -1208.71)"/><path class="cls-1" d="M2688.65,1458.43c-3.29-.25-10.73-1.19-11.78,3.15-1.37,5.64.88,12.15-1.3,17.69-.6,1.53.92,3.19,2.41,3.17,3.67,0,8.47.18,12-1.14a2.48,2.48,0,0,0,1.74-1.75c.35-2.48-.19-6.54-1.54-8.67-1.71-2.69-6.35-1.88-9-1.79-3.21.12-3.23,5.12,0,5,.94,0,1.89-.06,2.83-.06a1.49,1.49,0,0,0,1.91-.39,19,19,0,0,1,1,4.58l1.75-1.74c-3.09,1.17-7.34.91-10.63,1l2.42,3.16c1-2.51.91-5.43,1.06-8.09.18-3.22-.46-7.28.45-10.33l-1.75,1.74c2.53-1,5.84-.69,8.49-.49,3.21.24,3.19-4.76,0-5Z" transform="translate(-2525.27 -1208.71)"/><path class="cls-1" d="M2710,1458.55c-3.57.6-10.15,0-11,4.49a65.47,65.47,0,0,0-.51,9.08c-.12,2.85-.67,6.25.1,9a2.45,2.45,0,0,0,1.74,1.74,26.12,26.12,0,0,0,9.49-.24c2.49-.52,3.23-2.17,3.39-4.57s.1-5.8-1.7-7.58-5.58-1.65-8-1.39c-3.16.34-3.2,5.34,0,5,1.9-.21,6.26-1,4.75,2.66-.64,1.58-4.76,1.68-6.58,1.3l1.75,1.75c-.68-2.45,0-5.92.11-8.44s-.2-5.71.53-8.12l-1.74,1.75c2.62-1.07,6.22-1.15,9-1.62,3.17-.53,1.83-5.35-1.33-4.82Z" transform="translate(-2525.27 -1208.71)"/><path class="cls-1" d="M2729.64,1458.41a42.41,42.41,0,0,1-5.94.92,16.22,16.22,0,0,0-3.88.26c-2.54.86-2.32,3.21-2.29,5.44,0,3.52-.18,7.18.38,10.67.31,1.92,1.07,5.43,3,6.52,2.26,1.3,6.31-.4,8.57-.93s4.17-1.14,4.4-3.7c.2-2.18-.62-6.48-2.11-8.1-1.86-2-6.23-1.37-8.69-1.51-3.21-.2-3.2,4.8,0,5,1.88.11,6.17-.62,5.51,2.66-.24,1.18-.06.74-1.9,1.14a16.36,16.36,0,0,1-4.51.78l2.16,1.24c-2.82-3.9-.82-8.74-1.75-13-.17-.8,0-2.44-1.51-1.34.4-.29,2.7-.11,3.34-.17a52.36,52.36,0,0,0,6.6-1c3.14-.69,1.81-5.51-1.33-4.83Z" transform="translate(-2525.27 -1208.71)"/><path class="cls-1" d="M2700.35,1225.09q6,0,12,.05l-1.26-4.66a45,45,0,0,0-4.41,4,54.52,54.52,0,0,1-5,3.67l3.76,2.16c-.07-2.5,1.34-4.49,2.13-6.78.64-1.87.61-3.94,1.43-5.75l-4.66-1.26c.18,3.43.12,6.67,1.42,9.91.9,2.24,1.84,5.45,4,6.73,2,1.19,4.91-1.31,3.42-3.42-1.75-2.5-4.4-3.71-6.85-5.37-2.29-1.56-2.92-3.45-5.94-3.79-3.2-.35-3.17,4.65,0,5,.7.08,2.37,2.4,3.05,2.86,1.75,1.17,4.17,2,5.42,3.82l3.42-3.42c.37.22-.61-1.32-.79-1.7a29,29,0,0,1-1.44-3.34c-.79-2.36-.62-4.83-.75-7.28-.12-2.25-3.56-3.7-4.66-1.26s-1.16,4.77-2,7.12c-1,2.71-2.31,5-2.23,7.93,0,1.7,2.17,3.38,3.77,2.16s3.12-2,4.57-3.17c1.72-1.39,3.07-3.17,4.84-4.49s1.41-4.63-1.26-4.66q-6-.06-12-.05c-3.21,0-3.22,5,0,5Z" transform="translate(-2525.27 -1208.71)"/><path class="cls-1" d="M2723,1313.59l1.57,13c.38,3.15,5.38,3.19,5,0l-1.57-13c-.38-3.16-5.38-3.2-5,0Z" transform="translate(-2525.27 -1208.71)"/></g><g id="Hp"><path class="cls-1" d="M2706.91,1460.51l-94.3-94.3,94.3-94.3,94.3,94.3Zm-74.42-94.3,74.42,74.42,74.41-74.42-74.41-74.41Z" transform="translate(-2525.27 -1208.71)"/><rect class="cls-1" x="2651.83" y="1311.13" width="110.16" height="110.16" transform="translate(-766.38 -2722.63) rotate(45)"/><path class="cls-2" d="M2706.91,1453.29l-87.07-87.08,87.07-87.07,87.07,87.07Zm-68.71-87.08,68.71,68.72,68.71-68.72-68.71-68.71Z" transform="translate(-2525.27 -1208.71)"/><rect class="cls-2" x="170.02" y="118.56" width="23.23" height="73.57"/><rect class="cls-2" x="2695.29" y="1327.27" width="23.23" height="73.57" transform="translate(-1182.41 2862.25) rotate(-90)"/></g></svg>