<svg xmlns="http://www.w3.org/2000/svg" viewBox="0 0 2895.95 1533.03"><defs><style>.cls-1{fill:#cfcece;}.cls-2{fill:#717070;}.cls-3{fill:#a3a2a2;}.cls-4{fill:#727070;}</style></defs><title>Map_With_Icons</title><g id="Paper_BG"><polygon class="cls-1" points="0 1502.72 261.8 1528.93 1389.45 1496.6 2296.79 1533.03 2833.12 1498.07 2820.18 1231.29 2895.95 220.88 2879.04 32.24 1532.01 0 586.01 52 51.99 39.73 53.3 666.97 0 1502.72"/></g><g id="Layer_6" data-name="Layer 6"><polygon class="cls-2" points="4.87 1426.31 261.8 1452.03 1389.45 1419.7 2296.79 1456.13 2829.4 1421.42 2820.18 1231.29 2895.95 220.88 2879.04 32.24 1532.01 0 586.01 52 51.99 39.73 53.3 666.97 4.87 1426.31"/></g><g id="Layer_5" data-name="Layer 5"><path class="cls-3" d="M717.65,1235.58c64.88-95.33,33.48-236.37-68.07-332.12-36.3,19-66.7,38.8-75.23,54.08,51.27,13.77,87.59,39.58,87.29,95-.21,39-15.74,71.19-53,90.78-17.56,9.22-34.38,9.32-51.42,4.65C580.81,1203,588.3,1265,589,1317.1,641.69,1307.05,687.62,1279.71,717.65,1235.58Z" transform="translate(-145.99 -107)"/><path class="cls-3" d="M422.39,1112.09c-22.91,10.24-40.6,35.72-34.36,64,5,22.64,17.09,40.48,34.83,43.59,22.57,4,47.09-5.32,63.16-27.57,0,0,18.36-25.41,15.21-45.09C495.26,1109.8,450.44,1099.55,422.39,1112.09Z" transform="translate(-145.99 -107)"/><path class="cls-3" d="M3034.62,425.5l-20.93-3.61-155.86-34.63-71-253.72-80.1-1.92-67,206.65-348.75-5.72c34.43-82.86,87.15-154.92,154.29-207.19L1678,107,732,159,198,146.73,199.29,774l-6.66,104.46a221.83,221.83,0,0,1,11.89-19.63c84.85-124.66,277.75-135.39,430.85-23.95q9.69,7,18.83,14.53c78.17-24.35,146.35-22.54,147.89-20l.65,11.84c-18.31,3.42-65,20.61-111.62,42C800.69,996,832.53,1154.24,759,1262.34c-39,57.25-100.73,90.45-171,98.84-2.43,42.14-8.43,70.76-10.08,71.49l-10.59-1.07c2.66-6.76,1.87-33.62-2.62-68.56-76.81,3.16-161.49-22.08-236.6-76.75-74-53.85-125.14-126.38-148.67-201l-28.58,448.05L407.79,1559l1127.65-32.33,907.34,36.44,532.61-34.72-9.22-190.13L2993,980.93c-43.45,43.39-94.74,77.64-152.46,99.41-119,44.9-242.82,28.28-346.58-34.86l264-241.36,235.3,173.28,6.33-84.44-.19-.71h0l-79.46-277.37,110.27-130.24ZM2754.05,167.2l60.15,214.93L2688,344ZM2622.22,402.63l-47.61,161.71-144.2-144.68Zm-153.49,626.31c-91.46-64.47-164.58-166.61-200.56-295.05C2232.45,606.42,2239.45,475,2279.93,361l279.6,259.11Zm91.62-145.49L2600,654.92l111.26,109Zm187.1-157.1L2615.07,599.16l55.49-190.85,162.88,42.48L2868,580.12Zm202.61,140.47L2794.15,766.54l93.08-117.75Zm-49.39-320.61-21.5-76.55,94.32,9.09Z" transform="translate(-145.99 -107)"/><path class="cls-3" d="M249.75,895c-31.11,45.72-40.07,102-29.78,158.68,43.07,8.69,91,14.27,130,10.41-33.57-42.28-50-88.41-20.24-132.28,21-30.9,56.26-44.36,96.49-37.16,28.75,5.15,45.17,22.16,59.51,48.62a74.13,74.13,0,0,1,4.82,11.27,148.47,148.47,0,0,1,17.94-21.44c29.07-28.77,62.82-49.87,96.86-65.27C477.61,780.35,320.11,791.66,249.75,895Z" transform="translate(-145.99 -107)"/><path class="cls-3" d="M353.44,1256.7c64.95,47.28,138.45,68.39,204.64,64.27-8.47-45.55-22.05-95.89-41.18-132.3-23.85,48.72-57.37,83.51-106.15,75.15-34.35-5.89-59-32.27-67.8-72-6.05-27.45,1.69-49.15,17.91-72.61-45.75-.32-90.7-10.66-130.06-24.32C251.62,1155.15,293.66,1213.19,353.44,1256.7Z" transform="translate(-145.99 -107)"/><path class="cls-3" d="M577.52,1098.79c21.24-11.15,39.39-28.08,39.56-48.24.22-25.66-13-45.33-37.22-57.28,0,0-26.84-16.78-45.5-8.38-35.31,15.91-42.42,65-25.71,92.5C522.31,1099.83,551,1112.75,577.52,1098.79Z" transform="translate(-145.99 -107)"/><path class="cls-3" d="M420,944.46c-22.9-4.11-44.66.55-55.56,16.48a69.07,69.07,0,0,0-3.6,72s14.82,27.77,34.2,32.48c36.68,8.93,66.39-30.37,67.72-62.43C463.85,976.74,448.67,949.59,420,944.46Z" transform="translate(-145.99 -107)"/><path class="cls-4" d="M1657.46,1531.6c8.4-6.4,15.18-14.8,20.35-26.16a106.73,106.73,0,0,0,8.42-27.37c9.64,12.23,21.18,21.5,33.11,26.91,33.64,15.25,56,13,73.09,8.51,26-6.77,47.52-16.58,58.37-41.69a95.21,95.21,0,0,0,7.68-28.76c12.78,15.08,28.61,25.63,41.82,29.6,17.64,5.29,45.13,7.93,62.22,3.48,26-6.77,44.4-17.17,55.77-40.31,15.9-32.38,13-64.72-8.11-88.54-30-33.82-73.21-29.2-117.29-9.44,14.59-78.8,85-188.13,99.37-196l-6.94-6.83c-4-1.15-130.29,107.16-149.52,235.13-.34,2.29-.58,4.56-.74,6.8-30.82-35.59-70.26-31.7-113.29-11.52-6.77-39.66,71.72-184.87,95.06-212.58l-7.15-7.68c-4.1-1.36-131.92,102.17-148,242.11a132.22,132.22,0,0,0-.86,16.6c-30-27.5-69.86-22.42-110.31-3.8,13.48-83.07,82.6-197.59,96.85-205.72l-7.06-7.33c-4.08-1.27-129.21,111.34-146.62,246.31-5.08,39.4,16.13,73.72,39.53,93.48Zm-20.8-42.81c-11,24.2-37.78,31.56-59.94,24.73-27.14-8.35-53.88-43.44-37.75-73.9,8.52-16.09,35.72-23,35.72-23a59.41,59.41,0,0,1,60.73,19.29C1646.53,1449.14,1645.48,1469.44,1636.66,1488.79Zm167.14-29.11c-10.82,25-38.28,33-60.57,25.66-27.28-8.94-50-46.52-34.15-78,8.38-16.61,36.76-20.87,36.76-20.87,23.81-6,44.22-.35,58.55,17.24C1815.66,1417.56,1812.45,1439.69,1803.8,1459.68Zm173.72-39.06c-11.32,23.07-38.08,30.4-60.07,24.25-26.92-7.52-53.07-40.36-36.58-69.41,8.72-15.35,35.91-22.25,35.91-22.25,23.81-6,46.4,1.7,60.25,17.41C1987.91,1383,1986.58,1402.19,1977.52,1420.62Z" transform="translate(-145.99 -107)"/></g></svg>